<mxfile host="app.diagrams.net" modified="2021-11-11T15:32:14.727Z" agent="5.0 (Windows NT 10.0; Win64; x64) AppleWebKit/537.36 (KHTML, like Gecko) Chrome/95.0.4638.69 Safari/537.36" etag="kzG3gYpIbpIPdJugmvPg" version="15.7.3" type="github">
  <diagram name="Page-1" id="c9db0220-8083-56f3-ca83-edcdcd058819">
    <mxGraphModel dx="1663" dy="828" grid="1" gridSize="10" guides="1" tooltips="1" connect="1" arrows="1" fold="1" page="1" pageScale="1.5" pageWidth="826" pageHeight="1169" background="#ffffff" math="0" shadow="0">
      <root>
        <mxCell id="0" style=";html=1;" />
        <mxCell id="1" style=";html=1;" parent="0" />
        <mxCell id="B5NhInNvNg8OOwda5CNB-115" value="&lt;span style=&quot;color: rgba(0 , 0 , 0 , 0) ; font-family: monospace ; font-size: 0px&quot;&gt;V&lt;/span&gt;" style="rounded=0;whiteSpace=wrap;html=1;labelBorderColor=none;fontSize=30;strokeWidth=8;strokeColor=#FFFFFF;" vertex="1" parent="1">
          <mxGeometry x="1290" y="1779" width="1160" height="2131" as="geometry" />
        </mxCell>
        <mxCell id="B5NhInNvNg8OOwda5CNB-389" value="" style="swimlane;startSize=0;labelBorderColor=none;fontFamily=Architects Daughter;fontSource=https%3A%2F%2Ffonts.googleapis.com%2Fcss%3Ffamily%3DArchitects%2BDaughter;fontSize=20;fontColor=#000000;strokeColor=#0066CC;strokeWidth=2;fillColor=#66B2FF;gradientColor=#3399FF;" vertex="1" parent="1">
          <mxGeometry x="1560" y="2930" width="850" height="560" as="geometry" />
        </mxCell>
        <mxCell id="B5NhInNvNg8OOwda5CNB-395" value="" style="whiteSpace=wrap;html=1;aspect=fixed;labelBorderColor=none;fontFamily=Architects Daughter;fontSource=https%3A%2F%2Ffonts.googleapis.com%2Fcss%3Ffamily%3DArchitects%2BDaughter;fontSize=20;strokeWidth=2;strokeColor=#000000;" vertex="1" parent="B5NhInNvNg8OOwda5CNB-389">
          <mxGeometry x="40" y="40" width="270" height="270" as="geometry" />
        </mxCell>
        <mxCell id="B5NhInNvNg8OOwda5CNB-388" value="" style="shape=image;verticalLabelPosition=bottom;labelBackgroundColor=#ffffff;verticalAlign=top;aspect=fixed;imageAspect=0;image=data:image/png,iVBORw0KGgoAAAANSUhEUgAAAOEAAADgCAMAAADCMfHtAAABLFBMVEX////7/////v/5///3///0////+//bPHb/+v/9/P/XPnbw///7/f/aPHbfOnb5/f/nnrnYMnDTQHb29vzaoLbm093/9//fLnHdNHbbO3nYKG327PPkN3bhhqbenbTgZZLhsL/n///wz9/zsMfTMm/pz9zeU4fNQ3bbSH7u4urSIGbikbLgKm/LUn7bfZ/pus/MfJrZtMTYdpzTY47z4evu6e/mxtT22ubwvNHspL/bcJbLXIbcXYnob5zdydXijrDsxNv70+LXbJjtIHDDT3rc1t3KLW/95fjVbJrvocDnfKPRUoXIh6T4v9TbG2XGe5XHb43nYJToSYb82u3uhqrCJmPSk63Zh63YR4W/QXP/7Pvjr8i9hp3UorXHWIXXb5DLs7/S09W0aofZ4+cNCKYXAAAdtElEQVR4nO1cC3vaSpJVv4ReSEgCCSTwAwsERoAB8TQOxEmc65B4nEniJGadzOz8//+w1XKc6zh2Hjt3N/GuzvX9YiRo+nRVV9XpblkQUqRIkSJFihQpUqRIkSJFihQpUqRIkSJFihQpUqRIkSJFihQpUqRIkSJFihQpUqRIkSJFihQpUtxbSNuOqhEBG1RkhoM0JhlEZNqv7tZfCKwahowEwenMWzLBEjEMijD71d36CyEv6i0RY2HpFYMak4jT2ZxqYNT/A8ACmAwJD3czbg9e9Iul4gaVUC4qBk0qYYIT/Ope/jsQVUmTZTwJMplwSFApo2dmhjoOyopXQEhWHYI0eq8Z+q8HY6oJXbOcdbcE7OkZZWWThWtlgCFhL/Zzjmr86k7+Wzj0iqUqoaNAz5ZWrb6r69niH62/ZzJ6EGNhJyhHeXDaX93L/xYgNRCEheeRlVHGZGzqmeCRmW0P6vv1UhBZ5Yz1VB3tlq0grxIDY3rvWIoIIx5C1pGiZOaVKHp80HtS607XKukOhw9aH7OBkitn9KxZFWEeYvHezUXM5NggRIzNsqJHb/Z743VuWMu1q3b1qCdvV9bV6f6JAvfaTFKRbN8/GyI6sfbXECk7QWTu1Rw2G436tt0m7Fmvwh7uj2Zs2R24GTfPRLIzWI1/dYd/GvQ8LOrRIH56aK66O5s1f0DUP4a2RavhXn37OHy2R2fb53kremvHm0HZnIu/usc/C8xmrqWbyspbqLl+vFL3WtPnBsmT2ljdsOf/HDTZcX9/5M8e1RtmWHY7v7rDPw1RXQblrJV1e5Q9bW+GL2h3OaxNK51+pbVTfajmm/T5hoOInA8gRWaC2q/u8E+DSKwCyU8PqlQj+T11PdyZP9qNFFcxI+8k2JzIzU3VkGX1hasrZavDfiCW8mCE0O8QkjSVYoaIv1lS6qYVI/X87HzhRtbhuutlMoryYD2zvFLOR4ZMq2ZpZWX2VZkxalCJfqsYl7GAZCwD01+dWpBfWezEajw3R/bgZN5EUq+4287HErGjTCZbsqkQb6xOGl2NPdS9vj3xBlRuvsjlZKp9u+9XNfovt2PLCwLr2cDrqtj+eLJZ7T8K8z5TKfO5DS1b1ij1t6yTSrUR/A349h697YSB5+WZfJcoRvh8PH44mazX68nDsYSoSG9/IwwClFJ/mS9jjBD5Sv1IA9cql0reGZOAySwwT/pDxEBjaFVgmC02iYY1JMSnJ6b10YbiDvWDYklXolMk39mz7vt3nmma/H9T2Z/aqnxXn0QH1Mxdd38WGpYlWaQ3mkPVUqmklB/7Aq/elu5uPkl2CNElZ+jFhA8JImLLM6sq9Iknz6xSDptQ6d31VcePitkM/JfNKplyOZjbdygSECyMfmOkfhKYqNAcu5mtyTJQisGI/8qcQZBHSaQEc08ShrXEh5hIyUY0MxBFjjrx9CisCfROhiRfLIEg4RZ09axlufM7GMrOq0llRO/w4Z+GjKVXO4vqzcmjsXhVPE14GJ2TNRWTIQCPnpqc4egy7ktg1FZUAe2kafahuR/jbww82gh0PfO31sbGxl7bLRYtb82bFAl4vMDnSTI0IiJo400UtRClGBMML+Fb+SoC1L3oshOUYSISMfE7jEGd81mLPs80eB9N1h00iNsIM9oP3Ago/DkVMaUq/CyCmkxEJExN98xnRCJUlg3S4gyL60RMyITRVzM36CJCHXV50qVMIHeSRDlTt+a8L4j6rSJM2kM+lFSUNMMwgIic3IKx7ESKmUOOJAMbWZQkGfM3SNJlDzFccLAoEcIpYk3jHzckkXw2OoYXcEkURQ1L0OzL4jt3jZD2OczT88l6p7u09qkoi8S3lIyptJqqJjFDQxXOEBShKAMt42Hf1HVl5RMqMbs+qL7odsd3eRdnWJpTbg9E5b4JChoSI9awqhLJlh1EBUrgJVVbbtbdYAxCtyNSmJOUGrZtU4rExGiIqYSJxuVLwk2LbEdF4lUs4UbWbFsjFFowwFqbxVLUU8EXrlK1mjsyI9MDw2oiwa3IUnTdtRZjasgG6ic2zFEZdNXyICpmLCUb5cBrZJqLLNeMgvW3GA5g4KGPItsJdGvXR9AvGk+fvazX5/2pL3CG3dxcz+ibuY1cbkyJWFu3Oodwv97pOtw9qNQ9PoZaYzhZdOGlv5y2Zpvzen1wFn/yHuR0K/wDg85x12fSNP/3UqnYP97I5eNPXTEGbglE79HQUTE5L4K2B1IZs1QZwyAcJgxbVBC7gyJ8Mgt1XSmEsSY4dhVdKRXvqsAvbXgZhHnNq1vREOYKnSgelLWZsutZXaZpkmWWdUvXzcj1LhCKixCZ9ExWL5vBpg0+hcWSab6ZrBuuO4M4UeHJB+Y3fF5ZMyJSCY3ngZnNQL9Mc3eNfTcoK1ke4NzdyZUNpxAS9PI+pDmDTL0/QogKYMaMaXbGTmiG9ffezJ8MTB0uZkulo9Vst8vtL88tKFCPvmnD+WWo1dgxdGvXgC5OLCujlGEQlbAc7FBZaigKENR1K3TzSIxL4CQZ+KawrLgVgU/XUinMhhF89ynSEMQFoJeFz2TL4RhRSX3VcME+WfiQophbzFd4+4qiZzPBFUOHVdte2cxDCSkLA88+73gw2RT4jBlYZxM+SfuQsxX4XGhZQc6Ig8Ru5LWZCfZr356HCUNCn670bHkfOnzeiKyyabXfh0HZKodD4lhmBN8G41mMLgiKPW6kQIEvtLJKrIoIGEJ3rIzpzZBMcieuGwRwX88qbgsRSeuD5iubSkOxAnO3i/2iCfwU3TW9P20oC6Q2gIwAqcQvrgQVdUOznGRqffR6d95pWPk16AkYOD1qFxg9bxzxSU8n0WwEUeybDGVHlER/uSrqlteFKbnlwdifDQ3qn8FYextYHRdm5ay5V6jVqrYss/VoVIvjYXMDOhpMqESAYTZTDsLFaIhlOt4a1ZrN4bDaLivFffDSh0e6ZX5sQpllx6MtX1bHVZjXZgvaK1zlREwgerXewLREciE6EyDe+p1ABxsGo5eetWTTwHu2BZ4MRjwzCCG0s8uXMEjVg3xhaHfoBs5QsRr11WpVgg/D5NdsVTqMrOhvPMOIZOZmsnNVYkLFVNyNP2tzqHEodKmuK+BXlHspiLUNW0hCI7/HswypRkqmZBNyDNVYaH/xzZtFxd26fsEQ7PhV35PgV7YT9RIHRGvL1c1KxW03ITiP96P1QM8G+9XEJdl0l1c/aFx6G5+L0Idbl8CBIcw2HgF0PoODvg3d9htlK+pCopA1NvGyWWsoGjcYGhpkJnDuPnTgE8NS0FU/3YWaExGuUl8FMB1tqvVLJbNyfaZg9BVDfzooeaaSjFDOKyTv0khzZgY9JWgCW0LHbrsXBWe26vC76osT3gD2rZIZdiYOu3XZLbGhkkmQ1a01g0QhNyHze02QizIl/m424zWxiL5giIg9ri3XGzmYuVcMLZMXYckwUob86nKyzj3L6hnFpg4kP3N9fUvsFoYDrwjZQhEuGTaTb8HitrOl9KKBCuEPKq1BMAlHTHT4YGE2iXgDmt0o8qB/hqQ7bAie3g5DiClKxmpKBtXk2M1kPBvmo0Y0zcvyjQLpOkNIF4t6yfW8KCpDKLmyYVTgHDDobfnFpl4sulHAU4ZiE6cODLvfYbgqlmDSWwnDljdMTKhC0eKvdsw9GWohrLGXQbctQXGRVBlsmTAElytBNApaTL5N5ydeOqe2bYyDTNZsMchtxthVOEOeIglyOUOiXfNSjB6+CyDI6TwjQjy8Yghv43dVib71MhakrFIZsgcwxPa7kh6MvsNwHUKlqodJr44/2dCByTcPu0EjkSKy/O79jnk6xNKVDXsJw7BoFSOvR6TbMga3YWbADAimfBGvOITC2Ihh7nlcoyFMpEsbytfnoTR4FOrB+/nmrANeeoMhRM5lBDNbqQ9me51LhgYw9L5nQ3a+POu0zaT46EajSxs6uTeRu557a6zJNlo/+o9F4HprltSCdIenFkH0rXCwGNm82LuDYXaOHMYg6EJcPGZYNGJQlVEyiBj5nOHwC4akqlhFK++AEFBnUBR+yRCJ9MC09HYTCnYyBq6KLRorYLj1xdb01wxlpCLh7CTxnULif4i8GnhQSs3Xlrn2bX9qeUtT0UvRZpzcfb3L/8XjaK1SRDVM7oql+hzuAuZQsjQg1Gg2FGzRiEA8FNUqVG/WkFdiSeUtMihgRybIaoOB5Bf65T9j6SVDQWb1UgYKYUkS1ThhqLFZMROdJepJliUNc8myWdSDNZFBN3zqCkgKxha7BYhq9JW7B4ztfNG1wBui1tT1lPr7KFxzUQEJsrSWmSRuBj7IBW100mOaJIu36/xrNQ24BsT0LsgxuqlDMQYKHBu0BTYe2NCLBdRGLQRqiQgjiL9tBG0Cw8zXDEkdAmwPEqKBxmbipZTrsoYtaEgTDZWBa8jksJgxN0BmGFeTR2bacmaZPUbi5Z4bCmo8C/RymasIr9LtzBv1Vvcl1IVQL0Ig7Meqb5mVpU/UnGkd1Iy7VhOvM7RLSik7p4YGda+SDdYSYaRbVHRzg7trzsyW5z7libzKq7EYFBAyXmZvzkMIu5uuYj4H1SWgJUQk8FK2NPUwOnMQIcwZVyVZk1mnqJQ/+gJ2rrpGzzsuFGjz41njUWRGhWNI9iASwZ2C+saqNV3nO/X1XhBcZrYo7E7dIPIas+nfrXIQVPzvM8QoH5Usr0Y1GltlqNZX/WebxaKSCbi3Q82UVYqrl/PVRG3C9z7aPz7ubDaKZSW6EWkctohAz1SmrWdz8DFg6GxLLyHqluuH/YN5Qz/pUUlSWzB2Sv1lffXwU1eMQ7ekg+LwouB0K++W+KIUhOuytz9SWScCGRI9p0atH5iJrNJdPVxvQRINoF5RiubiDobChmkpA8pLJSg+uXwYICyRtccraa52rFLxjPsReupBlzJ6ycsTCeJLBip+6APcLl6AO9ogPrxCMg8kdQy5u8SVkQI5vFSyMciGIEkeiaSKtpCkoZqXAR8sFY+6V17aj6A1q9jO+5TJdeCvg77y2iOIIlytZJQoiXRx58iFUJjRobBkQtyCHsDXQSF7lw0fld024tUvhPmWl3XfjCHsgjlNHRRhtuwGZwIvxkRy5gHBjBW1BLXZMKEO0suuC1LBzYEAti03gqTCWzQMlDsqwwDpmQjElpu1GWZkErpF7l6gT04ueLgS9yJoTSknUZNDW64ggL10O8DP2V56WUs33Y+1RI8nK1HcW7AAfhKfWVydHhWwg1R1MxyE1uPT5h0M6ejj6R8Xnxiq49nH2WZMeYAbVqDQUazHnTGhSRVIndxKMZUQxlRi5xW4F+4/77LaadjDqkNbp4enwyQRQ9QWuvuWFbYHF7Gf//DBkEQRqX4OrllWY39vI2Z8DctptcFK4f7V5pGmEkNVhUHoG5S+qA3KuvLxCeELbTB9+WqicplCEMSmuBVmzOexoRrVsfecQA0s3BVpNIYIX0DjXWOixpWBgSXDYDIz/Hjoy6DQkzNWBIS/3YybPtyiMoLfmzYUwxpFUHaqzjamspAkYihmId5SP/YNVaAGMs63JZWB5zPsD4dDSHeUihgchiIHFJaPr7qmIYnAu6ZejsUHHwvjwNoAaQ0/0C2arJdGXb4ihGXNMNTjILRbs3H8/CyaMoeK9+RoDTbsjSAbFgYP4kG36w1iksRAWaPJqn5QS9YMkaypcd0cMbV6+mHCY71Mbs/2vx8wWjyy9GChHg/cYWER1ePLDCuzccKwcMkQ4ovi9bbqi8L5kwMlm320waPjL+77jwGtPasM0Xb9j+qH12d+y1st+WVNTPaeMkHzcj3JWBd3L4xqv9tuPfAg5oL70lur7t8P4uARdNfz6tuL3TV51r2IvA2+xG4wmzMMhyoPPH7HPOqN+7QSNoePwoivaJ1S46/aM/qfBVoeWcreP3e8WW/EaC9ojcITa23zbYYi5OaGLxgszh157cJ6udX3B2o5rNY6oRnFSL4f8xCJ1bGBZbVz0lLRZG4/KSxb1kljo2ozYJj54NvLjhcpGzY7COvBmb8ZvRUYlZtNqjn35FAtpZDu2RLU52LY9tn5YHYRnyknXuMACji9WA92vTA/vpj17MGT6uhZoCg15Mh8PefOQ3wGFAwCotcXGyXt1tWAqw9oho1kkUHx7GhJs4ivkTvi1ZkIBCoIEqWMIeddb3Xb+YG9RwRBUfXrZlkPKjZzOqfVfz7NdUeLTcUNzaOgPTt7MMK5nv2sMH5uQ+2ouwOb8h2uu9umth/HUFZev0S+5dOiBvVrtTY+Vyf/IScbTUhG7OF/isYnPqLE7BjSPUX4+kBpBvmxaIfpFFSvZXqbceHD+AFtXXS6cWFYa04K4wfT52yz2RkKOz0ymQdmGVJL9zvtGcuwvQoOrjP0m9/ay2Zop/HhsL/6T9R6rrFPfWLHe+TKhtgg03D17t0O+uJIAJWc+OvWbgGR9t0wilr5KDxeH8Zq+WDwz1Zj2Eetin1sDaV8frxfObXz5XBdifRsdPqd9uj6mWrE769va7TyxjdmrXOwKoiE2L7UH1HhkgPCnfVnRwelvZdntPumia4PlMgq+R9iiMW+F4U9QtauuTfZnrZGLdqvt/L24KCpHhRIvG/7heo8CrpI6nlBdPY95z/oCdr2swuBsPNCbBuyY7yrOgbzxwVHJoYvDau+bSBRNIYOCEebvd5PWImqXWpS39BkwzmntBTH1XOs8QJeFJlbYIYxmKjn44e2DWW6bS9j225PfNux6Xhsg1xgUrU6NAzDNvyab2vXeomZluvJCKsHWd01+0vjwcb5YLTbe/FxlqfrKdJ6T6t1kCnBARNVqXfxrR1uDvnxmBFp1SV26/GsXh+T1t+P6vvN9eP+YBVT0n/eeD86eCBQNPlAJdkw4t0m5tbCdLw6lxWwE93YE8691mDv/RpzhoiOA9Aa9urJi9XeLKwhtujvv+/lG9HmfnN60J/Nw5iicf20Xxph1qnUH4+2r098DNOab5ueB3o5mzXfzKfVf/XooHaxHu0Z8ZZUza1OQPqDch3KDILi9059ja1qc3lYMWhnZiB1OrdJrc0I+pfD1E6HaPP2EKmVLYE51hOJAZ3ppiom621oZ09oFilMtsM1G538A5GHxX8l01mDwUD26zYb2rxFQl6+B7kkxyuKt1+H1W1SOWNPVyOV1LJMmzWGiDjGNTuA5JD4GbSJpyvu6bAVBW792cX0wfLheNLdOGiYUTY/3Ax03Rzxwwbk1oXuP8dLGFkf26WaqE7e20yiT8Oh3Kowg4hQKB2fCnHwRDbwTgWh6R64BBHZwVqztaQfizyafDRA+9abKNchDmX1CZ+/iLSUw8PVnu8whpxl2xAbPQS18/HCIE59TTU8faYuNkAV2+EwNp8YkHeuexpGyZ67MHWzZjtWY6hUs24QPDKDyNz1AsiLlk/9lQt6mOs46VuBH0MoWJyJBkxFtFhQQyLnYYxedhl1ugf1QX2xXa3LINte9JFt8VV2IqPNNUsGHBurGnp9AeIybtjCnKtYVB9dbiUfblRrQ0rVyWz+x2rA4jd8jYQe/AOjc8tnDulMWb2/WCwqgT9+Z98lCrqBtw/uPPKUcrnTfGgqoIhH8Tyr6EGMhPOBF47Yd8/qY4oGXYF16wwd9EAA01cwPEGs+v1Z07b7a+G4AsYy4gFt5XlbEiXPXm87SdQ8X8XCfEREdecjcgJuPLuYlP7o/N1QJbKjvm4XbHXxFi3b/P1OO8bCcl+kImoUzhsPOGrqtIPuihRGnLepjEdRRg9G21TJKPpKVXdMPeONYbLbOz5U299JsUhiPril6hdtobNBDCy0TnEcyKzaZlAKlJ6osx5kN9tejUOV2wGEdPXoXE4YPvwg2tmmrKHNM1JNtgBePE5CIhqXbJEwdWj9yxbpqoeOkzWi8cpGAhAisu8Zvu5jGTsCfXaB7jpUKKowGLJY2826p4aEZ2WrPDM0p20qQZMgTdymhnj3Ua9LUIdV39sQIOtVNgl9VVi+H6NRlqnjrL/ttEzfbhT4oRn7cN5LJDSGuuXwQ6yqgrF93KF2sUCM3slo+/hozdh52EOcO9qZbSMs4rj0ahtv7TbZ5j+SEamrhM62mIyqoUA3L0SCVNXZH1Hpju1p6vCFE+S/N8MxTNq1awVbqqw+DLzHPrRCsHTHIvf1NmQIiGBqeXGhqq2w0lnVGH0V9rva29Xr09YHCYpfIssyPdj/c7RYLqwfbJ7KnTUh3fBtv1Mfb++t9w8qqxxDSaVQySdnaljr/dt+fxXb7SZ/ObQOe+LjAoSpfIWwcXvWejZQ41JTvXU75U+Q826yWXp+FChNGA5SHfnSjz5+KEvEjynF1B9KDmt2a7IgE+p3oaECpOGY2mOIqpqj1keXB4GSYaF2YVTzaWwTmb4aNdmQ0diAaz6lyTejMWQp3jqrLodwV4svT99Bu3LTkDEd+rKM7MKDGjjxEH8vnSFCk61dVh3VqAw6gSH19q3QW4CJbFCRYAY1MnyQUbAn5seVRJacQ9JkyHbgKDt7Dv1cRcvIEIGvzI9aY6YK/EQmRiq1CTR1WYiriVYzDH4X8reQxBJ4ryEzmWiGQeEThgzZSaRcgXzvcO/lKVQCHdQI5BpNBgf/0ScQ0KeTefjTIT181SI/s5X8C1eqx+/HwjV5wo/j8df83TwX8ZfwC+En9S77JMifRJUsXLbzuasCTr6T71hD1XL5LT/Y1+RRoeT9KPn5C9Hb+Nc9kc//Xdiq83/pueJbQMV7/iDjvw9kSKChNA5DJJ9lL8ba5cUEycThZ3+Tk6f37JE6hHme0DS+d4rZ55PgEEvIJ3qEXJ7x5zFGlkQohO6Z358/9T+DfA6OkPPiq6vxeVKu2/Dr0Hd4YrlXNhQeHK6sUqNRUsL9B38+QsGErY8hv64r4SDPVQCW/EKv0m7MFw8lRMRf/vjKDwNysD8J9IzZGdtf9Bo7/qRRVty/+bb8OVhRfyfcjQZV+q0ly98NUBDRiqtYsXqdIJ90TG25mQBU3ueJh+G9zl4UHS3V+/NkJDicRHNupmFr1wMIX6Z11OmRFfhQ3VxNPK4ICHoeFI/uPFz/GwJqSzI19ZX9pUyAKcn47rRloGvP/hEkiOy8XSxW7hFDjh3O8KtnhgyQ6CXLvhE4RRXnXD286wDMbwpgODC+YkhvZ8j4mSOz+r/Wub8EnOHXNqS4eitDLVaU6HsbDr8ZdszywKY3SxUDV71Mg96ImlDX2PVMcnLyHuFnGPInzhp6cO+89BsMpZuXNb+kv793kebHGSJNqgZm675li+Auhnr95pOiVKKtojW8PzVNgp9hiLdflY5G4j3T1T/DEPnzcMLke8dQ/w5DfLkECEXbi/ZpTOTf4o84/AS+yxBhGq8ODw42Xza8LrpH4vAK32VIRCHudzqdPascdL670v0b4vsMJSJTCkpx7Waj9T1k2HVBW3w1tSjPh3XG8yF/vF0GocjwnqmE8b058voZoyhT/+JIRYJrDD8ByfTc0s097VvHmH5LjKIsaPybSy+gnm4w5PvOk6Bsbgl37Rv+rqh6ijX8atP5a4YYi7LacTOZL88T/f4g40gJxugmQ4Imnv6VtsC+UnIHtkHwnQfsfz8g38x63a/+8sslw5s1DZO6kQKVN/nlf9PoJyCq80zx7c0/N3MHQyobfaXMHxr/X+vfvw9p+7VZsmK+pna92+hWLxWpFjcg8cPb74+CwmSsZN0K1TR8PetrZMcrWcYttpoESrEx1O5PPCUOy3mK24Wkft0sBO0Uv16J4lAXQcnd9O9PTsQic5690c2R8MXRZyZMiyXTv4WhbGyWQndwf1YyMJIQbb2J3JatIkFKHiaHOak6/WLRvcACuXm2QGL+vhe6H6r8Lwnge6KkRDzON7yj1thWk2fY5HjrdRiYgbu7WqxvnoDGSJZa9aJ3dJjrSvLNparfFIjyU37LrbP16PJJ99pWfrper3vrnY1884aViCiqqtYsdPP5C0m9J1vCSEu2mJBKCKcDr2yCEMxLQtFXj7RwpSHKyaggJn9Vsv+eSI4MQUYUL3fS4BW9PF/0+SzR9TcjLqfgHhG+pp8iRYoUKVKkSJEiRYoUKVKkSJEiRYoUKVKkSJEiRYoUKVKkSJEiRYoUKVKkSJEiRYoUKVKkSJEiRYr/d/gv3Y5W/us23XwAAAAASUVORK5CYII=;" vertex="1" parent="B5NhInNvNg8OOwda5CNB-389">
          <mxGeometry x="49.140000000000114" y="49.69999999999996" width="251.73" height="250.61" as="geometry" />
        </mxCell>
        <mxCell id="B5NhInNvNg8OOwda5CNB-403" value="&lt;b&gt;Statut :&lt;/b&gt;" style="text;html=1;strokeColor=none;fillColor=none;align=center;verticalAlign=middle;whiteSpace=wrap;rounded=0;labelBorderColor=none;fontFamily=Architects Daughter;fontSource=https%3A%2F%2Ffonts.googleapis.com%2Fcss%3Ffamily%3DArchitects%2BDaughter;fontSize=20;fontColor=#000000;" vertex="1" parent="B5NhInNvNg8OOwda5CNB-389">
          <mxGeometry x="350" y="60" width="90" height="30" as="geometry" />
        </mxCell>
        <mxCell id="B5NhInNvNg8OOwda5CNB-406" value="&lt;font style=&quot;font-size: 20px&quot; color=&quot;#000066&quot;&gt;Member&lt;/font&gt;" style="rounded=1;arcSize=9;fillColor=#F7F8F9;align=left;spacingLeft=5;strokeColor=#DEE1E6;html=1;strokeWidth=2;fontColor=#596780;fontSize=12;labelBorderColor=none;fontFamily=Architects Daughter;fontSource=https%3A%2F%2Ffonts.googleapis.com%2Fcss%3Ffamily%3DArchitects%2BDaughter;" vertex="1" parent="B5NhInNvNg8OOwda5CNB-389">
          <mxGeometry x="470" y="57" width="290" height="33" as="geometry" />
        </mxCell>
        <mxCell id="B5NhInNvNg8OOwda5CNB-407" value="&lt;b&gt;Nom:&amp;nbsp; &amp;nbsp;&lt;/b&gt;" style="text;html=1;strokeColor=none;fillColor=none;align=center;verticalAlign=middle;whiteSpace=wrap;rounded=0;labelBorderColor=none;fontFamily=Architects Daughter;fontSource=https%3A%2F%2Ffonts.googleapis.com%2Fcss%3Ffamily%3DArchitects%2BDaughter;fontSize=20;fontColor=#000000;" vertex="1" parent="B5NhInNvNg8OOwda5CNB-389">
          <mxGeometry x="361" y="140" width="90" height="30" as="geometry" />
        </mxCell>
        <mxCell id="B5NhInNvNg8OOwda5CNB-408" value="&lt;font style=&quot;font-size: 20px&quot; color=&quot;#000066&quot;&gt;xgsgwecdgdwedgweugcweu&lt;/font&gt;" style="rounded=1;arcSize=9;fillColor=#F7F8F9;align=left;spacingLeft=5;strokeColor=#DEE1E6;html=1;strokeWidth=2;fontColor=#596780;fontSize=12;labelBorderColor=none;fontFamily=Architects Daughter;fontSource=https%3A%2F%2Ffonts.googleapis.com%2Fcss%3Ffamily%3DArchitects%2BDaughter;" vertex="1" parent="B5NhInNvNg8OOwda5CNB-389">
          <mxGeometry x="150" y="342" width="650" height="153" as="geometry" />
        </mxCell>
        <mxCell id="B5NhInNvNg8OOwda5CNB-409" value="&lt;b&gt;Description:&lt;/b&gt;" style="text;html=1;strokeColor=none;fillColor=none;align=center;verticalAlign=middle;whiteSpace=wrap;rounded=0;labelBorderColor=none;fontFamily=Architects Daughter;fontSource=https%3A%2F%2Ffonts.googleapis.com%2Fcss%3Ffamily%3DArchitects%2BDaughter;fontSize=20;fontColor=#000000;" vertex="1" parent="B5NhInNvNg8OOwda5CNB-389">
          <mxGeometry x="30" y="370" width="90" height="30" as="geometry" />
        </mxCell>
        <mxCell id="B5NhInNvNg8OOwda5CNB-411" value="&lt;font style=&quot;font-size: 20px&quot; color=&quot;#000066&quot;&gt;Humaine&lt;/font&gt;" style="rounded=1;arcSize=9;fillColor=#F7F8F9;align=left;spacingLeft=5;strokeColor=#DEE1E6;html=1;strokeWidth=2;fontColor=#596780;fontSize=12;labelBorderColor=none;fontFamily=Architects Daughter;fontSource=https%3A%2F%2Ffonts.googleapis.com%2Fcss%3Ffamily%3DArchitects%2BDaughter;" vertex="1" parent="B5NhInNvNg8OOwda5CNB-389">
          <mxGeometry x="480" y="217" width="290" height="33" as="geometry" />
        </mxCell>
        <mxCell id="B5NhInNvNg8OOwda5CNB-412" value="&lt;b&gt;Categorie&lt;/b&gt;" style="text;html=1;strokeColor=none;fillColor=none;align=center;verticalAlign=middle;whiteSpace=wrap;rounded=0;labelBorderColor=none;fontFamily=Architects Daughter;fontSource=https%3A%2F%2Ffonts.googleapis.com%2Fcss%3Ffamily%3DArchitects%2BDaughter;fontSize=20;fontColor=#000000;" vertex="1" parent="B5NhInNvNg8OOwda5CNB-389">
          <mxGeometry x="361" y="220" width="90" height="30" as="geometry" />
        </mxCell>
        <mxCell id="B5NhInNvNg8OOwda5CNB-126" value="" style="whiteSpace=wrap;html=1;aspect=fixed;labelBorderColor=none;fontSize=30;fontColor=#000000;strokeColor=#FFFFFF;strokeWidth=8;fillColor=#CCE6FF;gradientColor=#ffffff;" vertex="1" parent="1">
          <mxGeometry x="1540" y="1857" width="330" height="330" as="geometry" />
        </mxCell>
        <mxCell id="B5NhInNvNg8OOwda5CNB-35" value="" style="rounded=0;whiteSpace=wrap;html=1;labelBorderColor=none;fontSize=20;strokeWidth=8;strokeColor=#FFFFFF;" vertex="1" parent="1">
          <mxGeometry x="193" y="1740" width="1044" height="1736" as="geometry" />
        </mxCell>
        <mxCell id="B5NhInNvNg8OOwda5CNB-20" value="" style="perimeter=none;dashed=0;shape=rect;fillColor=#dae8fc;strokeColor=#6c8ebf;shadow=1;" vertex="1" parent="1">
          <mxGeometry y="1795" width="200" height="1705" as="geometry" />
        </mxCell>
        <mxCell id="B5NhInNvNg8OOwda5CNB-21" value="Profile" style="perimeter=none;dashed=0;shape=mxgraph.gmdl.preview;verticalAlign=middle;align=left;labelPosition=right;fontSize=20;spacing=16;resizeWidth=1;strokeColor=none;fillColor=#747474;strokeWidth=8;" vertex="1" parent="B5NhInNvNg8OOwda5CNB-20">
          <mxGeometry width="30" height="20" relative="1" as="geometry">
            <mxPoint x="17" y="16" as="offset" />
          </mxGeometry>
        </mxCell>
        <mxCell id="B5NhInNvNg8OOwda5CNB-22" value="Clubs" style="perimeter=none;dashed=0;shape=mxgraph.gmdl.share3;verticalAlign=middle;align=left;labelPosition=right;fontSize=20;spacing=16;resizeWidth=1;strokeColor=none;fillColor=#747474;" vertex="1" parent="B5NhInNvNg8OOwda5CNB-20">
          <mxGeometry width="30" height="24" relative="1" as="geometry">
            <mxPoint x="14" y="47" as="offset" />
          </mxGeometry>
        </mxCell>
        <mxCell id="B5NhInNvNg8OOwda5CNB-23" value="Calender" style="perimeter=none;dashed=0;shape=mxgraph.gmdl.link;verticalAlign=middle;align=left;labelPosition=right;fontSize=20;spacing=16;resizeWidth=1;strokeColor=none;fillColor=#747474;" vertex="1" parent="B5NhInNvNg8OOwda5CNB-20">
          <mxGeometry width="30" height="20" relative="1" as="geometry">
            <mxPoint x="16" y="91" as="offset" />
          </mxGeometry>
        </mxCell>
        <mxCell id="B5NhInNvNg8OOwda5CNB-24" value="" style="shape=line;resizeWidth=1;perimeter=none;strokeColor=#003366;" vertex="1" parent="B5NhInNvNg8OOwda5CNB-20">
          <mxGeometry width="200" height="20" relative="1" as="geometry">
            <mxPoint y="148" as="offset" />
          </mxGeometry>
        </mxCell>
        <mxCell id="B5NhInNvNg8OOwda5CNB-26" value="" style="shape=line;resizeWidth=1;perimeter=none;strokeColor=#000066;" vertex="1" parent="B5NhInNvNg8OOwda5CNB-20">
          <mxGeometry width="200" height="600" relative="1" as="geometry">
            <mxPoint y="220" as="offset" />
          </mxGeometry>
        </mxCell>
        <mxCell id="B5NhInNvNg8OOwda5CNB-27" value="Remove Profile" style="perimeter=none;dashed=0;shape=mxgraph.gmdl.remove;verticalAlign=middle;align=left;labelPosition=right;fontSize=20;spacing=16;resizeWidth=1;strokeColor=none;fillColor=#747474;" vertex="1" parent="B5NhInNvNg8OOwda5CNB-20">
          <mxGeometry width="14.11764705882353" height="16" relative="1" as="geometry">
            <mxPoint x="16" y="529" as="offset" />
          </mxGeometry>
        </mxCell>
        <mxCell id="B5NhInNvNg8OOwda5CNB-149" value="Profile" style="perimeter=none;dashed=0;shape=mxgraph.gmdl.preview;verticalAlign=middle;align=left;labelPosition=right;fontSize=20;spacing=16;resizeWidth=1;strokeColor=none;fillColor=#747474;strokeWidth=8;" vertex="1" parent="B5NhInNvNg8OOwda5CNB-20">
          <mxGeometry x="20" y="596.0743301026225" width="30" height="17.1875" as="geometry" />
        </mxCell>
        <mxCell id="B5NhInNvNg8OOwda5CNB-151" value="Clubs" style="perimeter=none;dashed=0;shape=mxgraph.gmdl.share3;verticalAlign=middle;align=left;labelPosition=right;fontSize=20;spacing=16;resizeWidth=1;strokeColor=none;fillColor=#747474;" vertex="1" parent="B5NhInNvNg8OOwda5CNB-20">
          <mxGeometry x="20" y="638.6795895096922" width="30" height="24.223831242873434" as="geometry" />
        </mxCell>
        <mxCell id="B5NhInNvNg8OOwda5CNB-152" value="Calender" style="perimeter=none;dashed=0;shape=mxgraph.gmdl.link;verticalAlign=middle;align=left;labelPosition=right;fontSize=20;spacing=16;resizeWidth=1;strokeColor=none;fillColor=#747474;" vertex="1" parent="B5NhInNvNg8OOwda5CNB-20">
          <mxGeometry x="20" y="688.433224059293" width="30" height="17.1875" as="geometry" />
        </mxCell>
        <mxCell id="B5NhInNvNg8OOwda5CNB-163" value="" style="shape=line;resizeWidth=1;perimeter=none;strokeColor=#000066;" vertex="1" parent="B5NhInNvNg8OOwda5CNB-20">
          <mxGeometry y="1621.2338725769669" width="200" height="25.781249999999996" as="geometry" />
        </mxCell>
        <mxCell id="B5NhInNvNg8OOwda5CNB-164" value="Remove Profile" style="perimeter=none;dashed=0;shape=mxgraph.gmdl.remove;verticalAlign=middle;align=left;labelPosition=right;fontSize=20;spacing=16;resizeWidth=1;strokeColor=none;fillColor=#747474;" vertex="1" parent="B5NhInNvNg8OOwda5CNB-20">
          <mxGeometry x="5.879999999999999" y="1655" width="14.11764705882353" height="16" as="geometry" />
        </mxCell>
        <mxCell id="B5NhInNvNg8OOwda5CNB-37" value="" style="rounded=1;whiteSpace=wrap;html=1;labelBorderColor=none;fontSize=20;fontColor=#1A1A1A;strokeColor=#FFFFFF;strokeWidth=8;fillColor=#CCE6FF;gradientColor=#ffffff;" vertex="1" parent="1">
          <mxGeometry x="230" y="1770" width="650" height="520" as="geometry" />
        </mxCell>
        <mxCell id="B5NhInNvNg8OOwda5CNB-38" value="Nom:" style="text;html=1;strokeColor=none;fillColor=none;align=center;verticalAlign=middle;whiteSpace=wrap;rounded=0;labelBorderColor=none;fontSize=29;fontColor=#1A1A1A;" vertex="1" parent="1">
          <mxGeometry x="323" y="1861" width="110" height="30" as="geometry" />
        </mxCell>
        <mxCell id="B5NhInNvNg8OOwda5CNB-41" value="Prenom:" style="text;html=1;strokeColor=none;fillColor=none;align=center;verticalAlign=middle;whiteSpace=wrap;rounded=0;labelBorderColor=none;fontSize=29;fontColor=#1A1A1A;" vertex="1" parent="1">
          <mxGeometry x="310" y="1930" width="110" height="30" as="geometry" />
        </mxCell>
        <mxCell id="B5NhInNvNg8OOwda5CNB-42" value="Adress:" style="text;html=1;strokeColor=none;fillColor=none;align=center;verticalAlign=middle;whiteSpace=wrap;rounded=0;labelBorderColor=none;fontSize=29;fontColor=#1A1A1A;" vertex="1" parent="1">
          <mxGeometry x="319" y="2000" width="110" height="30" as="geometry" />
        </mxCell>
        <mxCell id="B5NhInNvNg8OOwda5CNB-43" value="Mobile number:" style="text;html=1;strokeColor=none;fillColor=none;align=center;verticalAlign=middle;whiteSpace=wrap;rounded=0;labelBorderColor=none;fontSize=29;fontColor=#1A1A1A;" vertex="1" parent="1">
          <mxGeometry x="323" y="2080" width="110" height="30" as="geometry" />
        </mxCell>
        <mxCell id="B5NhInNvNg8OOwda5CNB-44" value="Sector:" style="text;html=1;strokeColor=none;fillColor=none;align=center;verticalAlign=middle;whiteSpace=wrap;rounded=0;labelBorderColor=none;fontSize=29;fontColor=#1A1A1A;" vertex="1" parent="1">
          <mxGeometry x="319" y="2150" width="110" height="30" as="geometry" />
        </mxCell>
        <mxCell id="B5NhInNvNg8OOwda5CNB-46" value="Messina Cake" style="rounded=1;arcSize=9;align=left;spacingLeft=5;strokeColor=#4C9AFF;html=1;strokeWidth=2;fontSize=12;labelBorderColor=none;fontColor=#1A1A1A;fillColor=#99CCFF;gradientColor=#ffffff;" vertex="1" parent="1">
          <mxGeometry x="444" y="1858" width="290" height="33" as="geometry" />
        </mxCell>
        <mxCell id="B5NhInNvNg8OOwda5CNB-47" value="Messina Cake" style="rounded=1;arcSize=9;align=left;spacingLeft=5;strokeColor=#4C9AFF;html=1;strokeWidth=2;fontSize=12;labelBorderColor=none;fontColor=#1A1A1A;fillColor=#99CCFF;gradientColor=#ffffff;" vertex="1" parent="1">
          <mxGeometry x="446" y="1927" width="290" height="33" as="geometry" />
        </mxCell>
        <mxCell id="B5NhInNvNg8OOwda5CNB-48" value="Messina Cake" style="rounded=1;arcSize=9;align=left;spacingLeft=5;strokeColor=#4C9AFF;html=1;strokeWidth=2;fontSize=12;labelBorderColor=none;fontColor=#1A1A1A;fillColor=#99CCFF;gradientColor=#ffffff;" vertex="1" parent="1">
          <mxGeometry x="450" y="1997" width="290" height="33" as="geometry" />
        </mxCell>
        <mxCell id="B5NhInNvNg8OOwda5CNB-49" value="Messina Cake" style="rounded=1;arcSize=9;align=left;spacingLeft=5;strokeColor=#4C9AFF;html=1;strokeWidth=2;fontSize=12;labelBorderColor=none;fontColor=#1A1A1A;fillColor=#99CCFF;gradientColor=#ffffff;" vertex="1" parent="1">
          <mxGeometry x="450" y="2082" width="290" height="33" as="geometry" />
        </mxCell>
        <mxCell id="B5NhInNvNg8OOwda5CNB-50" value="Messina Cake" style="rounded=1;arcSize=9;align=left;spacingLeft=5;strokeColor=#4C9AFF;html=1;strokeWidth=2;fontSize=12;labelBorderColor=none;fontColor=#1A1A1A;fillColor=#99CCFF;gradientColor=#ffffff;" vertex="1" parent="1">
          <mxGeometry x="450" y="2147" width="290" height="33" as="geometry" />
        </mxCell>
        <mxCell id="B5NhInNvNg8OOwda5CNB-54" value="&lt;font style=&quot;font-size: 20px&quot;&gt;Edit&lt;/font&gt;" style="rounded=1;html=1;shadow=0;dashed=0;whiteSpace=wrap;fontSize=10;fillColor=#E6E6E6;align=center;strokeColor=#E6E6E6;fontColor=#333333;labelBorderColor=none;" vertex="1" parent="1">
          <mxGeometry x="680" y="2220" width="145.5" height="26.88" as="geometry" />
        </mxCell>
        <mxCell id="B5NhInNvNg8OOwda5CNB-56" value="" style="line;strokeWidth=2;html=1;labelBorderColor=none;fontSize=20;fontColor=#B3B3B3;fillColor=#99CCFF;gradientColor=#ffffff;" vertex="1" parent="1">
          <mxGeometry x="10" y="2354" width="1220" height="10" as="geometry" />
        </mxCell>
        <mxCell id="B5NhInNvNg8OOwda5CNB-59" value="" style="strokeWidth=1;shadow=0;dashed=0;align=center;html=1;shape=mxgraph.mockup.forms.rrect;rSize=5;strokeColor=#999999;fillColor=#ffffff;labelBorderColor=none;fontSize=20;fontColor=#B3B3B3;" vertex="1" parent="1">
          <mxGeometry x="240" y="2440" width="950" height="900" as="geometry" />
        </mxCell>
        <mxCell id="B5NhInNvNg8OOwda5CNB-60" value="October 2014" style="strokeWidth=1;shadow=0;dashed=0;align=center;html=1;shape=mxgraph.mockup.forms.anchor;fontColor=#999999;labelBorderColor=none;fontSize=20;fillColor=#CCE6FF;gradientColor=#ffffff;" vertex="1" parent="B5NhInNvNg8OOwda5CNB-59">
          <mxGeometry x="178.125" y="41.14285714285714" width="593.75" height="102.85714285714285" as="geometry" />
        </mxCell>
        <mxCell id="B5NhInNvNg8OOwda5CNB-61" value="&lt;" style="strokeWidth=1;shadow=0;dashed=0;align=center;html=1;shape=mxgraph.mockup.forms.rrect;rSize=4;strokeColor=#999999;fontColor=#008cff;fontSize=19;fontStyle=1;labelBorderColor=none;fillColor=#CCE6FF;gradientColor=#ffffff;" vertex="1" parent="B5NhInNvNg8OOwda5CNB-59">
          <mxGeometry x="47.5" y="41.14285714285714" width="148.4375" height="102.85714285714285" as="geometry" />
        </mxCell>
        <mxCell id="B5NhInNvNg8OOwda5CNB-62" value="&gt;" style="strokeWidth=1;shadow=0;dashed=0;align=center;html=1;shape=mxgraph.mockup.forms.rrect;rSize=4;strokeColor=#999999;fontColor=#008cff;fontSize=19;fontStyle=1;labelBorderColor=none;fillColor=#CCE6FF;gradientColor=#ffffff;" vertex="1" parent="B5NhInNvNg8OOwda5CNB-59">
          <mxGeometry x="754.0625" y="41.14285714285714" width="148.4375" height="102.85714285714285" as="geometry" />
        </mxCell>
        <mxCell id="B5NhInNvNg8OOwda5CNB-63" value="Mo" style="strokeWidth=1;shadow=0;dashed=0;align=center;html=1;shape=mxgraph.mockup.forms.anchor;fontColor=#999999;labelBorderColor=none;fontSize=20;fillColor=#CCE6FF;gradientColor=#ffffff;" vertex="1" parent="B5NhInNvNg8OOwda5CNB-59">
          <mxGeometry x="59.37500000000001" y="143.99999999999997" width="118.75000000000001" height="102.85714285714285" as="geometry" />
        </mxCell>
        <mxCell id="B5NhInNvNg8OOwda5CNB-64" value="Tu" style="strokeWidth=1;shadow=0;dashed=0;align=center;html=1;shape=mxgraph.mockup.forms.anchor;fontColor=#999999;labelBorderColor=none;fontSize=20;fillColor=#CCE6FF;gradientColor=#ffffff;" vertex="1" parent="B5NhInNvNg8OOwda5CNB-59">
          <mxGeometry x="178.125" y="143.99999999999997" width="118.75000000000001" height="102.85714285714285" as="geometry" />
        </mxCell>
        <mxCell id="B5NhInNvNg8OOwda5CNB-65" value="We" style="strokeWidth=1;shadow=0;dashed=0;align=center;html=1;shape=mxgraph.mockup.forms.anchor;fontColor=#999999;labelBorderColor=none;fontSize=20;fillColor=#CCE6FF;gradientColor=#ffffff;" vertex="1" parent="B5NhInNvNg8OOwda5CNB-59">
          <mxGeometry x="296.875" y="143.99999999999997" width="118.75000000000001" height="102.85714285714285" as="geometry" />
        </mxCell>
        <mxCell id="B5NhInNvNg8OOwda5CNB-66" value="Th" style="strokeWidth=1;shadow=0;dashed=0;align=center;html=1;shape=mxgraph.mockup.forms.anchor;fontColor=#999999;labelBorderColor=none;fontSize=20;fillColor=#CCE6FF;gradientColor=#ffffff;" vertex="1" parent="B5NhInNvNg8OOwda5CNB-59">
          <mxGeometry x="415.625" y="143.99999999999997" width="118.75000000000001" height="102.85714285714285" as="geometry" />
        </mxCell>
        <mxCell id="B5NhInNvNg8OOwda5CNB-67" value="Fr" style="strokeWidth=1;shadow=0;dashed=0;align=center;html=1;shape=mxgraph.mockup.forms.anchor;fontColor=#999999;labelBorderColor=none;fontSize=20;fillColor=#CCE6FF;gradientColor=#ffffff;" vertex="1" parent="B5NhInNvNg8OOwda5CNB-59">
          <mxGeometry x="534.375" y="143.99999999999997" width="118.75000000000001" height="102.85714285714285" as="geometry" />
        </mxCell>
        <mxCell id="B5NhInNvNg8OOwda5CNB-68" value="Sa" style="strokeWidth=1;shadow=0;dashed=0;align=center;html=1;shape=mxgraph.mockup.forms.anchor;fontColor=#999999;labelBorderColor=none;fontSize=20;fillColor=#CCE6FF;gradientColor=#ffffff;" vertex="1" parent="B5NhInNvNg8OOwda5CNB-59">
          <mxGeometry x="653.125" y="143.99999999999997" width="118.75000000000001" height="102.85714285714285" as="geometry" />
        </mxCell>
        <mxCell id="B5NhInNvNg8OOwda5CNB-69" value="Su" style="strokeWidth=1;shadow=0;dashed=0;align=center;html=1;shape=mxgraph.mockup.forms.anchor;fontColor=#999999;labelBorderColor=none;fontSize=20;fillColor=#CCE6FF;gradientColor=#ffffff;" vertex="1" parent="B5NhInNvNg8OOwda5CNB-59">
          <mxGeometry x="771.875" y="143.99999999999997" width="118.75000000000001" height="102.85714285714285" as="geometry" />
        </mxCell>
        <mxCell id="B5NhInNvNg8OOwda5CNB-70" value="1" style="strokeWidth=1;shadow=0;dashed=0;align=center;html=1;shape=mxgraph.mockup.forms.rrect;rSize=0;strokeColor=#999999;fontColor=#999999;labelBorderColor=none;fontSize=20;fillColor=#CCE6FF;gradientColor=#ffffff;" vertex="1" parent="B5NhInNvNg8OOwda5CNB-59">
          <mxGeometry x="59.37500000000001" y="246.8571428571429" width="118.75000000000001" height="102.85714285714285" as="geometry" />
        </mxCell>
        <mxCell id="B5NhInNvNg8OOwda5CNB-71" value="2" style="strokeWidth=1;shadow=0;dashed=0;align=center;html=1;shape=mxgraph.mockup.forms.rrect;rSize=0;strokeColor=#999999;fontColor=#999999;labelBorderColor=none;fontSize=20;fillColor=#CCE6FF;gradientColor=#ffffff;" vertex="1" parent="B5NhInNvNg8OOwda5CNB-59">
          <mxGeometry x="178.125" y="246.8571428571429" width="118.75000000000001" height="102.85714285714285" as="geometry" />
        </mxCell>
        <mxCell id="B5NhInNvNg8OOwda5CNB-72" value="3" style="strokeWidth=1;shadow=0;dashed=0;align=center;html=1;shape=mxgraph.mockup.forms.rrect;rSize=0;strokeColor=#999999;fontColor=#999999;labelBorderColor=none;fontSize=20;fillColor=#CCE6FF;gradientColor=#ffffff;" vertex="1" parent="B5NhInNvNg8OOwda5CNB-59">
          <mxGeometry x="296.875" y="246.8571428571429" width="118.75000000000001" height="102.85714285714285" as="geometry" />
        </mxCell>
        <mxCell id="B5NhInNvNg8OOwda5CNB-73" value="4" style="strokeWidth=1;shadow=0;dashed=0;align=center;html=1;shape=mxgraph.mockup.forms.rrect;rSize=0;strokeColor=#999999;fontColor=#999999;labelBorderColor=none;fontSize=20;fillColor=#CCE6FF;gradientColor=#ffffff;" vertex="1" parent="B5NhInNvNg8OOwda5CNB-59">
          <mxGeometry x="415.625" y="246.8571428571429" width="118.75000000000001" height="102.85714285714285" as="geometry" />
        </mxCell>
        <mxCell id="B5NhInNvNg8OOwda5CNB-74" value="5" style="strokeWidth=1;shadow=0;dashed=0;align=center;html=1;shape=mxgraph.mockup.forms.rrect;rSize=0;strokeColor=#999999;fontColor=#999999;labelBorderColor=none;fontSize=20;fillColor=#CCE6FF;gradientColor=#ffffff;" vertex="1" parent="B5NhInNvNg8OOwda5CNB-59">
          <mxGeometry x="534.375" y="246.8571428571429" width="118.75000000000001" height="102.85714285714285" as="geometry" />
        </mxCell>
        <mxCell id="B5NhInNvNg8OOwda5CNB-75" value="6" style="strokeWidth=1;shadow=0;dashed=0;align=center;html=1;shape=mxgraph.mockup.forms.rrect;rSize=0;strokeColor=#999999;fontColor=#999999;labelBorderColor=none;fontSize=20;fillColor=#CCE6FF;gradientColor=#ffffff;" vertex="1" parent="B5NhInNvNg8OOwda5CNB-59">
          <mxGeometry x="653.125" y="246.8571428571429" width="118.75000000000001" height="102.85714285714285" as="geometry" />
        </mxCell>
        <mxCell id="B5NhInNvNg8OOwda5CNB-76" value="7" style="strokeWidth=1;shadow=0;dashed=0;align=center;html=1;shape=mxgraph.mockup.forms.rrect;rSize=0;strokeColor=#999999;fontColor=#999999;labelBorderColor=none;fontSize=20;fillColor=#CCE6FF;gradientColor=#ffffff;" vertex="1" parent="B5NhInNvNg8OOwda5CNB-59">
          <mxGeometry x="771.875" y="246.8571428571429" width="118.75000000000001" height="102.85714285714285" as="geometry" />
        </mxCell>
        <mxCell id="B5NhInNvNg8OOwda5CNB-77" value="8" style="strokeWidth=1;shadow=0;dashed=0;align=center;html=1;shape=mxgraph.mockup.forms.rrect;rSize=0;strokeColor=#999999;fontColor=#999999;labelBorderColor=none;fontSize=20;fillColor=#CCE6FF;gradientColor=#ffffff;" vertex="1" parent="B5NhInNvNg8OOwda5CNB-59">
          <mxGeometry x="59.37500000000001" y="349.7142857142858" width="118.75000000000001" height="102.85714285714285" as="geometry" />
        </mxCell>
        <mxCell id="B5NhInNvNg8OOwda5CNB-78" value="9" style="strokeWidth=1;shadow=0;dashed=0;align=center;html=1;shape=mxgraph.mockup.forms.rrect;rSize=0;strokeColor=#999999;fontColor=#999999;labelBorderColor=none;fontSize=20;fillColor=#CCE6FF;gradientColor=#ffffff;" vertex="1" parent="B5NhInNvNg8OOwda5CNB-59">
          <mxGeometry x="178.125" y="349.7142857142858" width="118.75000000000001" height="102.85714285714285" as="geometry" />
        </mxCell>
        <mxCell id="B5NhInNvNg8OOwda5CNB-79" value="10" style="strokeWidth=1;shadow=0;dashed=0;align=center;html=1;shape=mxgraph.mockup.forms.rrect;rSize=0;strokeColor=#999999;fontColor=#999999;labelBorderColor=none;fontSize=20;fillColor=#CCE6FF;gradientColor=#ffffff;" vertex="1" parent="B5NhInNvNg8OOwda5CNB-59">
          <mxGeometry x="296.875" y="349.7142857142858" width="118.75000000000001" height="102.85714285714285" as="geometry" />
        </mxCell>
        <mxCell id="B5NhInNvNg8OOwda5CNB-80" value="11" style="strokeWidth=1;shadow=0;dashed=0;align=center;html=1;shape=mxgraph.mockup.forms.rrect;rSize=0;strokeColor=#999999;fontColor=#999999;labelBorderColor=none;fontSize=20;fillColor=#CCE6FF;gradientColor=#ffffff;" vertex="1" parent="B5NhInNvNg8OOwda5CNB-59">
          <mxGeometry x="415.625" y="349.7142857142858" width="118.75000000000001" height="102.85714285714285" as="geometry" />
        </mxCell>
        <mxCell id="B5NhInNvNg8OOwda5CNB-81" value="12" style="strokeWidth=1;shadow=0;dashed=0;align=center;html=1;shape=mxgraph.mockup.forms.rrect;rSize=0;strokeColor=#999999;fontColor=#999999;labelBorderColor=none;fontSize=20;fillColor=#CCE6FF;gradientColor=#ffffff;" vertex="1" parent="B5NhInNvNg8OOwda5CNB-59">
          <mxGeometry x="534.375" y="349.7142857142858" width="118.75000000000001" height="102.85714285714285" as="geometry" />
        </mxCell>
        <mxCell id="B5NhInNvNg8OOwda5CNB-82" value="13" style="strokeWidth=1;shadow=0;dashed=0;align=center;html=1;shape=mxgraph.mockup.forms.rrect;rSize=0;strokeColor=#999999;fontColor=#999999;labelBorderColor=none;fontSize=20;fillColor=#CCE6FF;gradientColor=#ffffff;" vertex="1" parent="B5NhInNvNg8OOwda5CNB-59">
          <mxGeometry x="653.125" y="349.7142857142858" width="118.75000000000001" height="102.85714285714285" as="geometry" />
        </mxCell>
        <mxCell id="B5NhInNvNg8OOwda5CNB-83" value="14" style="strokeWidth=1;shadow=0;dashed=0;align=center;html=1;shape=mxgraph.mockup.forms.rrect;rSize=0;strokeColor=#999999;fontColor=#999999;labelBorderColor=none;fontSize=20;fillColor=#CCE6FF;gradientColor=#ffffff;" vertex="1" parent="B5NhInNvNg8OOwda5CNB-59">
          <mxGeometry x="771.875" y="349.7142857142858" width="118.75000000000001" height="102.85714285714285" as="geometry" />
        </mxCell>
        <mxCell id="B5NhInNvNg8OOwda5CNB-84" value="15" style="strokeWidth=1;shadow=0;dashed=0;align=center;html=1;shape=mxgraph.mockup.forms.rrect;rSize=0;strokeColor=#999999;fontColor=#999999;labelBorderColor=none;fontSize=20;fillColor=#CCE6FF;gradientColor=#ffffff;" vertex="1" parent="B5NhInNvNg8OOwda5CNB-59">
          <mxGeometry x="59.37500000000001" y="452.57142857142856" width="118.75000000000001" height="102.85714285714285" as="geometry" />
        </mxCell>
        <mxCell id="B5NhInNvNg8OOwda5CNB-85" value="16" style="strokeWidth=1;shadow=0;dashed=0;align=center;html=1;shape=mxgraph.mockup.forms.rrect;rSize=0;strokeColor=#999999;fontColor=#999999;labelBorderColor=none;fontSize=20;fillColor=#CCE6FF;gradientColor=#ffffff;" vertex="1" parent="B5NhInNvNg8OOwda5CNB-59">
          <mxGeometry x="178.125" y="452.57142857142856" width="118.75000000000001" height="102.85714285714285" as="geometry" />
        </mxCell>
        <mxCell id="B5NhInNvNg8OOwda5CNB-86" value="17" style="strokeWidth=1;shadow=0;dashed=0;align=center;html=1;shape=mxgraph.mockup.forms.rrect;rSize=0;strokeColor=#999999;fontColor=#999999;labelBorderColor=none;fontSize=20;fillColor=#CCE6FF;gradientColor=#ffffff;" vertex="1" parent="B5NhInNvNg8OOwda5CNB-59">
          <mxGeometry x="296.875" y="452.57142857142856" width="118.75000000000001" height="102.85714285714285" as="geometry" />
        </mxCell>
        <mxCell id="B5NhInNvNg8OOwda5CNB-87" value="18" style="strokeWidth=1;shadow=0;dashed=0;align=center;html=1;shape=mxgraph.mockup.forms.rrect;rSize=0;strokeColor=#999999;fontColor=#999999;labelBorderColor=none;fontSize=20;fillColor=#CCE6FF;gradientColor=#ffffff;" vertex="1" parent="B5NhInNvNg8OOwda5CNB-59">
          <mxGeometry x="415.625" y="452.57142857142856" width="118.75000000000001" height="102.85714285714285" as="geometry" />
        </mxCell>
        <mxCell id="B5NhInNvNg8OOwda5CNB-88" value="19" style="strokeWidth=1;shadow=0;dashed=0;align=center;html=1;shape=mxgraph.mockup.forms.rrect;rSize=0;strokeColor=#999999;fontColor=#999999;labelBorderColor=none;fontSize=20;fillColor=#CCE6FF;gradientColor=#ffffff;" vertex="1" parent="B5NhInNvNg8OOwda5CNB-59">
          <mxGeometry x="534.375" y="452.57142857142856" width="118.75000000000001" height="102.85714285714285" as="geometry" />
        </mxCell>
        <mxCell id="B5NhInNvNg8OOwda5CNB-89" value="20" style="strokeWidth=1;shadow=0;dashed=0;align=center;html=1;shape=mxgraph.mockup.forms.rrect;rSize=0;strokeColor=#999999;fontColor=#999999;labelBorderColor=none;fontSize=20;fillColor=#CCE6FF;gradientColor=#ffffff;" vertex="1" parent="B5NhInNvNg8OOwda5CNB-59">
          <mxGeometry x="653.125" y="452.57142857142856" width="118.75000000000001" height="102.85714285714285" as="geometry" />
        </mxCell>
        <mxCell id="B5NhInNvNg8OOwda5CNB-90" value="21" style="strokeWidth=1;shadow=0;dashed=0;align=center;html=1;shape=mxgraph.mockup.forms.rrect;rSize=0;strokeColor=#999999;fontColor=#999999;labelBorderColor=none;fontSize=20;fillColor=#CCE6FF;gradientColor=#ffffff;" vertex="1" parent="B5NhInNvNg8OOwda5CNB-59">
          <mxGeometry x="771.875" y="452.57142857142856" width="118.75000000000001" height="102.85714285714285" as="geometry" />
        </mxCell>
        <mxCell id="B5NhInNvNg8OOwda5CNB-91" value="22" style="strokeWidth=1;shadow=0;dashed=0;align=center;html=1;shape=mxgraph.mockup.forms.rrect;rSize=0;strokeColor=#999999;fontColor=#999999;labelBorderColor=none;fontSize=20;fillColor=#CCE6FF;gradientColor=#ffffff;" vertex="1" parent="B5NhInNvNg8OOwda5CNB-59">
          <mxGeometry x="59.37500000000001" y="555.4285714285713" width="118.75000000000001" height="102.85714285714285" as="geometry" />
        </mxCell>
        <mxCell id="B5NhInNvNg8OOwda5CNB-92" value="23" style="strokeWidth=1;shadow=0;dashed=0;align=center;html=1;shape=mxgraph.mockup.forms.rrect;rSize=0;strokeColor=#999999;fontColor=#999999;labelBorderColor=none;fontSize=20;fillColor=#CCE6FF;gradientColor=#ffffff;" vertex="1" parent="B5NhInNvNg8OOwda5CNB-59">
          <mxGeometry x="178.125" y="555.4285714285713" width="118.75000000000001" height="102.85714285714285" as="geometry" />
        </mxCell>
        <mxCell id="B5NhInNvNg8OOwda5CNB-93" value="25" style="strokeWidth=1;shadow=0;dashed=0;align=center;html=1;shape=mxgraph.mockup.forms.rrect;rSize=0;strokeColor=#999999;fontColor=#999999;labelBorderColor=none;fontSize=20;fillColor=#CCE6FF;gradientColor=#ffffff;" vertex="1" parent="B5NhInNvNg8OOwda5CNB-59">
          <mxGeometry x="415.625" y="555.4285714285713" width="118.75000000000001" height="102.85714285714285" as="geometry" />
        </mxCell>
        <mxCell id="B5NhInNvNg8OOwda5CNB-94" value="26" style="strokeWidth=1;shadow=0;dashed=0;align=center;html=1;shape=mxgraph.mockup.forms.rrect;rSize=0;strokeColor=#999999;fontColor=#999999;labelBorderColor=none;fontSize=20;fillColor=#CCE6FF;gradientColor=#ffffff;" vertex="1" parent="B5NhInNvNg8OOwda5CNB-59">
          <mxGeometry x="534.375" y="555.4285714285713" width="118.75000000000001" height="102.85714285714285" as="geometry" />
        </mxCell>
        <mxCell id="B5NhInNvNg8OOwda5CNB-95" value="27" style="strokeWidth=1;shadow=0;dashed=0;align=center;html=1;shape=mxgraph.mockup.forms.rrect;rSize=0;strokeColor=#999999;fontColor=#999999;labelBorderColor=none;fontSize=20;fillColor=#CCE6FF;gradientColor=#ffffff;" vertex="1" parent="B5NhInNvNg8OOwda5CNB-59">
          <mxGeometry x="653.125" y="555.4285714285713" width="118.75000000000001" height="102.85714285714285" as="geometry" />
        </mxCell>
        <mxCell id="B5NhInNvNg8OOwda5CNB-96" value="28" style="strokeWidth=1;shadow=0;dashed=0;align=center;html=1;shape=mxgraph.mockup.forms.rrect;rSize=0;strokeColor=#999999;fontColor=#999999;labelBorderColor=none;fontSize=20;fillColor=#CCE6FF;gradientColor=#ffffff;" vertex="1" parent="B5NhInNvNg8OOwda5CNB-59">
          <mxGeometry x="771.875" y="555.4285714285713" width="118.75000000000001" height="102.85714285714285" as="geometry" />
        </mxCell>
        <mxCell id="B5NhInNvNg8OOwda5CNB-97" value="29" style="strokeWidth=1;shadow=0;dashed=0;align=center;html=1;shape=mxgraph.mockup.forms.rrect;rSize=0;strokeColor=#999999;fontColor=#999999;labelBorderColor=none;fontSize=20;fillColor=#CCE6FF;gradientColor=#ffffff;" vertex="1" parent="B5NhInNvNg8OOwda5CNB-59">
          <mxGeometry x="59.37500000000001" y="658.2857142857142" width="118.75000000000001" height="102.85714285714285" as="geometry" />
        </mxCell>
        <mxCell id="B5NhInNvNg8OOwda5CNB-98" value="30" style="strokeWidth=1;shadow=0;dashed=0;align=center;html=1;shape=mxgraph.mockup.forms.rrect;rSize=0;strokeColor=#999999;fontColor=#999999;labelBorderColor=none;fontSize=20;fillColor=#CCE6FF;gradientColor=#ffffff;" vertex="1" parent="B5NhInNvNg8OOwda5CNB-59">
          <mxGeometry x="178.125" y="658.2857142857142" width="118.75000000000001" height="102.85714285714285" as="geometry" />
        </mxCell>
        <mxCell id="B5NhInNvNg8OOwda5CNB-99" value="31" style="strokeWidth=1;shadow=0;dashed=0;align=center;html=1;shape=mxgraph.mockup.forms.rrect;rSize=0;strokeColor=#999999;fontColor=#999999;labelBorderColor=none;fontSize=20;fillColor=#CCE6FF;gradientColor=#ffffff;" vertex="1" parent="B5NhInNvNg8OOwda5CNB-59">
          <mxGeometry x="296.875" y="658.2857142857142" width="118.75000000000001" height="102.85714285714285" as="geometry" />
        </mxCell>
        <mxCell id="B5NhInNvNg8OOwda5CNB-100" value="1" style="strokeWidth=1;shadow=0;dashed=0;align=center;html=1;shape=mxgraph.mockup.forms.rrect;rSize=0;strokeColor=#999999;fontColor=#999999;fillColor=#ddeeff;labelBorderColor=none;fontSize=20;" vertex="1" parent="B5NhInNvNg8OOwda5CNB-59">
          <mxGeometry x="415.625" y="658.2857142857142" width="118.75000000000001" height="102.85714285714285" as="geometry" />
        </mxCell>
        <mxCell id="B5NhInNvNg8OOwda5CNB-101" value="2" style="strokeWidth=1;shadow=0;dashed=0;align=center;html=1;shape=mxgraph.mockup.forms.rrect;rSize=0;strokeColor=#999999;fontColor=#999999;fillColor=#ddeeff;labelBorderColor=none;fontSize=20;" vertex="1" parent="B5NhInNvNg8OOwda5CNB-59">
          <mxGeometry x="534.375" y="658.2857142857142" width="118.75000000000001" height="102.85714285714285" as="geometry" />
        </mxCell>
        <mxCell id="B5NhInNvNg8OOwda5CNB-102" value="3" style="strokeWidth=1;shadow=0;dashed=0;align=center;html=1;shape=mxgraph.mockup.forms.rrect;rSize=0;strokeColor=#999999;fontColor=#999999;fillColor=#ddeeff;labelBorderColor=none;fontSize=20;" vertex="1" parent="B5NhInNvNg8OOwda5CNB-59">
          <mxGeometry x="653.125" y="658.2857142857142" width="118.75000000000001" height="102.85714285714285" as="geometry" />
        </mxCell>
        <mxCell id="B5NhInNvNg8OOwda5CNB-103" value="4" style="strokeWidth=1;shadow=0;dashed=0;align=center;html=1;shape=mxgraph.mockup.forms.rrect;rSize=0;strokeColor=#999999;fontColor=#999999;fillColor=#ddeeff;labelBorderColor=none;fontSize=20;" vertex="1" parent="B5NhInNvNg8OOwda5CNB-59">
          <mxGeometry x="771.875" y="658.2857142857142" width="118.75000000000001" height="102.85714285714285" as="geometry" />
        </mxCell>
        <mxCell id="B5NhInNvNg8OOwda5CNB-104" value="5" style="strokeWidth=1;shadow=0;dashed=0;align=center;html=1;shape=mxgraph.mockup.forms.rrect;rSize=0;strokeColor=#999999;fontColor=#999999;fillColor=#ddeeff;labelBorderColor=none;fontSize=20;" vertex="1" parent="B5NhInNvNg8OOwda5CNB-59">
          <mxGeometry x="59.37500000000001" y="761.1428571428571" width="118.75000000000001" height="102.85714285714285" as="geometry" />
        </mxCell>
        <mxCell id="B5NhInNvNg8OOwda5CNB-105" value="6" style="strokeWidth=1;shadow=0;dashed=0;align=center;html=1;shape=mxgraph.mockup.forms.rrect;rSize=0;strokeColor=#999999;fontColor=#999999;fillColor=#ddeeff;labelBorderColor=none;fontSize=20;" vertex="1" parent="B5NhInNvNg8OOwda5CNB-59">
          <mxGeometry x="178.125" y="761.1428571428571" width="118.75000000000001" height="102.85714285714285" as="geometry" />
        </mxCell>
        <mxCell id="B5NhInNvNg8OOwda5CNB-106" value="7" style="strokeWidth=1;shadow=0;dashed=0;align=center;html=1;shape=mxgraph.mockup.forms.rrect;rSize=0;strokeColor=#999999;fontColor=#999999;fillColor=#ddeeff;labelBorderColor=none;fontSize=20;" vertex="1" parent="B5NhInNvNg8OOwda5CNB-59">
          <mxGeometry x="296.875" y="761.1428571428571" width="118.75000000000001" height="102.85714285714285" as="geometry" />
        </mxCell>
        <mxCell id="B5NhInNvNg8OOwda5CNB-107" value="8" style="strokeWidth=1;shadow=0;dashed=0;align=center;html=1;shape=mxgraph.mockup.forms.rrect;rSize=0;strokeColor=#999999;fontColor=#999999;fillColor=#ddeeff;labelBorderColor=none;fontSize=20;" vertex="1" parent="B5NhInNvNg8OOwda5CNB-59">
          <mxGeometry x="415.625" y="761.1428571428571" width="118.75000000000001" height="102.85714285714285" as="geometry" />
        </mxCell>
        <mxCell id="B5NhInNvNg8OOwda5CNB-108" value="9" style="strokeWidth=1;shadow=0;dashed=0;align=center;html=1;shape=mxgraph.mockup.forms.rrect;rSize=0;strokeColor=#999999;fontColor=#999999;fillColor=#ddeeff;labelBorderColor=none;fontSize=20;" vertex="1" parent="B5NhInNvNg8OOwda5CNB-59">
          <mxGeometry x="534.375" y="761.1428571428571" width="118.75000000000001" height="102.85714285714285" as="geometry" />
        </mxCell>
        <mxCell id="B5NhInNvNg8OOwda5CNB-109" value="10" style="strokeWidth=1;shadow=0;dashed=0;align=center;html=1;shape=mxgraph.mockup.forms.rrect;rSize=0;strokeColor=#999999;fontColor=#999999;fillColor=#ddeeff;labelBorderColor=none;fontSize=20;" vertex="1" parent="B5NhInNvNg8OOwda5CNB-59">
          <mxGeometry x="653.125" y="761.1428571428571" width="118.75000000000001" height="102.85714285714285" as="geometry" />
        </mxCell>
        <mxCell id="B5NhInNvNg8OOwda5CNB-110" value="11" style="strokeWidth=1;shadow=0;dashed=0;align=center;html=1;shape=mxgraph.mockup.forms.rrect;rSize=0;strokeColor=#999999;fontColor=#999999;fillColor=#ddeeff;labelBorderColor=none;fontSize=20;" vertex="1" parent="B5NhInNvNg8OOwda5CNB-59">
          <mxGeometry x="771.875" y="761.1428571428571" width="118.75000000000001" height="102.85714285714285" as="geometry" />
        </mxCell>
        <mxCell id="B5NhInNvNg8OOwda5CNB-111" value="24" style="strokeWidth=1;shadow=0;dashed=0;align=center;html=1;shape=mxgraph.mockup.forms.rrect;rSize=0;strokeColor=#ff0000;fontColor=#ffffff;strokeWidth=2;fillColor=#008cff;labelBorderColor=none;fontSize=20;" vertex="1" parent="B5NhInNvNg8OOwda5CNB-59">
          <mxGeometry x="296.875" y="555.4285714285713" width="118.75000000000001" height="102.85714285714285" as="geometry" />
        </mxCell>
        <mxCell id="B5NhInNvNg8OOwda5CNB-112" value="&lt;font color=&quot;#000000&quot; size=&quot;1&quot;&gt;&lt;b style=&quot;font-size: 30px&quot;&gt;Activite&amp;nbsp;&lt;/b&gt;&lt;/font&gt;" style="text;html=1;strokeColor=none;fillColor=none;align=center;verticalAlign=middle;whiteSpace=wrap;rounded=0;labelBorderColor=none;fontSize=20;fontColor=#B3B3B3;" vertex="1" parent="B5NhInNvNg8OOwda5CNB-59">
          <mxGeometry x="329.25" y="624.29" width="60" height="30" as="geometry" />
        </mxCell>
        <mxCell id="B5NhInNvNg8OOwda5CNB-116" value="" style="perimeter=none;dashed=0;shape=rect;fillColor=#dae8fc;strokeColor=#6c8ebf;shadow=1;" vertex="1" parent="1">
          <mxGeometry x="1290" y="1779" width="200" height="2141" as="geometry" />
        </mxCell>
        <mxCell id="B5NhInNvNg8OOwda5CNB-117" value="Profile" style="perimeter=none;dashed=0;shape=mxgraph.gmdl.preview;verticalAlign=middle;align=left;labelPosition=right;fontSize=20;spacing=16;resizeWidth=1;strokeColor=none;fillColor=#747474;strokeWidth=8;" vertex="1" parent="B5NhInNvNg8OOwda5CNB-116">
          <mxGeometry width="30" height="20" relative="1" as="geometry">
            <mxPoint x="17" y="16" as="offset" />
          </mxGeometry>
        </mxCell>
        <mxCell id="B5NhInNvNg8OOwda5CNB-118" value="Clubs" style="perimeter=none;dashed=0;shape=mxgraph.gmdl.share3;verticalAlign=middle;align=left;labelPosition=right;fontSize=20;spacing=16;resizeWidth=1;strokeColor=none;fillColor=#747474;" vertex="1" parent="B5NhInNvNg8OOwda5CNB-116">
          <mxGeometry width="30" height="24" relative="1" as="geometry">
            <mxPoint x="14" y="47" as="offset" />
          </mxGeometry>
        </mxCell>
        <mxCell id="B5NhInNvNg8OOwda5CNB-119" value="Calender" style="perimeter=none;dashed=0;shape=mxgraph.gmdl.link;verticalAlign=middle;align=left;labelPosition=right;fontSize=20;spacing=16;resizeWidth=1;strokeColor=none;fillColor=#747474;" vertex="1" parent="B5NhInNvNg8OOwda5CNB-116">
          <mxGeometry width="30" height="20" relative="1" as="geometry">
            <mxPoint x="16" y="91" as="offset" />
          </mxGeometry>
        </mxCell>
        <mxCell id="B5NhInNvNg8OOwda5CNB-120" value="" style="shape=line;resizeWidth=1;perimeter=none;strokeColor=#003366;" vertex="1" parent="B5NhInNvNg8OOwda5CNB-116">
          <mxGeometry width="200" height="20" relative="1" as="geometry">
            <mxPoint y="148" as="offset" />
          </mxGeometry>
        </mxCell>
        <mxCell id="B5NhInNvNg8OOwda5CNB-121" value="" style="shape=line;resizeWidth=1;perimeter=none;strokeColor=#000066;" vertex="1" parent="B5NhInNvNg8OOwda5CNB-116">
          <mxGeometry width="200" height="600" relative="1" as="geometry">
            <mxPoint y="220" as="offset" />
          </mxGeometry>
        </mxCell>
        <mxCell id="B5NhInNvNg8OOwda5CNB-122" value="Remove Profile" style="perimeter=none;dashed=0;shape=mxgraph.gmdl.remove;verticalAlign=middle;align=left;labelPosition=right;fontSize=20;spacing=16;resizeWidth=1;strokeColor=none;fillColor=#747474;" vertex="1" parent="B5NhInNvNg8OOwda5CNB-116">
          <mxGeometry width="14.11764705882353" height="16" relative="1" as="geometry">
            <mxPoint x="16" y="544" as="offset" />
          </mxGeometry>
        </mxCell>
        <mxCell id="B5NhInNvNg8OOwda5CNB-165" value="Profile" style="perimeter=none;dashed=0;shape=mxgraph.gmdl.preview;verticalAlign=middle;align=left;labelPosition=right;fontSize=20;spacing=16;resizeWidth=1;strokeColor=none;fillColor=#747474;strokeWidth=8;" vertex="1" parent="B5NhInNvNg8OOwda5CNB-116">
          <mxGeometry x="20" y="665.3127147766323" width="30" height="24.52462772050401" as="geometry" />
        </mxCell>
        <mxCell id="B5NhInNvNg8OOwda5CNB-166" value="Clubs" style="perimeter=none;dashed=0;shape=mxgraph.gmdl.share3;verticalAlign=middle;align=left;labelPosition=right;fontSize=20;spacing=16;resizeWidth=1;strokeColor=none;fillColor=#747474;" vertex="1" parent="B5NhInNvNg8OOwda5CNB-116">
          <mxGeometry x="20" y="721.8865979381444" width="30" height="29.429553264604813" as="geometry" />
        </mxCell>
        <mxCell id="B5NhInNvNg8OOwda5CNB-167" value="Calender" style="perimeter=none;dashed=0;shape=mxgraph.gmdl.link;verticalAlign=middle;align=left;labelPosition=right;fontSize=20;spacing=16;resizeWidth=1;strokeColor=none;fillColor=#747474;" vertex="1" parent="B5NhInNvNg8OOwda5CNB-116">
          <mxGeometry x="20" y="791.4604810996565" width="30" height="24.52462772050401" as="geometry" />
        </mxCell>
        <mxCell id="B5NhInNvNg8OOwda5CNB-180" value="" style="shape=line;resizeWidth=1;perimeter=none;strokeColor=#000066;" vertex="1" parent="B5NhInNvNg8OOwda5CNB-116">
          <mxGeometry y="951.0022451317298" width="200" height="110.36082474226805" as="geometry" />
        </mxCell>
        <mxCell id="B5NhInNvNg8OOwda5CNB-181" value="Remove Profile" style="perimeter=none;dashed=0;shape=mxgraph.gmdl.remove;verticalAlign=middle;align=left;labelPosition=right;fontSize=20;spacing=16;resizeWidth=1;strokeColor=none;fillColor=#747474;" vertex="1" parent="B5NhInNvNg8OOwda5CNB-116">
          <mxGeometry x="20" y="1039.4" width="14.12" height="21.96" as="geometry" />
        </mxCell>
        <mxCell id="B5NhInNvNg8OOwda5CNB-396" value="Profile" style="perimeter=none;dashed=0;shape=mxgraph.gmdl.preview;verticalAlign=middle;align=left;labelPosition=right;fontSize=20;spacing=16;resizeWidth=1;strokeColor=none;fillColor=#747474;strokeWidth=8;" vertex="1" parent="B5NhInNvNg8OOwda5CNB-116">
          <mxGeometry x="20" y="1141.0027147766323" width="30" height="24.52462772050401" as="geometry" />
        </mxCell>
        <mxCell id="B5NhInNvNg8OOwda5CNB-397" value="Clubs" style="perimeter=none;dashed=0;shape=mxgraph.gmdl.share3;verticalAlign=middle;align=left;labelPosition=right;fontSize=20;spacing=16;resizeWidth=1;strokeColor=none;fillColor=#747474;" vertex="1" parent="B5NhInNvNg8OOwda5CNB-116">
          <mxGeometry x="20" y="1210.9965979381445" width="30" height="29.429553264604813" as="geometry" />
        </mxCell>
        <mxCell id="B5NhInNvNg8OOwda5CNB-398" value="Calender" style="perimeter=none;dashed=0;shape=mxgraph.gmdl.link;verticalAlign=middle;align=left;labelPosition=right;fontSize=20;spacing=16;resizeWidth=1;strokeColor=none;fillColor=#747474;" vertex="1" parent="B5NhInNvNg8OOwda5CNB-116">
          <mxGeometry x="20" y="1281.0004810996566" width="30" height="24.52462772050401" as="geometry" />
        </mxCell>
        <mxCell id="B5NhInNvNg8OOwda5CNB-399" value="Remove Profile" style="perimeter=none;dashed=0;shape=mxgraph.gmdl.remove;verticalAlign=middle;align=left;labelPosition=right;fontSize=20;spacing=16;resizeWidth=1;strokeColor=none;fillColor=#747474;" vertex="1" parent="B5NhInNvNg8OOwda5CNB-116">
          <mxGeometry x="20" y="1699.4" width="14.12" height="21.96" as="geometry" />
        </mxCell>
        <mxCell id="B5NhInNvNg8OOwda5CNB-402" value="" style="shape=line;resizeWidth=1;perimeter=none;strokeColor=#000066;" vertex="1" parent="B5NhInNvNg8OOwda5CNB-116">
          <mxGeometry x="10" y="1611.00224513173" width="200" height="110.36082474226805" as="geometry" />
        </mxCell>
        <mxCell id="B5NhInNvNg8OOwda5CNB-123" value="" style="line;strokeWidth=2;html=1;labelBorderColor=none;fontSize=20;fontColor=#B3B3B3;fillColor=#99CCFF;gradientColor=#ffffff;" vertex="1" parent="1">
          <mxGeometry x="1290" y="2390" width="1190" height="10" as="geometry" />
        </mxCell>
        <mxCell id="B5NhInNvNg8OOwda5CNB-125" value="" style="shape=image;verticalLabelPosition=bottom;labelBackgroundColor=#ffffff;verticalAlign=top;aspect=fixed;imageAspect=0;image=data:image/png,iVBORw0KGgoAAAANSUhEUgAAAOEAAADgCAMAAADCMfHtAAABLFBMVEX////7/////v/5///3///0////+//bPHb/+v/9/P/XPnbw///7/f/aPHbfOnb5/f/nnrnYMnDTQHb29vzaoLbm093/9//fLnHdNHbbO3nYKG327PPkN3bhhqbenbTgZZLhsL/n///wz9/zsMfTMm/pz9zeU4fNQ3bbSH7u4urSIGbikbLgKm/LUn7bfZ/pus/MfJrZtMTYdpzTY47z4evu6e/mxtT22ubwvNHspL/bcJbLXIbcXYnob5zdydXijrDsxNv70+LXbJjtIHDDT3rc1t3KLW/95fjVbJrvocDnfKPRUoXIh6T4v9TbG2XGe5XHb43nYJToSYb82u3uhqrCJmPSk63Zh63YR4W/QXP/7Pvjr8i9hp3UorXHWIXXb5DLs7/S09W0aofZ4+cNCKYXAAAdtElEQVR4nO1cC3vaSpJVv4ReSEgCCSTwAwsERoAB8TQOxEmc65B4nEniJGadzOz8//+w1XKc6zh2Hjt3N/GuzvX9YiRo+nRVV9XpblkQUqRIkSJFihQpUqRIkSJFihQpUqRIkSJFihQpUqRIkSJFihQpUqRIkSJFihQpUqRIkSJFihQpUtxbSNuOqhEBG1RkhoM0JhlEZNqv7tZfCKwahowEwenMWzLBEjEMijD71d36CyEv6i0RY2HpFYMak4jT2ZxqYNT/A8ACmAwJD3czbg9e9Iul4gaVUC4qBk0qYYIT/Ope/jsQVUmTZTwJMplwSFApo2dmhjoOyopXQEhWHYI0eq8Z+q8HY6oJXbOcdbcE7OkZZWWThWtlgCFhL/Zzjmr86k7+Wzj0iqUqoaNAz5ZWrb6r69niH62/ZzJ6EGNhJyhHeXDaX93L/xYgNRCEheeRlVHGZGzqmeCRmW0P6vv1UhBZ5Yz1VB3tlq0grxIDY3rvWIoIIx5C1pGiZOaVKHp80HtS607XKukOhw9aH7OBkitn9KxZFWEeYvHezUXM5NggRIzNsqJHb/Z743VuWMu1q3b1qCdvV9bV6f6JAvfaTFKRbN8/GyI6sfbXECk7QWTu1Rw2G436tt0m7Fmvwh7uj2Zs2R24GTfPRLIzWI1/dYd/GvQ8LOrRIH56aK66O5s1f0DUP4a2RavhXn37OHy2R2fb53kremvHm0HZnIu/usc/C8xmrqWbyspbqLl+vFL3WtPnBsmT2ljdsOf/HDTZcX9/5M8e1RtmWHY7v7rDPw1RXQblrJV1e5Q9bW+GL2h3OaxNK51+pbVTfajmm/T5hoOInA8gRWaC2q/u8E+DSKwCyU8PqlQj+T11PdyZP9qNFFcxI+8k2JzIzU3VkGX1hasrZavDfiCW8mCE0O8QkjSVYoaIv1lS6qYVI/X87HzhRtbhuutlMoryYD2zvFLOR4ZMq2ZpZWX2VZkxalCJfqsYl7GAZCwD01+dWpBfWezEajw3R/bgZN5EUq+4287HErGjTCZbsqkQb6xOGl2NPdS9vj3xBlRuvsjlZKp9u+9XNfovt2PLCwLr2cDrqtj+eLJZ7T8K8z5TKfO5DS1b1ij1t6yTSrUR/A349h697YSB5+WZfJcoRvh8PH44mazX68nDsYSoSG9/IwwClFJ/mS9jjBD5Sv1IA9cql0reGZOAySwwT/pDxEBjaFVgmC02iYY1JMSnJ6b10YbiDvWDYklXolMk39mz7vt3nmma/H9T2Z/aqnxXn0QH1Mxdd38WGpYlWaQ3mkPVUqmklB/7Aq/elu5uPkl2CNElZ+jFhA8JImLLM6sq9Iknz6xSDptQ6d31VcePitkM/JfNKplyOZjbdygSECyMfmOkfhKYqNAcu5mtyTJQisGI/8qcQZBHSaQEc08ShrXEh5hIyUY0MxBFjjrx9CisCfROhiRfLIEg4RZ09axlufM7GMrOq0llRO/w4Z+GjKVXO4vqzcmjsXhVPE14GJ2TNRWTIQCPnpqc4egy7ktg1FZUAe2kafahuR/jbww82gh0PfO31sbGxl7bLRYtb82bFAl4vMDnSTI0IiJo400UtRClGBMML+Fb+SoC1L3oshOUYSISMfE7jEGd81mLPs80eB9N1h00iNsIM9oP3Ago/DkVMaUq/CyCmkxEJExN98xnRCJUlg3S4gyL60RMyITRVzM36CJCHXV50qVMIHeSRDlTt+a8L4j6rSJM2kM+lFSUNMMwgIic3IKx7ESKmUOOJAMbWZQkGfM3SNJlDzFccLAoEcIpYk3jHzckkXw2OoYXcEkURQ1L0OzL4jt3jZD2OczT88l6p7u09qkoi8S3lIyptJqqJjFDQxXOEBShKAMt42Hf1HVl5RMqMbs+qL7odsd3eRdnWJpTbg9E5b4JChoSI9awqhLJlh1EBUrgJVVbbtbdYAxCtyNSmJOUGrZtU4rExGiIqYSJxuVLwk2LbEdF4lUs4UbWbFsjFFowwFqbxVLUU8EXrlK1mjsyI9MDw2oiwa3IUnTdtRZjasgG6ic2zFEZdNXyICpmLCUb5cBrZJqLLNeMgvW3GA5g4KGPItsJdGvXR9AvGk+fvazX5/2pL3CG3dxcz+ibuY1cbkyJWFu3Oodwv97pOtw9qNQ9PoZaYzhZdOGlv5y2Zpvzen1wFn/yHuR0K/wDg85x12fSNP/3UqnYP97I5eNPXTEGbglE79HQUTE5L4K2B1IZs1QZwyAcJgxbVBC7gyJ8Mgt1XSmEsSY4dhVdKRXvqsAvbXgZhHnNq1vREOYKnSgelLWZsutZXaZpkmWWdUvXzcj1LhCKixCZ9ExWL5vBpg0+hcWSab6ZrBuuO4M4UeHJB+Y3fF5ZMyJSCY3ngZnNQL9Mc3eNfTcoK1ke4NzdyZUNpxAS9PI+pDmDTL0/QogKYMaMaXbGTmiG9ffezJ8MTB0uZkulo9Vst8vtL88tKFCPvmnD+WWo1dgxdGvXgC5OLCujlGEQlbAc7FBZaigKENR1K3TzSIxL4CQZ+KawrLgVgU/XUinMhhF89ynSEMQFoJeFz2TL4RhRSX3VcME+WfiQophbzFd4+4qiZzPBFUOHVdte2cxDCSkLA88+73gw2RT4jBlYZxM+SfuQsxX4XGhZQc6Ig8Ru5LWZCfZr356HCUNCn670bHkfOnzeiKyyabXfh0HZKodD4lhmBN8G41mMLgiKPW6kQIEvtLJKrIoIGEJ3rIzpzZBMcieuGwRwX88qbgsRSeuD5iubSkOxAnO3i/2iCfwU3TW9P20oC6Q2gIwAqcQvrgQVdUOznGRqffR6d95pWPk16AkYOD1qFxg9bxzxSU8n0WwEUeybDGVHlER/uSrqlteFKbnlwdifDQ3qn8FYextYHRdm5ay5V6jVqrYss/VoVIvjYXMDOhpMqESAYTZTDsLFaIhlOt4a1ZrN4bDaLivFffDSh0e6ZX5sQpllx6MtX1bHVZjXZgvaK1zlREwgerXewLREciE6EyDe+p1ABxsGo5eetWTTwHu2BZ4MRjwzCCG0s8uXMEjVg3xhaHfoBs5QsRr11WpVgg/D5NdsVTqMrOhvPMOIZOZmsnNVYkLFVNyNP2tzqHEodKmuK+BXlHspiLUNW0hCI7/HswypRkqmZBNyDNVYaH/xzZtFxd26fsEQ7PhV35PgV7YT9RIHRGvL1c1KxW03ITiP96P1QM8G+9XEJdl0l1c/aFx6G5+L0Idbl8CBIcw2HgF0PoODvg3d9htlK+pCopA1NvGyWWsoGjcYGhpkJnDuPnTgE8NS0FU/3YWaExGuUl8FMB1tqvVLJbNyfaZg9BVDfzooeaaSjFDOKyTv0khzZgY9JWgCW0LHbrsXBWe26vC76osT3gD2rZIZdiYOu3XZLbGhkkmQ1a01g0QhNyHze02QizIl/m424zWxiL5giIg9ri3XGzmYuVcMLZMXYckwUob86nKyzj3L6hnFpg4kP3N9fUvsFoYDrwjZQhEuGTaTb8HitrOl9KKBCuEPKq1BMAlHTHT4YGE2iXgDmt0o8qB/hqQ7bAie3g5DiClKxmpKBtXk2M1kPBvmo0Y0zcvyjQLpOkNIF4t6yfW8KCpDKLmyYVTgHDDobfnFpl4sulHAU4ZiE6cODLvfYbgqlmDSWwnDljdMTKhC0eKvdsw9GWohrLGXQbctQXGRVBlsmTAElytBNApaTL5N5ydeOqe2bYyDTNZsMchtxthVOEOeIglyOUOiXfNSjB6+CyDI6TwjQjy8Yghv43dVib71MhakrFIZsgcwxPa7kh6MvsNwHUKlqodJr44/2dCByTcPu0EjkSKy/O79jnk6xNKVDXsJw7BoFSOvR6TbMga3YWbADAimfBGvOITC2Ihh7nlcoyFMpEsbytfnoTR4FOrB+/nmrANeeoMhRM5lBDNbqQ9me51LhgYw9L5nQ3a+POu0zaT46EajSxs6uTeRu557a6zJNlo/+o9F4HprltSCdIenFkH0rXCwGNm82LuDYXaOHMYg6EJcPGZYNGJQlVEyiBj5nOHwC4akqlhFK++AEFBnUBR+yRCJ9MC09HYTCnYyBq6KLRorYLj1xdb01wxlpCLh7CTxnULif4i8GnhQSs3Xlrn2bX9qeUtT0UvRZpzcfb3L/8XjaK1SRDVM7oql+hzuAuZQsjQg1Gg2FGzRiEA8FNUqVG/WkFdiSeUtMihgRybIaoOB5Bf65T9j6SVDQWb1UgYKYUkS1ThhqLFZMROdJepJliUNc8myWdSDNZFBN3zqCkgKxha7BYhq9JW7B4ztfNG1wBui1tT1lPr7KFxzUQEJsrSWmSRuBj7IBW100mOaJIu36/xrNQ24BsT0LsgxuqlDMQYKHBu0BTYe2NCLBdRGLQRqiQgjiL9tBG0Cw8zXDEkdAmwPEqKBxmbipZTrsoYtaEgTDZWBa8jksJgxN0BmGFeTR2bacmaZPUbi5Z4bCmo8C/RymasIr9LtzBv1Vvcl1IVQL0Ig7Meqb5mVpU/UnGkd1Iy7VhOvM7RLSik7p4YGda+SDdYSYaRbVHRzg7trzsyW5z7libzKq7EYFBAyXmZvzkMIu5uuYj4H1SWgJUQk8FK2NPUwOnMQIcwZVyVZk1mnqJQ/+gJ2rrpGzzsuFGjz41njUWRGhWNI9iASwZ2C+saqNV3nO/X1XhBcZrYo7E7dIPIas+nfrXIQVPzvM8QoH5Usr0Y1GltlqNZX/WebxaKSCbi3Q82UVYqrl/PVRG3C9z7aPz7ubDaKZSW6EWkctohAz1SmrWdz8DFg6GxLLyHqluuH/YN5Qz/pUUlSWzB2Sv1lffXwU1eMQ7ekg+LwouB0K++W+KIUhOuytz9SWScCGRI9p0atH5iJrNJdPVxvQRINoF5RiubiDobChmkpA8pLJSg+uXwYICyRtccraa52rFLxjPsReupBlzJ6ycsTCeJLBip+6APcLl6AO9ogPrxCMg8kdQy5u8SVkQI5vFSyMciGIEkeiaSKtpCkoZqXAR8sFY+6V17aj6A1q9jO+5TJdeCvg77y2iOIIlytZJQoiXRx58iFUJjRobBkQtyCHsDXQSF7lw0fld024tUvhPmWl3XfjCHsgjlNHRRhtuwGZwIvxkRy5gHBjBW1BLXZMKEO0suuC1LBzYEAti03gqTCWzQMlDsqwwDpmQjElpu1GWZkErpF7l6gT04ueLgS9yJoTSknUZNDW64ggL10O8DP2V56WUs33Y+1RI8nK1HcW7AAfhKfWVydHhWwg1R1MxyE1uPT5h0M6ejj6R8Xnxiq49nH2WZMeYAbVqDQUazHnTGhSRVIndxKMZUQxlRi5xW4F+4/77LaadjDqkNbp4enwyQRQ9QWuvuWFbYHF7Gf//DBkEQRqX4OrllWY39vI2Z8DctptcFK4f7V5pGmEkNVhUHoG5S+qA3KuvLxCeELbTB9+WqicplCEMSmuBVmzOexoRrVsfecQA0s3BVpNIYIX0DjXWOixpWBgSXDYDIz/Hjoy6DQkzNWBIS/3YybPtyiMoLfmzYUwxpFUHaqzjamspAkYihmId5SP/YNVaAGMs63JZWB5zPsD4dDSHeUihgchiIHFJaPr7qmIYnAu6ZejsUHHwvjwNoAaQ0/0C2arJdGXb4ihGXNMNTjILRbs3H8/CyaMoeK9+RoDTbsjSAbFgYP4kG36w1iksRAWaPJqn5QS9YMkaypcd0cMbV6+mHCY71Mbs/2vx8wWjyy9GChHg/cYWER1ePLDCuzccKwcMkQ4ovi9bbqi8L5kwMlm320waPjL+77jwGtPasM0Xb9j+qH12d+y1st+WVNTPaeMkHzcj3JWBd3L4xqv9tuPfAg5oL70lur7t8P4uARdNfz6tuL3TV51r2IvA2+xG4wmzMMhyoPPH7HPOqN+7QSNoePwoivaJ1S46/aM/qfBVoeWcreP3e8WW/EaC9ojcITa23zbYYi5OaGLxgszh157cJ6udX3B2o5rNY6oRnFSL4f8xCJ1bGBZbVz0lLRZG4/KSxb1kljo2ozYJj54NvLjhcpGzY7COvBmb8ZvRUYlZtNqjn35FAtpZDu2RLU52LY9tn5YHYRnyknXuMACji9WA92vTA/vpj17MGT6uhZoCg15Mh8PefOQ3wGFAwCotcXGyXt1tWAqw9oho1kkUHx7GhJs4ivkTvi1ZkIBCoIEqWMIeddb3Xb+YG9RwRBUfXrZlkPKjZzOqfVfz7NdUeLTcUNzaOgPTt7MMK5nv2sMH5uQ+2ouwOb8h2uu9umth/HUFZev0S+5dOiBvVrtTY+Vyf/IScbTUhG7OF/isYnPqLE7BjSPUX4+kBpBvmxaIfpFFSvZXqbceHD+AFtXXS6cWFYa04K4wfT52yz2RkKOz0ymQdmGVJL9zvtGcuwvQoOrjP0m9/ay2Zop/HhsL/6T9R6rrFPfWLHe+TKhtgg03D17t0O+uJIAJWc+OvWbgGR9t0wilr5KDxeH8Zq+WDwz1Zj2Eetin1sDaV8frxfObXz5XBdifRsdPqd9uj6mWrE769va7TyxjdmrXOwKoiE2L7UH1HhkgPCnfVnRwelvZdntPumia4PlMgq+R9iiMW+F4U9QtauuTfZnrZGLdqvt/L24KCpHhRIvG/7heo8CrpI6nlBdPY95z/oCdr2swuBsPNCbBuyY7yrOgbzxwVHJoYvDau+bSBRNIYOCEebvd5PWImqXWpS39BkwzmntBTH1XOs8QJeFJlbYIYxmKjn44e2DWW6bS9j225PfNux6Xhsg1xgUrU6NAzDNvyab2vXeomZluvJCKsHWd01+0vjwcb5YLTbe/FxlqfrKdJ6T6t1kCnBARNVqXfxrR1uDvnxmBFp1SV26/GsXh+T1t+P6vvN9eP+YBVT0n/eeD86eCBQNPlAJdkw4t0m5tbCdLw6lxWwE93YE8691mDv/RpzhoiOA9Aa9urJi9XeLKwhtujvv+/lG9HmfnN60J/Nw5iicf20Xxph1qnUH4+2r098DNOab5ueB3o5mzXfzKfVf/XooHaxHu0Z8ZZUza1OQPqDch3KDILi9059ja1qc3lYMWhnZiB1OrdJrc0I+pfD1E6HaPP2EKmVLYE51hOJAZ3ppiom621oZ09oFilMtsM1G538A5GHxX8l01mDwUD26zYb2rxFQl6+B7kkxyuKt1+H1W1SOWNPVyOV1LJMmzWGiDjGNTuA5JD4GbSJpyvu6bAVBW792cX0wfLheNLdOGiYUTY/3Ax03Rzxwwbk1oXuP8dLGFkf26WaqE7e20yiT8Oh3Kowg4hQKB2fCnHwRDbwTgWh6R64BBHZwVqztaQfizyafDRA+9abKNchDmX1CZ+/iLSUw8PVnu8whpxl2xAbPQS18/HCIE59TTU8faYuNkAV2+EwNp8YkHeuexpGyZ67MHWzZjtWY6hUs24QPDKDyNz1AsiLlk/9lQt6mOs46VuBH0MoWJyJBkxFtFhQQyLnYYxedhl1ugf1QX2xXa3LINte9JFt8VV2IqPNNUsGHBurGnp9AeIybtjCnKtYVB9dbiUfblRrQ0rVyWz+x2rA4jd8jYQe/AOjc8tnDulMWb2/WCwqgT9+Z98lCrqBtw/uPPKUcrnTfGgqoIhH8Tyr6EGMhPOBF47Yd8/qY4oGXYF16wwd9EAA01cwPEGs+v1Z07b7a+G4AsYy4gFt5XlbEiXPXm87SdQ8X8XCfEREdecjcgJuPLuYlP7o/N1QJbKjvm4XbHXxFi3b/P1OO8bCcl+kImoUzhsPOGrqtIPuihRGnLepjEdRRg9G21TJKPpKVXdMPeONYbLbOz5U299JsUhiPril6hdtobNBDCy0TnEcyKzaZlAKlJ6osx5kN9tejUOV2wGEdPXoXE4YPvwg2tmmrKHNM1JNtgBePE5CIhqXbJEwdWj9yxbpqoeOkzWi8cpGAhAisu8Zvu5jGTsCfXaB7jpUKKowGLJY2826p4aEZ2WrPDM0p20qQZMgTdymhnj3Ua9LUIdV39sQIOtVNgl9VVi+H6NRlqnjrL/ttEzfbhT4oRn7cN5LJDSGuuXwQ6yqgrF93KF2sUCM3slo+/hozdh52EOcO9qZbSMs4rj0ahtv7TbZ5j+SEamrhM62mIyqoUA3L0SCVNXZH1Hpju1p6vCFE+S/N8MxTNq1awVbqqw+DLzHPrRCsHTHIvf1NmQIiGBqeXGhqq2w0lnVGH0V9rva29Xr09YHCYpfIssyPdj/c7RYLqwfbJ7KnTUh3fBtv1Mfb++t9w8qqxxDSaVQySdnaljr/dt+fxXb7SZ/ObQOe+LjAoSpfIWwcXvWejZQ41JTvXU75U+Q826yWXp+FChNGA5SHfnSjz5+KEvEjynF1B9KDmt2a7IgE+p3oaECpOGY2mOIqpqj1keXB4GSYaF2YVTzaWwTmb4aNdmQ0diAaz6lyTejMWQp3jqrLodwV4svT99Bu3LTkDEd+rKM7MKDGjjxEH8vnSFCk61dVh3VqAw6gSH19q3QW4CJbFCRYAY1MnyQUbAn5seVRJacQ9JkyHbgKDt7Dv1cRcvIEIGvzI9aY6YK/EQmRiq1CTR1WYiriVYzDH4X8reQxBJ4ryEzmWiGQeEThgzZSaRcgXzvcO/lKVQCHdQI5BpNBgf/0ScQ0KeTefjTIT181SI/s5X8C1eqx+/HwjV5wo/j8df83TwX8ZfwC+En9S77JMifRJUsXLbzuasCTr6T71hD1XL5LT/Y1+RRoeT9KPn5C9Hb+Nc9kc//Xdiq83/pueJbQMV7/iDjvw9kSKChNA5DJJ9lL8ba5cUEycThZ3+Tk6f37JE6hHme0DS+d4rZ55PgEEvIJ3qEXJ7x5zFGlkQohO6Z358/9T+DfA6OkPPiq6vxeVKu2/Dr0Hd4YrlXNhQeHK6sUqNRUsL9B38+QsGErY8hv64r4SDPVQCW/EKv0m7MFw8lRMRf/vjKDwNysD8J9IzZGdtf9Bo7/qRRVty/+bb8OVhRfyfcjQZV+q0ly98NUBDRiqtYsXqdIJ90TG25mQBU3ueJh+G9zl4UHS3V+/NkJDicRHNupmFr1wMIX6Z11OmRFfhQ3VxNPK4ICHoeFI/uPFz/GwJqSzI19ZX9pUyAKcn47rRloGvP/hEkiOy8XSxW7hFDjh3O8KtnhgyQ6CXLvhE4RRXnXD286wDMbwpgODC+YkhvZ8j4mSOz+r/Wub8EnOHXNqS4eitDLVaU6HsbDr8ZdszywKY3SxUDV71Mg96ImlDX2PVMcnLyHuFnGPInzhp6cO+89BsMpZuXNb+kv793kebHGSJNqgZm675li+Auhnr95pOiVKKtojW8PzVNgp9hiLdflY5G4j3T1T/DEPnzcMLke8dQ/w5DfLkECEXbi/ZpTOTf4o84/AS+yxBhGq8ODw42Xza8LrpH4vAK32VIRCHudzqdPascdL670v0b4vsMJSJTCkpx7Waj9T1k2HVBW3w1tSjPh3XG8yF/vF0GocjwnqmE8b058voZoyhT/+JIRYJrDD8ByfTc0s097VvHmH5LjKIsaPybSy+gnm4w5PvOk6Bsbgl37Rv+rqh6ijX8atP5a4YYi7LacTOZL88T/f4g40gJxugmQ4Imnv6VtsC+UnIHtkHwnQfsfz8g38x63a/+8sslw5s1DZO6kQKVN/nlf9PoJyCq80zx7c0/N3MHQyobfaXMHxr/X+vfvw9p+7VZsmK+pna92+hWLxWpFjcg8cPb74+CwmSsZN0K1TR8PetrZMcrWcYttpoESrEx1O5PPCUOy3mK24Wkft0sBO0Uv16J4lAXQcnd9O9PTsQic5690c2R8MXRZyZMiyXTv4WhbGyWQndwf1YyMJIQbb2J3JatIkFKHiaHOak6/WLRvcACuXm2QGL+vhe6H6r8Lwnge6KkRDzON7yj1thWk2fY5HjrdRiYgbu7WqxvnoDGSJZa9aJ3dJjrSvLNparfFIjyU37LrbP16PJJ99pWfrper3vrnY1884aViCiqqtYsdPP5C0m9J1vCSEu2mJBKCKcDr2yCEMxLQtFXj7RwpSHKyaggJn9Vsv+eSI4MQUYUL3fS4BW9PF/0+SzR9TcjLqfgHhG+pp8iRYoUKVKkSJEiRYoUKVKkSJEiRYoUKVKkSJEiRYoUKVKkSJEiRYoUKVKkSJEiRYoUKVKkSJEiRYr/d/gv3Y5W/us23XwAAAAASUVORK5CYII=;" vertex="1" parent="1">
          <mxGeometry x="1582.69" y="1875.39" width="251.73" height="250.61" as="geometry" />
        </mxCell>
        <mxCell id="B5NhInNvNg8OOwda5CNB-128" value="" style="whiteSpace=wrap;html=1;aspect=fixed;labelBorderColor=none;fontSize=30;fontColor=#000000;strokeColor=#FFFFFF;strokeWidth=8;fillColor=#CCE6FF;gradientColor=#ffffff;" vertex="1" parent="1">
          <mxGeometry x="1950" y="1859" width="340" height="340" as="geometry" />
        </mxCell>
        <mxCell id="B5NhInNvNg8OOwda5CNB-130" value="" style="shape=image;verticalLabelPosition=bottom;labelBackgroundColor=#ffffff;verticalAlign=top;aspect=fixed;imageAspect=0;image=data:image/png,iVBORw0KGgoAAAANSUhEUgAAAPgAAADLCAMAAAB04a46AAAAkFBMVEX///8olaYAjJ8AjZ8Aip0fk6T/9/b58vITkKL38fEMj6H6/f30+fr+9fQakqPF3uO31tyUw8za6u2KvsihytLk8PKu0djR5elIoK+oztW82d/q8/Xe7O98t8JhqrdusLw3mqpjq7hysr5SpLKCusW809jZ4uXt7e4Ag5jS3+Kawsrl6eqPvMazztTJ2t6lx88r+O9CAAAgAElEQVR4nN1daXvaPLO2ZSsosuN9A2MQmDZ0////7sxos2xIG0jSPu+ZD73SxBiNNJq5Z9HI8z6S4n1x70fTU/SeI/m71ITB+t7P5iTYvOdY/iYdic/Kez+8pz65+8P/lo7c9+n+3k+P1PeD/0nO14EPjO/u/XgHjPvkf1DaY+K/nXGfvueQPpJ2VhVXTA78eO+bRsk4z8z/48Nbx/aBFDuyqVaM5fe+a0jkxFl2K9K9dXgfRpFP7UCVpPukVX/ZbvvXvaPf1uqHjPszWe9o8p/lHKWT6Z/bYBp3fQwICZJD8wfm6/WOEXhywOdi9QKi5wEnMrnbRHwsSTUeaKimFowgfskJVZMQiN9+PmL6QUYa+G8plUSQqj+m+L7/JqSJmKuNpG5jI/x0UEsHfxr/9IaO6UfJAP8VOA1c81rJLe9/4PjvJrXGSaX+lwMPDDflTjNDySv03KDX3OdHqTLgh0b9Ra0/ST9s+PfTcabGYYX4weubCjY39Skju+1rXtKOhMnHeZX13sisBCklf7+R+EDS9kuveMNYmVW4QOlpFGP+KraRinIUu1J+sMoGxvUaqxWn/xljHk8mRsmoUUZtOGZv9ivjRpy1Vm8U49PXiX/rtQpi/U7NeCz/szmu28163aTxvW+O02bdbNpqUDNZh/L1lvE8+JOq/FACATSGWzHOUB17630ZMM4ZYwE5vhK5zKk+EPw4vIPke7nNd9RdcbDyQfXm4d9N23BSu56QahdWuNkBXDsYy5SQ7LfvuEqV0e4+h5lMd5lecmqWOQddR+6a0nehA3UWAZcEoPpmVLIpzND919ixOZ2I+SxTnGbwUsRHyaCfkH87vQcP91Av912g1Q+KfV53RgBjkVjObxTKie8JnudjPzBrM1r5RPCv9FsjIQvTsr7h9HDaT2OJRm7GH96EOxrLN3GsV7wrR+PzSHj0D+HMSa5poiUu5qwDoB5NejwPjbiTG5S71t+wicIpUhnDhLaCGch6oC5K/Ou0py6oiEXe5h0PQ34wK1GPIaNAjNxge/xAfiYJD0Z5bXYBvHXM29JIvgZL/yokN4sVZGfhc6amgggtkt4234/jodzcsOJ9Vh7GcV9p1eGlPldvZdwXetO8NcrxRlI7Tc57NB43RkSlbL/bYgzEfW27kz65kjV2d9D+Lqrt6jXWYy4w5JQGdBoivzvKOKPYeqpyzUGHrFlt1Oqk3Pq/YdI7u18L6WlTdL7lF9cdn0bJ3gNSxsKZy2CUU74lDShSaSwsu+IvOC9pwK0Y42rwytvZ1V1zu0A0fIfBdBbB+TwxCDDqjspZE+axPSN35+hePxZqralywXvq6Jio8glLEsZJN0Oq8SYfhrJKa+9FitoGn1m37u/WAjA7vI+Ixvn1IPrEUeoZ+Qv+qhJv/Z80AM0aLgJhRXU65ZvZpit2IQyf4nyww/qKax6nZUcCJp8hdGae+yw/ndaLBW1YSf1QvyhC9ffhwD3X4q0If669uilPVfoyfhxCZ6dSFvB94zAfp3kX8sR5hNH2pVeB5JzKpscgrnUSpNiz5qWPvBOpBIfxRVMi6kYQWKqEk+P1KEssHMVsmCdBN+TrpioPPtHW36XwOiZr0VmV+2hT+2ZbRypXdXfK5pWkxmgMSSlyajU5JfsrOKVPLthST8POBbr+x6s4oN9ZewlfmvsmyCUHQD8626BWL1Hj2p/9xB1ucpnd7C9Zw70ekACkW/3Egf2Lhy45b4LZQ4l/1oNQvxYfy7cOMKmAwKErBJ+P97wAU7E/Gy3AzsAfT78+ffn2/Kjo+fPPH1+PHQsWM7T0ZfPz/Jt4VwvpnQtnRB9IKogsBeuA/1TcBS1kCSI7h5uE8/Hrz+enh6en1WoFPMt/4Z+np6eHx88/Bp+4zC992Xyy6SDqFJWZj5wrmftwh0VHOwGy7IX8BZpahqFzyslpucePVq8lAT39fHx4QlaRUeAe1xt+hp9wIvCnbz92Du9kYfT7I8E9QRMLEiJkV604/2jfvCd6fk+JtV91M4yiGy7DyRUxC8RPXx6eFHePX358P44C5gkThNzvDiD6357Unx+ef4zE6A26fGHcHDsxnjJrs2NQ/0oGPz4aI+0Zb9fhnz3NVvlrlIyfNFvffhx9BCquMpMqjgTjdyUQ8NB3xl+7b+vzJkOp+jBrNmnrFKFbkp7/nBpRwpEEx88PyPXq52m+iecEeo+Mv749PKH4/xASILLhj1+SnlP8mmCCdu+aUa3P04yivholTt2mafHyukuFTsnx2wOu9ZchCZKXmLbMJ6T79YzPP32S9uI3sfO4TSXyr5JuVmqzO9+dw7hCOWP21RjhBActLins0ICI8rpjFKFHSQ7A9uPT4y9B/si1Wfhg/0Wy/oOCDJPrSLQ9iQC/3M8jcM3gMSN/Ucf4e4JX2NgT50MC1qwiRmGzoLsiXehJM/ETWXj+zhagFbY47GqUekYIpwv5B53wEzf76jsYsAsDCZRN08gAo4OetP5hl7yhtO4K4Y7jNn4vaOGGHMD1vjCiBaWUfJWr/Z0vsbrYDXTT9gdgv4rjZsx3i51PSSen7NvIfXKRNti7MS4/GNup4mAvJ+T9+K6lmjIAveb7+RoFF3OcE59130BPPfxyV5txDnKANhisTzRSNMPwg7e+dGPIiCrx4RehTCz30jiDi9TfM72tG6kSb4ll/4F0JY+eSkHm4wyXwc4Gdif5juP+4kBaRkSeph2lY+w1ZMQ8DNZ5jKCMSqsAJjtHybB6enz6Br5duF9AmWG25r6JXi/qhd6PcaU2ct7uQ279pCmUrCiuwApT9vMBpPzoREipihfHHAM4KRatwWNorrL9abQv2x3sm/2EfUJ5Hwjspd0cmJmQM36Gk6FVqQcV9X1PxpWoK4S+PcMY4uwoiKTdXLGlByKLX56fHh++UAvBUEvV6EiB+sHqjoJQiTVD6ciWWizo2EutaNc/2D+uHh9+EKyY8qtZjKUZ1feLYRNhfTj+UX+KvCOI07KNu8cGNKO6KOrZd/S5Lx0Jvkcx/26XOzjEnYwUZTtwUzEPEIUB6kjqRXzX42TYrYSrNdhFZ/5nEPcvTBmAw2zZo22x7c33d2Bzar0hxfvxbYYCq7Y+vxTcKvZ678vt/ThpIJHKZJfMdLZCCU6aelGAP8RZ7Nat5ujX4s826/YD9sw35dzCsq9fWE2UQ5VCfd/8ShFqxqMXgkJevTNeY/B1GqqMMiG42KgY2U6+R5UKlAxEu5VVPmrEQe/VYTKgRmEwi4bzAabx2cTXefJC9uTEjSYK3zXsqCwtiYcX6qgnZzn4BXz/tMPeV6D0a7moQe2lSqjJrsoxRQLYLxiHMbAbCaYA3DUprRsr7iM4OI+d2fhcXPUSojBXop78Gd/fQip3y7Zn1GX9pqqqrL2aCifA98Mn4476sKAZ9VpcS5kASrXfNQXbqLVg4FJHIsApllEFG8NIukfg3OZUqBPPjtumqtYylr0+b7mevnelHN86YvBhI0JZlxOEXa4Nx1T8gHIu1bAkFQDMth6onqwjfVsK/3ckpxK/CDaXg5GoeHY590MVhtiWIgwwYMnDDiY4OeHLXwD3byBcABG23m6KAFG9nXYW0PDvLt+ASCNvi+AM9XHK+R88FcqaPm47Gha2hIZOnD9PHw4llttOUThwAr0NAcbZ++QqPcfzijHqM0ZuWFVj2I2p0vXZAfb3Jwe1kBL1Nyx3oUTmT8Rg01NcvlIjBz2nVIC0f7MvpkJ+ceN8UyJwrvQfJLVv0e4snFyEHmG2GzoxcVAxjedhZfWaNYAIuiJxmVV4iRDHtmc8woQGTpeNJaDhJpVpDkKcguljVDSwO+wGj/eh8O6mmMAC20WPqXC3qKniaqfaLBDIb2Zh93JL0NGLT5t+d41tLPi4FpDBkPpaJunY1sYrkz1soq/m5SYodXIxcedPZZ4tS/zgfsYLMs2u/p9l0hSS6/JafPDn0+OjXmlee8WIrKMVn+CIHiJoRrBa4+6w6wQlhC22vvTH4LUBfDY++er9HNWm9V8D44/N1IZF6es35hEVJDCliQcYrqrlYYSXVqiM2WGo2EY1Di5tbdsFnBTpPKeQBHzM036yhXHRDMtgHCnhqzE5VoUHb6/WOfz5NCk4G03uB5w4OSoYnrbhKrr7BmdFr7FSovV5XWf5sD8cy8ZxyGLjYYhJFnmrY36bomOzkAVnJ/nZOl3np+NxKKtMhu369Ri62wE+hWVka4IbSgNm/gzbXO9qB5dG7fp0POyHfNPnKvSbapx5/4rXRrjxP6frXs9WP0M+r1ZfzPMAzzcK4x3cQLLyLsGa813ZbNqiaNOsOgp+WPfo4szmCJVcEeIhy6jSqn2EqT2qNb8eX+oloI4NEnyDl6YXAfPh0WUMSJLGYuw7AMuJRcBPdQSDG5nzO4wntHs2XBR/bavOr7D813fzUZW3RccmA1HQS/7rafWohf16chT9Xqt0xP18T+sFg3ohkt7or3laPZwmLmVu5+jyTUb4/JruX8j5x2uxwz3NJ2XF5fxkBGGJGkfwbWVhwtW3tBgs0JOXvKXGNzVy3HvdCwlodTwINLoWdNpJAAufiNeTtUroBiu18t8B6WLstmB/HZiy9aKcSLyisIoUdl2acF2O/Z01PuGb6oG0yg7a+ixB8HZ92o3juJ+UuhQsHNGTehYMGa48OkkHJ5QSeSn9I5QqOnxuMn5EYKiSo3VT7AY/nlafVeWyGUBf7kewjGUjdTiot432g95WDqQrankqFWYmjOkQ9glZyQua7emHqmVGwThSVLsTakHP4TC+xm3agEqbF/VxBZR6jWEfVw+yEmBS2VyOKGEEoS6sj957b/XSlIyxDchQNFqE6BRMY7KSHh5WjypIAk5C26JVZnb4lBdewV+Z0oqwZnMKUtJdgUrheNCnk9nXJ4XZA2ukGwvnCHy06xopZ7dVil+jE76XDuAKTs6nm8aUBxNgwb+qg4YpYA4OyjifKv383lv7r5//hsVeHljG4Tett07NKV3+DCaN+lOtnXsWgo2AXU5SIN6holtV0ZJonPStCw1kyg4WXAtYC8aX8tIciUTNFHnDTc5iEW5tZh0taSXrSzSmQLP5LZgVAmynKHuy16cm3iXuJhXrflrCuRght19WT7/UnxFRtWPXm5IcWO/I299oWGKYPss56eOhB+fW+EcB7HKQMu4UTjruabBGLRi+U1nzhlN6mER3VtoUcemNPtg4kZJpi/kYzMHN5SkxaAUbbJdmVEzHVADFAHCdnU5YT2vODjRJXqwPfAU1rhWMR2uRaTBPZYG2ZWBjPlkNI2OBvdl34Gic7gASMe+tMWRHxDWWM5/CNItFTLF1Mit075r49tbDX2Pols0q5IRlN+PiRYBYwXl4cKqbyC4/mmEEa299VzCoBoBiF5G6SNbnn3BjLQv6mo7oslCnKiSq/PDWGhHcRtSwHhFw+pjvlt0YyhndP0h1My3JFEE9eMWdSdu0c5WWS6hKwaJduCB9durAq2PUnn2sYMz01mizQgkadKRgzF5wdUbKf66evl+PIvLIY/f6hmX+UpiOPCNuJVc3chTBhldORS0ztTcjdn1sWVXK5uFLPj1ucVCzVweInQ32d5yv1OTX3vVgNPv1BLL+Ikc6ddqGs2Pdr6bM5AmR5ZG99JiS9M/k2gAB5rRvKK2tqc3LL98rZT186YMh+uq61Oz2wj9jj6iPW9w2OUmr4dA5KCxAna5R24VIbu8XdKRTMwtjzGW9o85a1t3hVNkT251vGlb490B2I2YAnQqVKYzWqDmTREwPAaohc53uLMzBa95WYEpseGdOqNdBq/BJ7eDJhoCMShmXYW9rLO5ouZQZMQNnWEK1ivHlMTfEz+Lp8fnq8EA9vDFFX1XXlzwZAMNwt25XReV0aW8GwzXK9p7jp2YZSY1T6FnXzAlegurHQUzoxV3w0cveWlHMnaC9+3Y92ba6bXoMHTQQUKMckntARK/ZYRnqNhtEcoQHqztxixtjRo+O/QE/VLtkx3G33+8PO2cQ/bg7qN+hTET1Jj8cyssi4DJzFDudSqGDZwRv7qkEu9nYAeTwaMKT9C6nvNBdiwbROSZ1iuhE0tR/XulgEPxsXRMcgVcYTvsKANBYuHzFdR5QdphKSaJNF16csO877YZLbqe3I3RA39QeCrIxMnis8fzxoE+j3qlbaw3B6BBbEMWdjSUPJK0eV+pMMwtLb3s2wUJATMO0v7oreEMsI/4VuegN1PU68mLern3Ar0/KHZz8470zQTo0mfh325RYJfzZ2s61c3BS7SvxoCIiLJeVAtvNWglnkHpO8cSeXkb3R7os2sgTvljzdaWEOJm/ne6ldptFRGw4gpW5nPzgTRnjCnNTzAq6ew5cftPlELRskmjrRPuONLjYbQcaLjc19xdICWQ9Z1febqbbaXsV2SpThoy/uZY3xvZLWsMw7jj4a9Xa6fvTkyrITBSuyXVQcPQq55uP9NKy7ekF9houdoSIlGDN3+4nj48r/UXTs3lgMgl+wsu3F7vF2ifls6h4pBMov6xSV2M2GcTSG50dfI1x+N3yVw3jC2w/tJHbEc/u42fjH7jFXf2J6zP2x3ep8TvIRORubm10JApB1FHXAERea0+BoTGbM/kaxjd8yXhTaYMGW2V6u7Qlnf3aieJm5AFL7k6i5GXmLFeX5E27HLeWquDLyiStRb0LaaY3YbCNXf/kGuPDpahveLAQ9eKomcW3++bt0p5pULdsGxC1TelWwmyb0+t3e04Y8W39i3D2UZwd5dB0qtCdehn9MaEXErVuBACU22sYB19v8ZtYmBxg4LxdCpop/BT43MbNREa2r2ULWuPyMNzLJLMwCRnV9E8VNU0XsrBVnGgGv62ernnNibdxLdNVxpMLxrvLYi1xpZhd4cWTRgwyVrAhPByNho90oiftZL3E9ZDFVdLBexriqkVcM76WqkMZZFuSAYxf4duH8c5Our+K8fR8mfUW3uZKHMbRqarwHzOF4KNoDaFyqXtdmHZLLYwt78Ay20AKTq1r7qWljQySA6d05V8SoOjcDUIP1/b4kvHt+YpO6qL0T4yjaJluqMrqoZGLTJ3VTdlDm49KAPPLzmmtabUp9Ub/J8ZHr3QdwoFeBgSmPR7XQO1JXBPJLr4WhnEZV4FmvVSUo+ALFk1uS3CTZzoh3zRGuDYlCNZzxq+L+m2MH0NCzuR6ugsYv+LtzxiXcpK7IRfBNb5CErfwrY+1yM9Jxi0S1gxY//e6cgPG8znjl5D1ONPqvetezxi/KuqOclM5lalDFI6WxVOK+sZQhE1u8wx8Jlu1aXqodZdIYkbCq1woMiSXKz5nHBxLtx7T0gvKzTFnOpxoYzWgxIVvTQG/uYrbRh46v/NG+1ato3IHwNg/4ulYMzQvcyX3lAQX3tmCcfByl76ZYtwU2VAndo8AxqA47erY3Uf3Hg5aj++OuoiT9cE7646HtnmVlnVEEnoEjO1OzcZEpb3WVdE5u6y2u3BSpgYnE0XCzDHdT9sW87Nmvm3hl+01RSLzGL04GfYqak3KSuhJp8QNLchfJTbyJKO9faqXhdS9G1RYs0sUcVgyjqHw5UPg2x4NNN12lGjbAqrFJDGmF2cmlJ6ZP10c1XstrdWpIqH2D/OdVUvVrrexEIAJlR+G4bTxXCY2/LIT1wXjIOwX5yoA/+kplls5qnW/38fHJx0Yc1yClupm9mqVxP1ZHPjiA9d6jS4K/HSr/6MORACiy8eyKcz6VJ6bd6jJZYB7d+GdRcxftvQEo2jqFPtS7PNUeUTiyVSvzyQpPppTBITt31oEE+GJKT8Jdkps6kGLcKGr2kyqlO6jaLvJtVYBuFTO6yYujNUl4xgyXHSr6uKtmXgmeyuo6T48rL6ob9XzKUqlPNtOHlLuivdwyEcKIqjGA1NqK70GVYa0etTlLzQ8n5PBqHvqpa6EZMFF34Px0jvDCrnEtXux9VHoWGzjOFKpIYz7qA1mQnk0CXRnjvbIk3dqnHC0ft1aejv6P5EK6X2zhvyYYTG2VohB4c1czANf9j0Axi+j3l1C3QKptDQhU+Al3RWZ0jZoSyR+MfFlnI8pepPf3gn2KuWG8Z2Kq5rfb4g7Bt+v1+MmNiE/LPCbSe0pDHYuozBWdql9IsEpnT53KCILnUQRm87zRM+21WxKEILjYsB3sMpotzegs1Hth7S746hRnH6QutUnNZzQ79OxMbIOkGuuDetTcj6ZxlTVgDv2PJYXVi4X4bnL1XMRtbiNchIe+kjD46fHR5yQSW/oyVHbaa/NbpTm+46yG05kYREGpdgxGt/cEqlB9Fk/Rz1jjb7UbqH9Q98YxAdaii/fGxepimFFbVsgte21ioO6TdXWXedW0mG6xz3LbVgddZuTNdS7TcWchJwQ2QoMf33LmUsDv2Uooie4rU0VuBvWRO81eH58UMMZ0yMJh61GVGCS87cefqNxbxDiJmvsuGxKfnpyMMAJK+s5eESRCUPc5o9vppNFXeShh9Fbf8wVTnDadLJaSiPG41KbSYvjFwspXkfp0U534uVle45kuabc4vAtrt9lPRlwJmoivNif3LObqt5m9aEdfHYqbHQfA19ZJqtVu5q1V5zCk/EIk9w7vQU7wYL3keFHZMDQydNi//D4HMz7AtkHeQOrdnDGf2NpQDGVWvGqJJUV/mAuvvjrp9WDTuyIEFZhbU8KxdEFRLmFssFONw3CcLfR+VuEyT/4YiXtk4CcyNoeCbv9VHU1xT1YzveenohlXV3KZSWrNmisi+PubAN2J696S2kAscdqQH1UA2p730g6GBQxf9rUDXCv406dWHiz0J1mNXsm9MSWmAOPSdlTGaPXYz9NE5IBV9R/9W0ZF7TPbOIEFCqW9vTcSjq/SCT0FtO7gYuXzvn/jtxDfExXYavy+NYRMnBKktXqQTdVq9PqyAaTpQfxqO++sCwdnWw/qWLqDUer038wN7meSquvC7yYE4dn910UFw9TO0EpZJTJLzu5jX7AVVfFpWpigvO+n8JAgCjXd8LmHqsijbyJ7nzy2rMOk68kbEumZ/cq3qADwSb4ApCnvPd4Rlx1CAKMwAnUEz0AODE9UgSy4O5Rn4BBmNoNsbV9W+9wH3z0C1u+jOq7CXe6hAuh4mcyU9aJz2XtaW1sGJ63JN1LjTReR/2mPHRoHLQ/vkUhcNIiyGPwGUy5cpvWXpelYTZVKEWeuMcxHrNJvQb98eDtxU61yUHVBnDFQW0IMags+4ikPw4Ccshv6ej+GwJd0qkzoYHWWpbkUauH1bNuNxQd/R1InuEbVitit9fNH/Jpg2MJdB5HOsmRHKURd3WbDLzrQp8UD868lVuHdnqCNThxowWyMcPz6kFZNFZuQ7H1Upv+YHv40K2c73JTcoWsJh28MNRbFwP5KF3OqSaF2qjm9/iKtn+vp7WuR9Jw1MUOaLXBoqGFkd+PvvA+nOrT+ACe+23Ktau8rbVJLE8oGUxKCIXrUR6/moag4SpT4VbxrrfB1aFMCJgyTzeMJDU4LLmu5MUcSo5RbjtyvLqsuwHI9GTjrDdJtwH1GTf29PlRqROnSaPN1eNc1OQVXTT/TFaJCRnesCeBnHfLhAY9PpjkIUKqqmRpa9ccfcVSvHY4GfbJmY7e5NF52INdsQVuq+flqXhbaI1SWU21cvcp9TrfC7AJnI4yKJDjnQjtVNc7kTIyeOROn/MN2uIctv2mn3Yp2MH2deVX8XiYwWU8wOftfFOHIJ4e1QnL2dwb4UJY3snKrDYfwYzzpDtWtxb59WfjzrKgK7yCwDdVV1xy7R0gjtTFMHQUedcWwpvySRT33fCK8H7FUi/e2RmjvDtjQWPRqleBW2AO53NX6LTBB6ncEuA+FbbzQnK74DsH7Ch4Zz7MpMlPzqoUNULEc75Wv8Wno+eP49QgxscO5NvuD9f7NTijm6lbBIX9EeNdFRp+s+FBBz38WSWgyWexCvz3EbyzKYsZ3BELcS+sIPmadTaZIxfc9Fk2IQD2bIWdZ/XG8zvwzieZTbDlfdtda+ipqM+TMsImYdO3dt4aTKPwt2Yoq5U9DCHUp2o5Ft0/AQYGZm5wm8Pc04O7dobg8xMlW7PT5HeFizYwdIcdHJjh/DiC1xAXziC42MiI4/HKpQP1usNjbvHJ6aHOMNzahX0bOF0oPruKzMPujWgvdIMOloNWHFzn7L7y5dQ990V9eirlqGTGFF6v/S4bk0Jhf9Jrw0Pgm8CT/axVkDzD156oODWtHlIMDt0hGbE7xnZwm7qQXJY8d6UB/sGv6f3moCE47DKGrkJlrALb6ibr771EJCXuW3wqLZfsCozHnE1tiX0GQJXtxxT0wPcGoMhmNzslGAw4bTF4r6PPEsaoOJQZ7vx43c2+jaQRtjtsrepi2PpnsF1wFWLFu1JlqEGeRKVOkwrfnh27h/r5YOSA0FWRrq+pm7TdeCjuQdvqCevqDhiRnx+bS0gwuzPDk/OQi3DeAYfX8XkUaBtNVXAH6z31DdM8SfQks+r7Zd0EJa9qUfASpbuAKL9UyazkO9I1nOqRyfFPsLnX2nA+eKeg83I/HhYdnfDCELEvqybLmnU+jJQse/VySvde5qGvpfvZUv9x5R5v0/tM2U85EMW5HmoSBIe3HClGilAshRDd3jcH8XUoTx9/6h24gV2PvppA2cB5HMc7TvnJvyC8NIPjRZdXLtVgfZnANx3PmZUmBtvocXpSS5v+alVNLjuhgQstxHisLmpv30KlvjbWaBtjzo9OK4EfAK1KwzlvvbCE9R7Bm35NNzf1KYFABJF3XMQmmsKwS6l7YlkBVmM01Ppns3r6d6SYqMN9BsAZuOwsuU8+AecmTkmPXgPSGvTFGRQlv1zaS8LozhZQIjxOInuPGPC9etg5IUCtXgyGVj5qyV5oDvNmKpksejKpEguX3U562NvM9qJlfn/CztJ+6bV0e6DB73lPuJ8lPEhxc3cAAAwXSURBVK6L8OAdN6kpwaHsG/C9d5Ck0F9sIJssAOrJzQdoX0txINtjX+ZUcsfiky/A+S/b2wJY9Zpz1KQNWK10H170HDfMMMbKzTk+httdnJ43Xm3zd/7zCvie9sqUQY9tosXDFuPJlTG/D+UMXIB4EmQg3YjTueZJrvnUuBGWISy3+cYTgddmfZt3SyVOKaPJmOVh6qVDcc7SGAB7ad7IOuy/PLWo8IMRxS6W0M0IXxJ5RfiurfQl9e0m27Q4zYzuJt2Gmu5IFITqx0mMZdfgz7arJRPE21XeJqy8M5i3ttmklY8ONoYpOfw7js1eeBsvH+MijfyTdxhb2+IxAMdktZqaZZmy+51M2ptiY1m0K3A+5FDfoxdvnO0Bc4DhIWTXelkA7JpBeKpaR9vLtLOsYyv91aPjXZbYPof0GebgwtDLttsAPtoz0m4wh57VzeCd1945BvetEh6xF0tROYnPtvUOC3SoHDAqHnk0uULhNQF2Lx8JgaEGhB43b9Nz/c5RxpQcULZ0b2xZfpK42bTWdJ32g+PTCje6xXR0aMjOG8Oijyp4QRlRrHYIfTz+UGTnTTHiVYld3oZ1TKYTxLIr/9Nnc+AxkE3fJAlfbWzd2GDncbqPHamjPLh2Fdfrad5ek7I1Y7lKUqPtlD67E3nsK6G+WzZYf/o23bQAuiuvCQdQkhy92Mu7flvG4WnTD2FahHlEvOoMgMDDQ2N2ulRXfo1TWeBUrqnym8ZgClYNCV3P7SV/Y+WTWMBNDAdIXyUzgjavrWr38joUKrvhP/xy+tIxqSA2XdXv4/Nhm9f1Oc2zNqz6cOfRtZd6fjI6XxV0iFoeZX83SkTlLqBWap7uEJOAs7ho/PrmSzSjK/fT+dof1ih9ARv6XGrt4IhXIDwfXdtN2WEztq3w6FD4XiuvcglOHkm8ISibzvUpGf0hL2FAHQn+xjwbYy5L2JiVucAH7O33vjnNzFxBwjGbI29LdyCStzEz+vMBdvrnkcxYp6Jj7aFMz33qeyHxhl1MGXZwcd0zFnzFaVvJEA7vll9genZjdUt/rVsMeZe7UqrZLRmyUFYeIreFOZe5914WpJHD8xOu2m7ZbJrjPcO+EDs8tkrJcsUY//qIH/yUyLdcAnB77g5lDeMl8ztm2D2X3F8jvP0HO4szLCcdG0FVZZ4J5MugQLzQoRKvUwILBxx8Hpb31+lJvPY7In6oD0lRo8nceZedbE2lh/LKK0bH9Qg2Vw0xxHuC3o22m3We5+sNjmIbKBNmo82ImEp/8W1f1Sng5Bdy8fT4o/vNzVcT15wN8mK0h8+6d/OiA14vraiJAEvnJIJPAWKJik0lh/h+l4Vc0DpIju7X4/0hJFmqEx06YfTXo7rG7NcY8OQ6w5JpBrjjE8q4ZfuCb2ASAbkFbDjluytXSH4U7VmwnkIv6J7CJCRLhWLinYyd1DVmD8+fTgJP+y6WXubx6e7rl5W8Dm71yepDvli+MZHW23VHS84/+jpDhwSe0rAZJU/dqHgRvLfNDpNg/CGvr0Pmv/z4vhOArAwxvzt+/fRtpa/++1zS6a6QhTrH8B1CcoNUydbLyIffX+lSH2AdkDYqR9uWe6Hg7KEYGWfb/XhG3uT9jQ+r52+fP3/58uXzt+dHfa0l3vH45btwroNb6nMV6Q/rySuTFYYffpuh5KXNmqyVBYBJpNJ3Ut5U0f5S5mY2lrJQlJ+eH8ztnStF+gLPh9XnX3s2s3sXGX59z3xldllSgkWFjRa1TZO9y5mEFyiuuhDtWkCGekOoUNkjBG46oXVxbjddoIuEh8nu+4+f34B/Q6vnz59+DR1Zav2LS3f1NGLZj4LoPKV+UBT7kKChDcf1O98Uoqk+TkOj5HiktBN6mSNbY4zjcxWSk/G1DOGllYCJRNeNncBrPAN+JdZKXfsoe7AbZYr5Qrn4oqP05FxYzMjw/pdxTwd89LdYBdRPaTYZ9a1CV8mdXg6vvnCFgibu8FCdM29qEIGZX3utwfwVCXmHbiAzisgLsTLJqw3zYvHZSMmsS8KrA8tzvp30z4HIaKJTKeq5zZXmn3vPmiek3r/COX555DLeqQAgd0ulh2tODjYaCTCsc+Xycflnh+9O1+SbP0rGsf7qyifZq0tOXk3RYbFdKekOYIORcVuF0mnLxlwwUy0ScLAXeVdmRR/HmCvd+xchdy4cOZfxNmTWPCSLHHrh871YfjB43xugNG2caz9g8NiLAi/iwzE6oq7Ooc5OwW+n3KOstcwXCZ46OyaOTmez01OqIy/CYltNhK9kksnM9QAubhl8P8o6vP+JByHZrdWa7Dk2ETc7DrGM9pxkr47YCGy6JyEhJOS7PL0ui9tmEOoZYRoMSS5MTXJlUQuaEQxyqmxKXY1EOmbB1BXkIyhOASu44dsTwfOg5nK50jZKkXquOE9nz/ptUf9p/+EzRhjaTt6l19Hlm2FK16HvSkUtUdVfAXAOgaWGQUyX85kYKe7KDQeDf9eAYtDkiNRtD8KTua0BFPxAPuB2r9tpE/j8UMidiHf4GMZROHG/M3pHXYK8R2HCwopxNQmsHtkLbXj/GgFGrgC4b7HrmMxko69sis4wIKZv1Lh576niAozz2PMtucaHdC8oFb366r8t3YpSeTcS9v2qhLKpsiLHttIXNkZz630GjVZozZSglHG9nQ6oClBoAcJzdvz7K9+6Jkr/IAVwKtiO7CTcdiuROfoFK27LQmXZcGZ79NmvDsY33YZyM00HGGck/2bTffHU0OOmWIG9qjP1tvPq2WvgMfwQzPICFclF7AwsqZ/IdFU+RaRs75pblJE93kmKKcYkA7l4C/ryKvNF64qPpeYihk/DyitDwE5oZSZ7NrXjuSGRZdvKhJHBBzIDXIUUTwHk4YWs3dNn+B4qzouvBtSOk97C5GOlcztdNzZV679aAU8VNcIqjKD2WsH1Xa2FWHo97MVrg9+Z+sMsK0RsZW5JKA2OsTrIgCUyxrbdsCi2sRhaMOX9BCl8ozr0ISkTbkIuIcePibxco+LIpT8JvsrMpGy7AAaSy+J9zCPbzlwX4bgXyTraCP1kdpDlWIgduF0/0ZSa7x/+2haXFKflTgjwORYyvMFbU6UgyJCZreB5tV43Ppg6766nzfe7hcjA94/Xvv8fUJGPgC7Gg5FAuca2M/xrK5Jia7nlvrXrv5cvz//u6r6GilF5xtNNMju5BUwDpte29LfXtKlmoFPnMPlyFu7+Y6yf5kaGBcxUMWjOr3apu0JaK6Ay7HPsScrm0b47G3Z9EMWLsgmSRzm29GTh2MSF/NWy0+xLpDFPHa87vMSRJ7k3zMOVfPz321pTvwgYKrvTYFdUDFHJYqHXMq6SFKUMKTHSyUT8Ily5TKH+M7rg2wQJihP6L2rX8+ZVo42VQ4cfYX5ptkdO/oucx/MwL/Mdf2mbT2dMiRiy32qmujmKaUOLynm4pfONLj6Il5to1qsyIRaptIMgpuO5upmK8kCcrhveeKPvJ6aMm7Q6IcK0SPKiYeYOvtf96m+heip+hA19NKi5dsoMfV5kpc4KJjw4LK/HiBv1DjyzMZYbpxFrQg5GqrcHKw2Uk/1fQue/pTg7+oQEhHRTEV7mLpAqQoraalT8wbjdpj0HPSNkrNQCz651mxrp1rmQX+MPbyxUfU+K+tq5WXtWwO6mVaLNwGU3A8JyuWZ1KTtZJwFz98DouvtuDjKqZ1/zn6NZcviiZ84QIK8sPLTtiOJr7+a2FM30ZfjXanveSvMjiuJiiaJMBuyoWmxyJQMSz7K/b7tl+O+RezjnpfTl1jQQpuVVNTW3kfS/LN4Tjc6YX2oBbL0POl6HdPpuGj1779N88oMpmwAmfeGm3FoWsrGEydLkw3XTNDsG/m8zJ6+i6ZCSDsVdUqkU+xDHMkpNg+vTU0wRpv8GVPs9pWDTCedByIbry1TICA3pJBAv5BFELq7PULrHmglsa3l3F+W/SnWbpsVL0EqaeDpVQcp6Cfpi+7Ee3nW1o+X/GKm+rYF7wrlXv9r9b2juO6mQHuxS5UmvM/l7CZG/T6lqR3WxX2U6/A0H/P/rJMNvrLuCaHqJV/5xuv/jqApf9KRlV+XbG0v+r9Am5C+2xR2v3Dbw/4eK3xyLOtzf0PMe+j9t6bkooMIiSAAAAABJRU5ErkJggg==;" vertex="1" parent="1">
          <mxGeometry x="1970.54" y="1873" width="305.42" height="250" as="geometry" />
        </mxCell>
        <mxCell id="B5NhInNvNg8OOwda5CNB-132" value="&lt;i&gt;&lt;font style=&quot;font-size: 27px&quot; face=&quot;Times New Roman&quot;&gt;Clubs Integrated&amp;nbsp;&lt;/font&gt;&lt;/i&gt;" style="text;strokeColor=none;fillColor=none;html=1;fontSize=24;fontStyle=1;verticalAlign=middle;align=center;labelBorderColor=none;fontColor=#000000;" vertex="1" parent="1">
          <mxGeometry x="1490" y="1780" width="960" height="60" as="geometry" />
        </mxCell>
        <mxCell id="B5NhInNvNg8OOwda5CNB-134" value="&lt;span style=&quot;color: rgb(0 , 0 , 0) ; font-size: 28px&quot;&gt;&lt;i&gt;view details&lt;/i&gt;&lt;/span&gt;" style="rounded=1;align=center;fillColor=#F1F2F4;strokeColor=none;html=1;fontColor=#596780;fontSize=12;sketch=0;labelBorderColor=none;fontFamily=Times New Roman;" vertex="1" parent="1">
          <mxGeometry x="1630" y="2126" width="140" height="33" as="geometry" />
        </mxCell>
        <mxCell id="B5NhInNvNg8OOwda5CNB-135" value="" style="html=1;shadow=0;dashed=0;shape=mxgraph.atlassian.checkbox;fillColor=#008465;strokeColor=none;html=1;sketch=0;labelBorderColor=none;fontFamily=Times New Roman;fontSize=27;fontColor=#000000;" vertex="1" parent="1">
          <mxGeometry x="1750" y="2049" width="14" height="14" as="geometry" />
        </mxCell>
        <mxCell id="B5NhInNvNg8OOwda5CNB-137" value="&lt;i style=&quot;color: rgb(0 , 0 , 0) ; font-size: 28px&quot;&gt;view details&lt;/i&gt;" style="rounded=1;align=center;fillColor=#F1F2F4;strokeColor=none;html=1;fontColor=#596780;fontSize=12;sketch=0;labelBorderColor=none;fontFamily=Times New Roman;" vertex="1" parent="1">
          <mxGeometry x="2040" y="2131" width="140" height="33" as="geometry" />
        </mxCell>
        <mxCell id="B5NhInNvNg8OOwda5CNB-139" value="" style="shape=image;html=1;verticalAlign=top;verticalLabelPosition=bottom;labelBackgroundColor=#ffffff;imageAspect=0;aspect=fixed;image=https://cdn4.iconfinder.com/data/icons/feather/24/trash-2-128.png;labelBorderColor=none;fontFamily=Times New Roman;fontSize=28;fontColor=#000000;strokeColor=#FFFFFF;strokeWidth=8;fillColor=#CCE6FF;gradientColor=#ffffff;" vertex="1" parent="1">
          <mxGeometry x="1828" y="2128" width="31" height="31" as="geometry" />
        </mxCell>
        <mxCell id="B5NhInNvNg8OOwda5CNB-140" value="" style="shape=image;html=1;verticalAlign=top;verticalLabelPosition=bottom;labelBackgroundColor=#ffffff;imageAspect=0;aspect=fixed;image=https://cdn4.iconfinder.com/data/icons/feather/24/trash-2-128.png;labelBorderColor=none;fontFamily=Times New Roman;fontSize=28;fontColor=#000000;strokeColor=#FFFFFF;strokeWidth=8;fillColor=#CCE6FF;gradientColor=#ffffff;" vertex="1" parent="1">
          <mxGeometry x="2250" y="2133" width="31" height="31" as="geometry" />
        </mxCell>
        <mxCell id="B5NhInNvNg8OOwda5CNB-143" value="" style="shape=image;html=1;verticalAlign=top;verticalLabelPosition=bottom;labelBackgroundColor=#ffffff;imageAspect=0;aspect=fixed;image=https://cdn0.iconfinder.com/data/icons/bold-purple-free-samples/32/Add_Circle_Plus_Download-128.png;labelBorderColor=none;fontFamily=Times New Roman;fontSize=28;fontColor=#000000;strokeColor=#FFFFFF;strokeWidth=8;fillColor=#CCE6FF;gradientColor=#ffffff;" vertex="1" parent="1">
          <mxGeometry x="2410" y="2350" width="39" height="39" as="geometry" />
        </mxCell>
        <mxCell id="B5NhInNvNg8OOwda5CNB-144" value="&lt;i&gt;&lt;b&gt;Adherer un club&lt;/b&gt;&lt;/i&gt;" style="text;html=1;strokeColor=none;fillColor=none;align=center;verticalAlign=middle;whiteSpace=wrap;rounded=0;labelBorderColor=none;fontFamily=Times New Roman;fontSize=28;fontColor=#000000;" vertex="1" parent="1">
          <mxGeometry x="2199" y="2354.5" width="220" height="30" as="geometry" />
        </mxCell>
        <mxCell id="B5NhInNvNg8OOwda5CNB-147" value="" style="shape=image;verticalLabelPosition=bottom;labelBackgroundColor=#ffffff;verticalAlign=top;aspect=fixed;imageAspect=0;image=data:image/png,iVBORw0KGgoAAAANSUhEUgAAASsAAAEeCAIAAABdcaT9AAAABGdBTUEAALGPC/xhBQAAACBjSFJNAAB6JgAAgIQAAPoAAACA6AAAdTAAAOpgAAA6mAAAF3CculE8AAAABmJLR0QA/wD/AP+gvaeTAAAAB3RJTUUH4QwUChI6uChj+QAAP0BJREFUeNrtnXd8G+eZ5593CiqJQgBsIiU2VVvdjizZ6qIkKsmmXZxi59I3ZbO3yW7altvN3vluU+422WzKJjnLcWInWdux0yw2SVS1JEtWsapVKZEUO0AQRBnMzPveH0NBIDpAEAOA7/fDDz+DwWDmfQf4zfOW53leRAgBCoWiEozaBaBQZjVUgRSKmlAFUihqQhVIoagJVSCFoiZUgRSKmlAFUihqQhVIoagJVSCFoiZUgRSKmlAFUihqQhVIoagJVSCFoiZUgRSKmlAFUihqQhVIoagJVSCFoiZUgRSKmlAFUihqQhVIoagJVSCFoiZUgRSKmlAFUihqQhVIoagJVSCFoiZUgRSKmlAFUihqQhVIoagJVSCFoiZUgRSKmlAFUihqQhVIoagJVSCFoiZUgRSKmlAFUihqQhVIoagJVSCFoiZUgRSKmlAFUihqQhVIoagJVWCh0n3r1jO7d7929KgkSWqXhZI5nNoFoKRHb29vZ0dHa2vbtatXlT0mk2nLli0tu1oeevhhhqGP1AIDEULULgMlOcPDw+1t7R3t7efPn493jNVq3bptW8uulhUrVlApFgpUgXmN0+ncv29fa2vbmdOnU/+m7HZ78/btLS07H1y6FCGkdiUoiaAKzEcmJib27d3X0d5+4sQJWZYzPk9lZeWOnTt27NixeMkStetEiQ1VYB7h8/kOHzrUuqf1tddeE0Uxi2euqanZsXPnjp075s+fr3YtKVOgClSfYDB4+PDhzvaOAwcOCIIwo9eqq6tr2dWyffv2uvp6tetNAaAKVBFJkl4/cWLPntYDXV1erzfHV29qatr19l3Nzc01tbVq34lZDVVgrsEYnzp5srOjs7Oz0+12q10cWLxkSUvLzubm7ZVVlWqXZTZCFZgjCCEXzp/fs2fP3s69IyMjahcnBsuWL2tpadm6bZvD4VC7LLMIqsAZ5/KlS52dna17WgcGBtQuS3IQQqtWr9q5c+eWrVvLysrULk7xQxU4U3TfurVnz57Ojs7u7m61y5IJDMOsWbNm+47tm7dsMZvNahenaKEKzDK9PT2dnZ17Xt1z/fp1tcuSHViWXbdu3Y6dOzZu2lRSUqJ2cYoNqsDsMDQ01N7W1tHeceHChVxeV5IkQgjHcTnwfeF5fsOGDc3bm9dv2GAwGHJZzSKGKnBaOJ3OfXv3tu5pPXv2bC7vpCzLkiSFu8swDMOybG6kqNVqN23a1Ly9+bH167Vabc5qXZRQBWaCx+PZt3dvR3vHiRMnMMY5u658jwTfWi6laDQaN23a1Lxj+9q1azUaTc7uQzFBFZgGPp/v4IGDba2tx44dy67XWGJSEV40DMNwHMeybA6kWFpaunXr1ubtzW9bs4bjaMhbGlAFJkcQhCOHD7e3tx88eCg4w15j4WCMlabmNL8j9h45kKLValWkSIMVU4QqMC6SJB0/dryttfXAgQO59BrDGCvdvKx/NbmUot1u39a8rXn79pUrV9IIqQRQBUaieI21t7fv7dw7Pj6ey+vOkPCiUXSYm+ZiZWVlc3Nz847tS5cuzcHlCg6qwEkIIefOnWtva+vs3DuaQ68xQojS1MzliE4IRYcsy+bgWjU1Nc3bm7fv2LFo0aLc1zRvoQqEy5cutbW1d7S359JrTF3hRZNLKdbV1TVvb97Z0tLQ0KB2vdVn9irwxo0b7W1tbW1tPXd6cnZRQojS1MwT4UWAEAr1FXNwuaampu07tu/YuXPu3LlqV101Zp0Ce3t62tra29vacuk1pghPQe0bkBI5luLixYsVq1hVVaV21XPNbFHgQP9AZ2dHa2vb5UuXcnldpalZKMKLRpEix3E5mFp4qD7w4Ud9Utn25c1fKp/7gNpVzxFFrkCn09nR3tHR3q6611ihkwMpPlwf+PLOtwAASiFoBJ+8uX7Ntxw1D6td9ZmlON0X3G531/79ra1tp06ezL3XWFEmsVaGjiRJQggpYzYzJ0WEQFcCOuh6a+/b/uHop7fv2LGteVuxRkgVlQ30+XxdXV0dbe2vvfZaLmWQmddYoZN1KYZsIDIBKgcA6O+F//bd5QDAsuyaNWt27Ny5ZeuWIouQKgYFKl5jrXtaDx85UoheY4WO4gs+fSkmUGAInufXrl3bsqtlw8aNxREhVcCtUEmSjh492tnesX//fr/fn7PrZkV4iqNWuLtWhOtWPE+uBB5eCcoT/lb09jSfIBhjjLEoijkIyxBF8dChQ4cOHdJotesfe2xny871GzYUdIRU4SlQ8Rpr3dO6f//+vPUaCxdY9P8ZIsHJU7xuuCCj/6dyi3ImxaAg7Nu3b9++fXq9fsOGDS1v31WgEVIFo0CM8dmzZzs7Otrb2l0uV86um4rzCrpHaFvtu5UhCR4TISkqQEJZhktxpiOk/H5/e3t7e3u70WjctHnzrl0thRUhVQAFvXTxUltra2dnZ/54jaGpqH2HckFMcSpqxBjHUyPGOBgMQk7CMrxe76t/+tOrf/qTyWTaum3bzp07CiJCKn8VeO3atY729rbWtt7e3pxdNLHXGMMwCKH8/1JzhvIAUm5ISIox1RhyS8iBFMfHx195+eVXXn7ZarVua27e2bIzn5dzyzsF9tzpaWtrbW9rv3HjRs4umthrTPmR5e1XmCcoU/Zw72bGs4q5lKLL5XrxhRdefOEFu92urCGVh8u55ZEC97y657lf/vLy5cs5u2Iq7prKoILa96aQUOYJlYGrBIeFS3GmwzJGRkaef+755597vrKy8r3ve+9HP/ax/BmzySMF7mzZWVNT09W1v2t/1+3bt2f0Wil6jYWe6/lMWuOcOUNpMqTilxeSoijNoBOf0WjcsHHD1q1bH1u/Pn/kB3mlQIZhli1ftmz5sr/64hdv3rzZtX9/1/6uixcvZvES6bpr5rjFErpcxLBHgmnD6RBzkjBiI5e6xXL2/QdNJtOWLVs2bdmct3MVeaTAcBoaGhoaGj75qU8NDQ0d6DrQ1bX/5OsnM3Z0zjevsYh5C7UGVFMXdvhURPjGjENAluUMmiFKwqhtzc2rH1qd5zMTeV04ACgvL3/8A48//oHHJyYmDh863NW1/8jhIyl6wOSP11ihz17EmyckU8n6dQmAIAipBytWVFRs3rK5efv2fB78jCDfFRiipKSkZVdLy66WYDB44sSJrv1dBw8ccDqd0UfmifBCI/WFKLm06qhsJ50bzJjwsIyYEVI1NTVbtm7dtm1rHg51JqVgFBhCo9GsX79+/fr1+L//w5tvvtm1v6ura3/PnZ5c5hpLjPJDKbifwvRrHZobTDoQmhkRUqyvr9/19l2bN29evGSJ2rXPnMJTYAiGYVasWLFixYov/fWXzpw+/YMf/OD06dO5TGUdkxkNnCsUlOlTxRsm6+h0ulWrV3/0ox/dtHmT2hXNAgWswHBWrlr19O7dAPDmm2/+/JlnXjv6Wi59R0NQj5lwOI7LYpSmwWB4YOmDn/rkp4pDeCGKRIEhli1b9q/f/S4A9PX2Pv300/v37e/v71e7UJTMMRqNixcvbtm1K5Ta8NSpU3a73W63F0eobjFE6CbG4/H8/JlnWve0dnd3p9s5SdchRnEHUbvG+QLGOBAIpH78I03i37+rG8IidAMT9nHH7+Mdr9PrFCkWdKhu8SswhCiKL7344su/ffny5cspdhepAqfD9BUoCbVOy2+SflCv19sddrvdrtfr1a502swiBYazt3Pv888/f/bsGZ/Xl+AwqsDpkLoCy8rKVqxc+YGt1dWj/wjpKzCEwWBwOBw2u02n06ld+1SZpQoMce7cud1P7z527Jh7bCz6XarA6ZBUgQ6HY9Xq1S27WswmMwDwntfN3V+CaSgwhLHE6LA7bHZb/iewmNUKDAQCIyMjI8MjPp9veHi4tbX13Nmz4bP8VIHTIaYCGYZxOByPrH2keft2o8EY/lYWFRiipLTE4XDYbLb8dAqF2alAQRBGR0aHR4a9EzFWBfT6vJ0dHSdfP6mE5FMFZky4AhmGqaysXLtuXfP2Zq0mtl2aCQWGMJlNdrvdVmbjNbzaN2YKs0iBYlAcGR0ZGRnxjHtSOV6Speefe/7okSOpX4IqMBwlVcycOXPWPfro1m1bOTbJnZlRBU6CwGKx2Gy2srIyns8LKRb/z0UURafTOTIy4na7IZ2nDcdyy5cvS0uBlHD0ev0Pf/wjBuWTiwKBMdfYmGvsBrphtVrtdrvValX3oVm0CpRlWRGey+VKS3iUbKHRaPJLfuEQcDldLqcLMaisrMxms1mtVlWisYtTgYSQO3fujIyMiEGV3UQpeQ7BZHRk1O12OxyOurq63PvTF6cCEUL19fV1dXUej8fpdDqdzoA/jalhyiyB1/A2m81ms5lMJrViWYpTgQoIIZPJZDKZ6urqfD6f0+kcHR2NOf5JmVVodVpFeCUlJaoHkRWzAsMxGAwGg6GmpiYYDI6OjjqdznQHZiiFjl6vL7OVKcJTuyz3mS0KDKHRaKqqqqqqqiRJcrlcTqfT5XLNRI4gSp5gMBhsdpvNZstPB+5Zp8D7Nec4h8PhcDgwxm63WzGMkliEi2/OTowlRrvNXmYry3N37dmrwBAMw1itVqvVSgihIzeFTklpid1mLwiPUAWqwPtEj9xcuZK7BN6UzEFgNpuVab289f+MB1VgbJSRm3l1dWoXhJIIs8Vst9vLrGX55u2ZOlSBlAKmqampUFqb8chXpyEKZSoMy5SU5tEsQragNpCS17AcW2YtK7OVWa1Wj8dz8UI21xHJB6gCKfmLRqN/uBDWwZ0OxVw3SqHDMMWff5XaQIr6aLQam81WEpjn6la7KDmHKpCiMkseWGKxWABgovstFfKcq02Rm3hK/pNXftK5hyowETptwaSdzEOKvguXFeg9SsTqh1braOalTHmwkBcVyxlUgQkhxEGwIeUgztwt75z32BhUZ7epXYoCgD7gE3G3u5sFKGeQn4CHgC8FdSnrnqseea0ahJQwTBXHcQj6u7vVLk0BQBWYiP6eHmVDj1AJy2h43i3J47LsleV4WlTWeZ2Fy+hqAawsYw1LN+YeHla7UAUAVWAiRgYHQ9sMQjxCdp6z8xwG8MqyT8Y+jH0Yy1G2UdEhACjryBflmAQihEfIgJCFZfVMjGeN4POlf9ZZB1VgIlwjI6FtJsygMQClLFt673kfJMSPcQBjAWMBEwHjUNILZVOWZTQVtWuWCQwhPEI6hAwMMrFs0oeKLAhqF7kAoApMxLjbHdpOIBsNQhqWNYc1wERCgpgECbbaS+fVlg+5J8YnhOFxr3vCL0py6ITKOcM31K4xIEIQAIOAA8QjpEWgR4yBzcSIhz2IKHGhCkyE13N/hYm0xMEjxLPoIy2rm9c/GHlOwriDjMvrH3F5xsb9Lo/XHwj6AoIvEPT5hXGP1+MNeAOCX5ACoiRKckiW4fpMV6sIAIAgAgwCBIgBYABYBBwgFoEGIS1itFEJrhECnueCwQxz5yCEgkJAQ+dUE0IVmAgpbKnddH/0H3zX2zauWRi+B7EsW2q18LwFYF7iD2OMBT/2+4gsDQy7d//nkTt3nfhebxPDlDSLk4aGEASIQQAIZStc/EPvXrNiydy///bLopje6t+T9QWQRJEqMDFFOEIwQ6Slvy2PLoqUH6/hLHaU4no9DMPojVyZg7PYqmsq/u4Lb//bL7RU2ktZhFiEeIQ0YX865Y9htAzisye/t62sX//wglKj7m//YlfGrWMptdXCZzNUgSmT8s+wutLy/rc/POWjGi1nLoP0O1OI17AmK1fmqK+v/R9/855PP7FRp8tFQpT5DRUff/9jynZVueWJ967N7DwyVWAyqAITkYGDC8syX/7zHeF7JuU3jVEWxHKsycJZHatXzv/uP36wef1ixMzgmM3Cxsq//tT28D2Prm5a0FCRwalEIThz5SwOqAITEUx/PP2J9z6i191PmId4DWeyZqUwiOM4cxlnsb3vnWu/+48fXLq4Ziaq/OhDTV/8ZHP0/r/82DaOS3txL65gU5jlDKrARBhLS9M6fk6VZe3KxtBLxHKc2Tod6xcN4jWc1W6w2T7/0a1PfeXdjfMc2TozwzIf/8BjT8ZpcHIc8+T7Hkn3nBodHYZJAh0LTYTBaLz/gpAkWkLwV58Isx4Mw5rLYGaWsGR0Bkard2j1X/7MTrfH//zvjl94q4/gzJ3C5zdUfOG/btFoEv0e1ixv6Dh48e7AWOqnLTFbZqL6xQRVYCIMYcGjSX/dW9YtKjXee+QjxJmsaEbXZEWILTExeoOFd3/+I5sB4OCJt/YduTQ8OpHOOaB+rv0Tjz9ms6Zk7b/w0S1/9+2XU11zKgXjz/GcKivX5g9UgYkwphy+bdBrwsc/2VIz4nORPh2xHGexYSGAJ8Y3rlm4cc1CjOH1czePn77RP+Se8AZwLMOo0XDVFeZVS+dtXbc4LZ9Vq9m4+ZFFXceuZKv8er0+HzyBVIQqMBFm6/1BlMTjop/68MbQNmssZbQ5Xa+H0eoYjVb2TWC/l2HIIysbHlnZoLyFMR4cGR92TQCAXstbzQZ7auYuHo+/8+HjZ2/6/ckHOZkUjJtv1ntvUwUmoqy8PLSdQIEPLJyzuLFS2WZ0esagRuIThFhjKaMzYO84Fu4v/MQwTFW5parcksVLffbJjd/9WWfSw7gUhmFkSRZFkU/RUaEYoWOhibBX3J8Ei+dlrNPyn//IJmUb8Rq21KJigRHLsiYrZ7EhbgZ/0wvqKx9Z1Zj0MH1qK2YGg7N6zpAqMBH2ysrQdkwbiBD62udblK4UYtlsTf1NE2XGgjVZZ06HH/0v6yrLTYmPMZrNqZxKDM5qvxmqwERYbDbuXqYmHEuB79m5otJhBgBAiDVl4nc2czBa3aQOZ2ZM6O+/8M7EgyhmR0pzlaJEFUiJA0Koat5kGENMG2g2TU4YsiUmlJdZ1RitjrPYOKudMZSkV0KEgGEQywLDxJxX4DgmsZNq6NYlRpYzCbwoGvLxR5NX1NTV9dy4AXFsIMMiAGA0OkaXUp9HLRDHsxwPxlLAmMgSkSXAmCgRtEp8MGKUVRqAYRBiYhhzQgjGIEtElogsA8aEYCahe2rNggWplG2WB/JSBSahtr7+2L1tmRB2qjUwl+gBIabUlPoJPR7vrduDep12TrXNYMi50xbDIEajtEsxxkNDY3cHRlmGaWqsNuoTFgYhxLLAsgjur5ip0Wu9XiHe8SZrWUpFmt3pHakCkzAnbCFrjHG0AwejNyIm+cTXmGvi6PELx09eunq9L9Sgraosm99Ys7CpZsGC2rm15TmYm/b5Am9d633ras+1G73XbvQFApPjkCzLLFk0b90jDzzy8GKjMQuTmXzKS9vKmLZCKfGpC2tKRTdEOY5jE87++XyBE6cuH3ntwoVL3dE9yf4BZ/+A89DRNwGgtNTwwKJ5Dyyat3RpY3VVNnPdCkLwyls9Fy93X7h068at/pgdWlnG5y/eOn/x1tPPtq5a3vTYuqWrVy7g+SQ/Dy5+uqZSW6pVoF5plETMmz+f4zgl9WC0As322KEPhJALF291HTp74tQVUZzMs1Ji1JeW6k2lBn8g2D/gDO1X8Hh8x09ePn7yMgB85YuPP7x6Ubaq8Mtf7+3Ydyreu7Yyc0W5hWGQ2+0dn/C73ROvv/HW62+8ZTToHl374OYNKxobquN9VhM/+MhRW5ti8YoylWPqUAUmgeO4ufPn37x8GQDkqDEDRhPZd3K5xi9c6r54+TZCqKbasfKTTWVlJpvVZLOZwk0Kxnhg0HXz1t1r1/tu3Lp76/ZAuCAvX+nJogKvXL0T/tJWZp7fWN1YX9XUWFNfVxnRF5Uk2eXyjDrHR0bdw8PufV2njx678MCSuiWL5un1qTYsAaA+5UUjqAIpSWhcvFhRICaEEBLeWzOURA6BWq2m9Y8uW//ossTnZBimuspWXWV7bN1SAJBlufv24JW37ly93nvlas+Vq7ezVXifL3C3f7SpoXrRgrkL5tcsmj/XYk3UbOY41uGwOByWVE6ewJusLmUFcnk5i5MzZnXlU2Th0qWdL7+sbMuEcGEKzMqgBQCwLNvYUN3YUP12AABwOj3TPGEIXsP9/Cdf1cxMrDrPx+7CsRoNl7I7DjMzIZSFAlVgcpasWBHaljHmZr7VVFY2rfCFcHg1LIy1Io2kMhptLsK48pZZ/fhJkdqGBqNxsrUpz+7p4wh0utjiSXEuXkGjoQqkJAQxzIIlk8k/Zbo8YBjxcjctWbMmxTMgBs3yfiBVYEose2i1skEIoSJMDGLZsvJUW6HalCfuixWqwJRYse6x0PZ9T+LZnV4BAIyxvOpSDIlQoAqc1Q2A1GlcttJo0Hl9AQCQMFY6Lqnrj8gSkWTWYEXaUsTrRsYmLl65KotCwxxLrU0dl26ZMOdvDY+O+43GkuWL5hv1HBEmsH8MCE41tT4AE8snZl46y8fr9TlN55GHUAWmBMMwDy6uP/HGZQCQ0hmMIUGBIF5Tu5ovb0AMNzg4+M/f+KfW1j2hgIAVK1b881f+YnG1UfYMpn7azCvCadmyhpc6j//f7/9w+N4at3q9/qMf+/iXv/wVnudl92Cw/6LkvM3qjUmNPIr1FFqxfn3q5aEKpK3QRBAsEzkIBAPAqretCu1XRMgkW8RSnhhnSqtLHnpcU7lAkd+73/1nr776J0V+CKFNmzcvWrz4L772P86OaHXzt7DGbLqDRoAYjq9erl3y9u//uu33rR1PPPmRLVu2Km/5/f7/+PGPPvmJj8myzJor9Iu2GJe9U/b5SbLYWZMpUj+cRlNvIXX4dh3qq+TH9UySM1AFUhsYGyKLYs9J0dkju51ElhiNfmnT/e6NlMKsIPb7kNasX7wltOdrX/vK3b6+0MtvfvPbH/zQhwDA5XJ96pMff+75X+vnbxb7L4uDF7NeHUZbom1Yj7QlZ06f7u3p+c1vXlD2P/XU//zZT3+ibB88eHD37qc//ek/BwCmxG5c8Wee13/Nm21pBf431JZV+G8p2ybjRIXeeEuwjctxZWZILZdMEUNtYGzEvjPSWJ887iKSCIRgwWdG3vqaSRuVSlg39k1oqu77dt6+fbtr//7QS7PZrMgPAKxW68aNm1pb9wAgvmoJX5G0H5XeYCzDabVNm5C2BACe+fnuJ558MvTWhz/04fAjn9m9+/6njFa+bJ7sS5T/l4sKawhfs032TSAENZrxuB/nuVk+GQhUgbEhWHL1AMFEnJLG66GldcqGTAgmJEFsDhBCsByesv70G2+Ev+/z+c6cOTPl5enTyjZfuYTRJcpxRNJMLsZVPoD4SSv05rlzfb2TdlgUxY6O9vAj+/p6Q51DAEBaQ8QdiKCkdIpxQwitenDulJsgyxpG0jCxH1glKSdELmJoKzQGRJgAgkmUoXt4Wf2LrZNCkmQ5kS1CCDGscOc0X9GEOA0A8FM9M0VRfPe73lk9Z86CBQs4ljt8+NC73v2e0GdZSy0ecMc7Nw4KrCaNQXzWVBXaDgbFr371yz/96U98Pm9PT48Ytb5faPCFSEFx+FZaTdDqyqgHB8bAggZJQYgxd08VCFSBMSFSAAAgauZ9ToW1qtzcP+QGABFjhBDBcrwAedZkkdxOz7HndHUP81ULN23aVFs7t6dnSqDQ3b6+UM+woaEhtB9x8QWGcdIBkqj63K9IXV1dX1/vhQvnYx64afNmu90BhIjDNwPXjxLBy5kTZZqIcGfZ+MjCmIexKPboMVUgUAWmy9uW1v9+31kAkDHWajkiCEgfeywB8Rq+rFz2ewPXDvmvHuIs1b/94f989g/7Og8eu37jRkR6IpPJ9J73vDf0Ek8MxCsAFoOQplOONHKTn7NU2f7s5z534sRxJeA4BMuyCxfMf0fzlo+8a5vvfJs0eodIAqPRcVY7YhP9QjQcQ0LzoggeXT0/rYKVlmTNAb1woQqMT6zZsEcfanr1wJuSjAHAVKrHwQCjjz+axzCssRSMpUSWiOgx+J2f3TD3M49WCyK+6RS6R3y9I+OegGy1l7/vv7y/wl5GxADxu6WxO9JYX7xTElFQZkdSRxy+ggNOpLMjrXHd0qbWF5597fgJwTdh4FG5STvHoq8q5TgWIZZFA+cwy7EGA+ItqXj8hPcS62vtMVKnIQQAmMRoyur1ep6u70kVGBuGA4itwDkV1qf+5j0/+dXBW70jJUYdCQaTrysIgFgOsRzA5LgFj/FSm/Rgg0xkCbAMhEBv10QfgzSapEu+EFHMYG1t2TMEniEiBokYrML4fStsiHEAwyCGBYZFLJuZhx2HiFL9h5bXffz9MSfiFQXGeKPURA0gAFVgTJCiwDhuZ7WVZf/8xXe1HTw/OOIBIFjwp50sdDJlYPolI5hIYsb+qIjXZDF/NpElFmGzWf+ZJzY11MbxBUUIAORYwzDm1HLaFz1UgbFgeABA8dPRsgzz9s3LRUkGACwEcpauFyvzEPkRnIED/vnzKr719fcnOEbJ6IFjPcuoAhXofGAs2EQ2MATPsQBAggLkKmz3fr8rD0RIhADPJUs0qNhAEnknDQYDnYtXoDYwBpMTDCk39rDgZ/TGFA+eDlMUqGpsFJFEIkvJj4tTSLPFHAgE/H6/LMslJSW6FFYaLFaoAmMR8mVhmFTsGw7kRIGEhGYCCSHqxibigD/pMaGZUjlqLHRwcLD/bn/oZV1dXfWc6qQnLEpoKzQ2yq8nxfX3UjUI02OKg1iaExJZBwspKFCjgThTEVieUv7u292zdhVBqsDYII0RAJiUnb9SsQnTBE9RoJr9wBS7vsrMip+k0M4i4JnIWoLGwoIqMDaM0QbKbyi17hZJwSZMEyKGrVKkqgJTMoAshzRaAPBIKfXxAoGAijVSEarA2HCWGgAAhmF0KYWQEllOHEYwXQghYV7UGUzKZ7EkWEiuFsY46fPplFK7gVj90V1VoAqMDVNawWhLAIA1lKZoBme0IRopb/UUiINC0qsjftK5Z0zWB1NphUZUdgLwbcC3QYM2qlXNnEEVGA/ElS8CAGAYtiSlBTqx4J85YeBIA6uaApO3txFiS80AQAgMBFN1PZvi/4ABRAARwlcLLVaoAuPCldUxegsAMDoDSmVIhhAcFJIflhH5YgMJTlpHtsSsRFSMSsYATtX1btbm7aUKjA9CmjkrFc8YzmRBKSw0iQO+GSlJ2Ezg5A6VkudjIZBY/IzeqPScRczdFdNY3HvWruNJFZgIpsTOOxYCACCGNZcl7RCSoEBmYE1mJVdNxD5Vbkjivi6j1SktdkKgO2iJORMYD6pASmz46geUJIKI5bhURDgD4zExRlnVECCRpQTjvUijZU0WZfuuaPbK6XXh0GxNQE4VmAzEaOrWMbweABCvSSrCmWiI4hgKVKEVmsAAMlodZ7YqLfZR2TAspp1+YtaupDtLq50WiNdpGtYjlgdFhBZbvNwwMEMTg9G9PjVGYuKZd8ZQwpom5Tcu63oClgxOLtz+/eDBz0Ts9N5+ydt3OPc1zSVUgSnB6M3ahsdCzqKc1Z5gdBT7s2wGOaudLTWHyz73M/Ixu7iIYTlzGWucnHIYl3W3BFs6C2pMovMccx75iOy/g0oBVQMzZ/KPlPX3d20IDJ/NcWVzCVVgqjBGu7Zxo2IJgWE4cxlbao6ZzA8HA1mPGGR0Bq7MwRpNk1fMuQInW9f3WuCIYVljKVfmCD2JXJL+lmDLrFwlIy8CALIAqgBkANBP/iEjQCWMnPuHHFc2l8zSSZjMYIw23fwtws0jOOgFAEZnYLR6LASw4CfBKU6bOOBjDNlOxYcQYzAyeoPsm5hZD7hoMMaCAJOTDQYACJ+bIYQMiObB9Pt+92smXCcAyBL73aD8ak4rm1uoDUwPpDNpF2y7nwMXIUan58xlET3DrDdEw0qAWGNp4jSeWQcH/MrwK6MzIJYNl18QczcE+6BYmkHjU8FgMGjLVgPEPQHDLUznfAUGVWDaIE6jbXhMU/sQw93Ps4CmOnATLKfivjyNQuR07F5pgnrZ0nG4b+gwYQaCpiuB8gl5WhHudXV1ttVfBQASc4kKAvbF38tlZXMMbYVmCGerZ6210shN7O4lAQ8yVwSnLnKCAz5GWwzJF4gYVOKPnZxjPGA1c3oNkgXCeSQNmfYT3Ga3WawWsG6ds2tv/773EXCjkjBjGITypS+UVO9U+x7MIFSBmYMYji9fAOULlJdYeEVy9oTeJUGBSGKKUfb5DPZ7AUBC3DhrAUDu1KKNUoHX8KFc/fqqtUR0k2Egw1OO0T62KoMzFxC0FZo1NHMeiNiDfV61CzVdiDzZnHZxjiz/WhAsWLCAv7ditu/ukZheBt47+9M6a8FBFZg1uPJGxE9pdmLBPxNuorlEMYAEkJNzTPtkU6ivrw9PGRpPab47HWrfg5mFKjBrIIbVVC+O2FnYZpAQZQxmgjVLKJvpPefUzKmqqgrf4+vZM7nFAPD3/jjw330Ji34A8Hg8d+7ciTjP4OCgmukCsgFVYDbR1CyN2IMDvnRn58VhV9+PXvJf7UnrUzGRx713f/rKxOkrmX0c+73K1P8IV57Fu1RVXTVv3rzwPUF3tzg+uaAasgEz797fXCAEfH2HfD7fhQsXPOOR2Zx6e3q7u7uzWLbcQxWYTRiDhbfXTdlFSOKFoKMZP3beffDU7X/Z7b1wczqF8V25fesffjy278TonqOZfJ4Q2e8FAD9j8LFpRPolpnZubX19fcRO7519oW0UnniVAWSAidt7+/v74yWS6e/vxypFS2YFqsAsw89dEbEH+31p9QYtm1ZrKuzY57/91M/6fviicKc/9c8CAJHxxJmrd771i+5/+nFwcIQx6Msfb86gIiHrPcJVZuXOMCyzcNHC2tra6Ld8vV2TW/qo4flS8PX8KWLBw6kVhuiVgAsIVOjN6DzE89ovsdcVvofRGZTUKSkij3v7fvTixJnJ1qO2prJkxQJ9Y622xs7ZLKwxbD6AENkXkMe8Qv9wsG/Yd+2O98J17J90BjAuX1j9qXfx5ek70BAiOocA4yDSXNMvTdffhWGZiJy8JrOpqakpZnZ6IgevP2NW1i1GDkAR9wkDvgX6TQd6RmLP62i0mtWrVxdueCGdD8w+2toV/itd4XtwwMfojSjlVCisyTj36x+beOPKyB8O+a7cFHoHhN4pq+oyBj0AAMY4ECNrC2K50oeXlO1Ya1hSn9oFI8F+r2IAnVxlBu5mjY2NY2Njw0PDgMBsNldVVZWVxX0K+AZOTC4bHtEEnawqICPofW+azJvH3eORNWVQU2NT4coPqAJnAn7O4sCtE0SY4hoqT7g5iy2t85SsXlSyepE46PScvuK9eFPoHQwOOgHLAIB9kaF6nNWkqS7Xzas0PtBofKCB0U8jyxjGSt9VQryTt6f7aY7nbDabw+FobGxECCWVx/15CH2c32MJ+O90PvBnXzhz5kzAP8XXb86cORarJfOa5gFUgdkHMZx27qrAtSPhO4kYxII/6RK50fAVZWUt68pa1gEAkWRxdEyeCBAhCACIYxmDltHr2BI9o83abIHs9ShDoMN8VQZ+ZxUVFUrAe4ph776ezsn7Fie4AhnB3/3HoM8ZIT8AGBsbmzt3brYqrgpUgTOCpnap0H2KiFN+MfLEOKPRTcepGnGspsIGFTNYciKJyhygiDQu3pFBQpqKijTKJ030B52TQ7Uo3vJTCJABRq62AUQ2qic8E6IohhxrChE6FjojIJbXzotyaMRY9rjVLloSQiUc5qszWCLNYrWktRigt/fA5JYuoTkoAe+dzpjvjI2NqXOnsgRV4EyhmbscaSOf6ljwp7LsiVrIXo+SmDTA6F18er1Wheqq9JYB9N7Zq2yghPG9yADE2REzRZzL6YJChipwpkAsr2taF71f9rhzsNhgBhAxiO85D/TxcyF9A2gwGNIbFyGyr28y/j2xAgEBo+1nAzFcFMbcYwU9o0YVOINoqhYxpVH+XITIbpfqS3BGFgrL0vikMRnjbAE21fUewkl3HVz/4GksDAIka4IqlIJm/FT0bkmUPJ4CXnuQKnAmQUi/cH30biJLktul7hqAUwtEZLdTmQCUETfI12RwDl7D2+3pTV14ew5M3qcUUswgPWi9R2K+VdBdQarAmYWzztHUPBi9n4hBye3MCxESIrlHyT23rz5+roQyGVqsrqpON+uut2cy8igVBQIAz55G8nj0fqfTmcP7lWWoAmcc3fz1jD6GZ/M9EaraHMVYGhsNrQ06xtk8XCY5oHgNX1mVnvuoHHAKQ3sBUmuCAgAAKgWN53T0fp/XFwzmNnlc9qAKnHEQxxuW7gQU41YTMSi57tufHEMkURobCa3K5Gd0/Zp5mZ1qzpw56S694u09NHl/og0gBoj5XNKBJk5D1OUq1BFRqsBcwJor9Ys2xXyLyJI0NqKEoucS7JuQXKNEngzakBDXo12AM/o9aLSaysq04yeUeQhd1TuiFciCBsVsnmPQktaY6qQKpCRBU/Ogdt7K2O8RIk+MS66R3OThJUFBcg7LXk9oeg0Dc0c7X8w0Cr62tjb9dVeIr3cPwxvNDz4e3QRldWsZpgqiQo4C0jbGCJzvrejTjY2NFWiUIFVg7tAtWK+pXRrvXSKJ0tio5HaSGVqIlxAc8EuuEcntDJ+QxMB06xb4GWNmZzUYDeXlaUfQE1kk4mjpgr/E8jgAkKmeQlrTKo32URL1OJLYRoyAITHMHZbx+Pg4FCBUgTlFv2izdu7yBAeQoCC5ndLokDwxToLC9AdLiSzjgF/2jImjg7JnLGItXhHxt3QL/UzmCecbGhoyCA5CrMa66inrss9KQSfxAUx1EzLYN+rMGyNtoAwMGR8zPh00rot5zgKdk6Ce2blGt3Aj0lsCVw8nGAUlWCZ+r9I5RDyPOB6xHGI5YFmEGIjX5MOYEAwYE1kisgyyREQxQXi+lynp1TZmNvegUFFZYTJlmMDCtvIvAQDd0ZFRQFNDqYyVzUg6BOE2UIIJ9HmEghK/KN4JXU5XXV1dxnVRC6pAFdDOXc6ZK32XOvFE8oksIookOgsDQihMhwTjtKwlBjTCzxnWVGTgena/Fjrt9H/xOtMKCAKExWwhGRjOwJXWEvF+aLAs63yWJwASDRr7/X5BELTaaQRGqgFthaoDa64oWfMhXdOjiMto/IMQIsuhv7Tk52MMN3QPDPOV05EfIJg/f/70F38vmdfc+FFnxcMvGfQf4vACCALLPggAmtJaJAFIIAeNQnCDR/cUACQ1GIU4NU/zxKgMEQPBnvNCzzkSnLHllqZyS9Po46zTPEldfV11dXpeoCnfETw5d0rwmTPn/P4YoSQGg8Hni3G7rGXWxYsXJ7tAfkFboSqDeJ224WFt/WpxpFsavB7szzC3Zy6pqKyYKfkBhFwXhKDo9/sNRgPGOCI63lpmjVagVqdV5iQKa0n6QiprMYMY3tGgf3B7ZnPiucRmt4WWW5lRlLHNmNkNzSYzy0U2gKsqqziOi87mlOfk+/dNySvsdvv8+fNzk5tMp9NpddqysrLoZKEGoyF6xAUTXFVVZTRmOLGpFrQVSkmVOTVzIrLNzyhms3nx4sUIIVmeMqHCcqxGo9HpdD7v/Yaoo9xBCIlpMPMcqkBKcjiea2pqSpDzc4YwGAwAEJGvXrFyU2wggoaGBkGYGV+iGYYqkJIQBOXl5fPmzVMxH9mSJUucLqfH4/H5fAQTRZYhBWp1WovFwrKssr/goAqkJMJhdzQ1NalbBovVoqSfIYQIgqD0Qh12h8Vi0el0hTXyGQ1VYAGQbrLtxPD+dGII8ikfPEIolAqR1/C8poDThIagCiwAEJ/N1TOZwPTPQckahW3BKZRChyqQQlETqkAKRU2oAvOFHDvIM9x0wxooWYGOxKiPRMioJLoBzADZHHKJD8Nz9uXLAOPg8Ii7ry/eEu2UHEBtoJpgjF1B4YYsuRDCCLkQCtasyMF17YsXSSwr8TxTXWVfvcrusBf6rFrhQu+7OhBC/H6/1+tFQTHcALmb3oZNM7k+IIC2aZmkvx+UzhOoqqpavGSxo9yh9l2ZjdBWaNYQBOHC+Qtnz545d/acz58o3NY74WVZ9l+/9129Xs8SopNxgJ18FGKEnMveYTv+SyTNSOZCwVIrOqaE9hlkGQAYhrl86dJzv3wu4nhew+v1egDgeX7x4sXLV6xYsXyF2WJW7zYXG1SB0yIQCJw7e+7UqZOnTp66cOGClE726317973jne8AAIMshxQIACKv8Sx/t+mNF7JeWqwpGZmzMtzkMoTo7kUevPTiS9euXUvw8ePHjisbjY2NDz380EMPPbT6oYes1umG289yaJaKtMEYX7l85dix144fO3727Nm0VBfOypUr/+3fvw8ABGBAp8VTg+4sPRf01w8r27yjKgvlRszQgh0BfkpYXYkkm0URAAb6Bz7w+OPp/hgQQgsXLly7bu0ja9euWLFCo8nNQFJRQW1gqng8nteOHj148OBrR19zu7OwGPW5c+eGh4Yd5Q4EYJDxxNTpAXfNA/xYDzfSna3yj819JEJ+AKC/ZwA7OzszeBYTQq5cuXLlypVndj+j1WofWbt206aN6zdssNmy6cha3FAbmITh4eHOjo6u/V1nzpyJCBWdPp/93Oc+/MSHASDIMMPaSAPCyrLj+HMo6Ju+DfTbFg5XRaYw4gkpD0zG1H3kySdvd9/OSqUQQkuXLd20aXPLrpYM1pOYbVAFxsbtdu/t3Nve1nbq1KmZu0WNjY3PPPtzZXtIpxWjsj/o/B7r8eemqUDJYBuofwxHndwsSiWSBADXrl775Cc+kfXaIYRWrlrVsqulubnZbKaDN7GhCpwCIeTkyZMvvfhi1/6ujDt4afHzZ59taGwAgAmOc/MxOgWmwZuW4TczvwDDDSzcGWRjnLkyILCEAMAP/v3fX/jP7A/8hOB5vnl78wc+8MFly5fN3FUKFKrASQghHR0du59++upbV3N53SeeeOIzn/ssAMgIDehi53su7zurc3Vndv7Rxi3eWOuH6mRsCwYBAGP8vve8d3R0NAeVXbVq1Z9/5jNrHlmTg2sVCnRGHgDg2rVrH3niya9/9Ws5lh8AdHR2KA9BZWIw5jEjVcuwNpPlGSYql8eUH4SNwZx+443cyA8ATp8+/dnPfOYvv/CFoaGh3Fwx/6EKhL2dnU8+8eTFixezcjaMsRiLYBz6evvOnD6jfFYfZ6QHM8zQvEchTcexYGmVy14f8y2G3L9W657WiCKJcZBlOSstpiOHj7z33e9pbW31eDxZuecFDfuNb3xD7TKoSUdHx9e/9vVpdvlkWZZlWZGZJEk4TViO3bBxIwBwhHg5LuZqDjLLyTq73n0nxSIRXj9U/xhGsUVrkGU9xgAQDAa/8Y1/EgQhlXLKsixJkizLylqZCKGME4eKonj40GGdTk8IkSRJo9GomAlKXWa1DTx58uTf/+3fZbb2qmLrAoGAz+cTBEEUxYzXcN3buVcURQBA8c0gAEyU2nyOVBdFGKnfIDFx448M965y4MCB8KybKVZckiRBEPx+fyAQCAaDmU3SBIPBn/7kJxcvXuzt6T1z+szZs2cHBgayPt+T/8xeBfb29n75r/8mLeunPLAFQfD5fIFAYDqqC2diYuLwoUPKtiHhT3C0fIFoTO4/PV67xq/Rx3uXI0Rzr9itr+6ZTslDaszshgSDwZ/+x0+UPqHP67t54+apU6du374tRq/WVrzMUgUKgvClv/piiuseh8yd3+/P+JGfmNY9rcqGBmMufl+LIDRc+zZgEy2RF7A2jJkTzR8apcnyu93uY8eOZasK4XcpdSl6vd4f/+hHAWEye5QsyX29fadPn7579+4sGaWfpQr8zre/ff369cTHKD8ppa2VLXMXj6NHj4aGJUIKiYnE8UNzH41bZp15tHopJOS+J1pH50zMeRJC0pLi0NDQL559NlxvsiR33+q+fPnybGiUzkYFdu3v+u1Lv433rtLUDAQCivBy8yQOBoN7O/cq2/pkP7uA0TReuSLGGwwzXPeonHB0RIcxe69Ge/ZMqwmalJAUA4FAYqmfO3vu0OFDETvHXGMXL17MjV+Eisw6BY6Pj/+vp56K+RYhJBgMKk3NGbV4MWltnWyIsoRok13dba8TzDURO53z1gvJVuTV3zOwd/v6zr85DVebdMAYKzc2wRPtdy+/Mjg4GLFzwjNx5cqV3H8XuWTWKfD/fOc70RPQIe2p+MQ9e+ZM6CdokJKYQQIwXL2SaO6v1OUrXzJhTBKqFz7W2tbWluOOVsgkxhxoCQaDzz77rIwjKz7uHr9x/UYuy5ljZpcCDx8+/Mc//DFiJ8Y4aTMpB2CM2+6ZQb0sJ51owyw7UPuo8g2KRseoY37SSxjCTrtneqOgGRPSYbT+b3d3t7e1RX9keHj4bt9dVUqbA2aRAgOBwP9+6n9F7MQYC4KQJ8NuoY4ZSjYtoSDqDR7LAsSw7qqVJIXJ8VAT9PLly93d3SrWVHnqRd/21j2tfXf7oo/vvt2d4sB1wTGLFPj0//t/AwMD4XuUtXjyRH4AcOP6jVCeCH2yhigA6GVZXzZvQqoxAZtUf1xY9zI0+aEihJBoEWKMf/2rX5Ho5KkErl27pno7ZSaYLQrs7en5xbO/iNiZV/JTCGlDm3BiEAAQgFmUEIB4u48lxCQm+XWG+pYY45iNvdyjPAEjdt66eevokSPRBwsB4datW2oXOfvMFgV+59vfCQanZB9TnCHVLlck4QMkicdjSkWJJcT18ssDT/2z7HQaJYlPqNjQGMzrJ17PWTBEUpReQMTO3//u9+OeGG3O4aFhp9OpdpGzzKxQ4NEjRw4dmjLdpHgYq12uGAwNDr5x6g1lO8HEIEdIiSTJbvfoD7+PJzxD//Y9BGAOxnXmCreooWmPPEFxag/f4/P5Xv5t7Anb69evF5nPWvErEGP8ve9+L2JPhD3MK0LjMVz8iUGzKCKA4X//vjzuBoDxPX/0nzunxTje+E2oVykIQtf+/WpXMRIl9Cl8z8nXT968dTP6SEmUbt/OTj6bPKH4FfiHP/whwgEtn+UHAPv37QuVMOZ4jF6WdTL2X7zo/sPvJncRMvjNfwGMTaIUPSQTPrJ68MABny+9YIjcEAwGI/rkv33xpZi99KHBoWIaFy1yBQqC8OMf/ih8z0x7eE6fiFCJCEUpAzD3JHdfn8K1K64XXog5JBM+uzjTnmgZozhFhO/p7u4+depkzINv3riZb0NoGVPkCvzV88+HJ0RQnK3VLlRyQl216IhBkzIA89JLwuULEZ8a+Y8fyqOjJZLET10LKTSiMzY2Fsp7nYcogc7he155+ZWgGKPB4vP5imaOvpgV6PF4dj+9O3xPnrc/Q7x29LVQQyt8RJQjxChJsss18uMfRH8KT3iGvvuvAGAOe8qEe5nOUDBEFoloi7rd7n33HNYj6OntEYMF8DBNSjEr8NmfPzsxMRF6qeSPULtQKREMBvfunfzlacOiGczByQEYPB47afd4+x7f6dPhQzLGMKvSmq9N0BDRbdGOzk7PRIx0MljGt+8Uw5BM0SpwbGzsV88/H3qpuCOqXag0aAtzW1FUpJdlHcb+8+fdf/xd3I8RMvitKUMyobGcvr6+8+fPq12t5ES0RYOC0BbHg2doaMjr9apd3ulStAr8xbPP+v3+0MucRfplizNnzoR86PSSrAzAEIwH/+V/Q8KKBG9cc/761ywhJlGcMg24p7VQ7kCEGTx8+HBsFwICReAlU5wKdDqdv/n1b0IvlXQmahcqPQghba2TvmMcITYhyBLS9dJLwtXLST87+tMfj4+Olkhyadi4aGtrvjdBw+se3mCRZflPf/xjzCPH3eMul0vt8k6L4lTgM7t3RxhAtUuUCeEzB1qMnU7nt37wQxGSx0CI3onv/Z//q3xK2XPp0qVsLcySGyLaLCdPnowZMwEAt2/fLhTbHpMiVODY2Fh4EoroMe5C4eaNG1ev3s/h/W/f+7fRiYmrKSjwKqA/tLefOnkqtKctD4Ih0iW8LUoI+dMfYptBn9c3MjKidmEzpwgV+PxzzxWBAVQIxeyeO3tuz6uvAsC5FEZz38AIAL79rW8pjx6McXt7u9pVSZtQamCFN998s6cndsLiO3fuFMoodzTFpkCPxxPeA4z4FguOttY2QgjG+Fvf/KbS1nozBRt4GhAA3Lx581fP/wryLBgiLSKGZOLF9QsBITrHTKFQbAp88YUXwucAC2UKPh5DQ0NvnHrjxRdeCDVHewDGEorwLqDQj/FnP/vp8PCwYjwLkYghtARmsLe3t0AftUW1elkgENi5Y4d7bHK2WpKkQlcgADy2/rGzZ86GP1Y+HfA6sBxvSKaH5X6jvZ8we+OmTSdffz0/vbFTASGk19+vztKlSz/7uc/FPLKuvq66ulrt8qZNUa0j/7tXfheSHxR4DzDEkcNTAsY1hNRJwQRNF55gCFPgwQMH1K7BtFBmJkLrupw/f76n505t7dzoI/v6+iorK5k0V5hSnQIrbgJkWf7lL+7noZAkqZjMe4h5spz4Oysl2FqY7bF4RHyVe+KM64pBcaB/INWT5g3Fo8DOjo67d+/7yxeHAYymXk7uWjCvMGdf4qFkMQ+9PP/mmwMD/TGP7O0rvN5g8Sjw2Z8/G9ouVgMIAPU4+ZNlXgoqLSzCJ+gJIfHMoCRKEenw8p8iUeDxY8evXLkSelmsBpADqLmnrlKNptJoDP+rMBrLjcZyo3EjXyRfazjh3+mZ06eHhmOvg93X11dYZrBIvqrnnnsutF3EBrBWlkJDZwae17Bs+J+WZXUsq2PZco7VF90dCP9aMcadHZ0xDxODYmEtUl8MCuzu7g7PMFmsBhDCOoEIIS0bd4lchNDDBWUHUiT8m339xInxOEGSfX19BfQILgYFKp4fCrIsF9DdT5f6e0MsuvjyU1gORajAcDMoSdKBrgMxDxMCQgF5iha8AsfHx8NDV4rYADIAc+8Nw2iSKbCh4L/Y2IR/v4cPHw4tvhtBX29fqmdUm4L/ol55+ZWQH3ahe4EmZo4sa+5ZAB2XxJWijEEF/9XGItwM+ny+144cjXmYz+cbc42pXdiUKOyvSZbl3/zm16GXRWwAYWonMKkN5BBaiItqVjBE+Le8f/9+OU4148UT5huFrcCu/ftDbhAY4yI2gABQjycVqGWTr5QEAA+T4rwb4WbQ5XKdfuONmIe5x9zhzrR5S2Er8Pnn7udiKm4DiMLm2bXJDKDCQlS0I1LhLjKdHZ3xxt4KIqdoASvw0sVLZ8+eVbYxxgUaCJ8ilVjW37Np2mSdQIWKQvNRTp1wM9jX1xfujBHOyOhIIBBI47xqUMBfUngywoJLxJQu9feSDqKUbaCeQfYinZiJ8BTt7OiIcxyEuwrnJ4WqQKfT2XHvvkd8H0VJ3b0mqCa1TqDCWly0tyX8G3/rrbd6+3pjHjY4OJjn3ZNCVeDvf/e70J0tevkBQMO9mcAUm6AKDxZvVzDisXugqyv2YZjkeQKLglQgxvilF18KvSx6BdoxNoY6gak1QRVqUOr2svAIN24nXz8ZM7k9APT39+fzIHlBKvDo0aOh9n0R+2GHaAiLNkrqjxaOmUFatQs/c4SbQUmSjhw6HPMwMSjmc6KqglTgi//5Qmi76A0ghHUCtSyL0jFrCKHVefz4nz7h3/6hw4elOIGR+Twe8/8BCevoT1LumWMAAAAldEVYdGRhdGU6Y3JlYXRlADIwMTctMTItMjBUMTE6MTg6NTgrMDE6MDCLPExeAAAAJXRFWHRkYXRlOm1vZGlmeQAyMDE3LTEyLTIwVDExOjE4OjU4KzAxOjAw+mH04gAAABl0RVh0U29mdHdhcmUAQWRvYmUgSW1hZ2VSZWFkeXHJZTwAAAAASUVORK5CYII=;" vertex="1" parent="1">
          <mxGeometry x="900" y="1771" width="368" height="352" as="geometry" />
        </mxCell>
        <mxCell id="B5NhInNvNg8OOwda5CNB-347" value="&lt;font color=&quot;#000000&quot;&gt;Repository&lt;/font&gt;" style="html=1;fillColor=none;strokeColor=none;fontSize=20;align=left;fontColor=#596780;whiteSpace=wrap;sketch=1;hachureGap=4;pointerEvents=0;fontFamily=Architects Daughter;fontSource=https%3A%2F%2Ffonts.googleapis.com%2Fcss%3Ffamily%3DArchitects%2BDaughter;labelBorderColor=none;" vertex="1" parent="1">
          <mxGeometry x="1540" y="2470" width="269" height="20" as="geometry" />
        </mxCell>
        <mxCell id="B5NhInNvNg8OOwda5CNB-348" value="&lt;font color=&quot;#000000&quot;&gt;Collaborators&lt;/font&gt;" style="html=1;fillColor=none;strokeColor=none;fontSize=20;align=left;fontColor=#596780;whiteSpace=wrap;sketch=1;hachureGap=4;pointerEvents=0;fontFamily=Architects Daughter;fontSource=https%3A%2F%2Ffonts.googleapis.com%2Fcss%3Ffamily%3DArchitects%2BDaughter;labelBorderColor=none;" vertex="1" parent="1">
          <mxGeometry x="2008" y="2470" width="161" height="20" as="geometry" />
        </mxCell>
        <mxCell id="B5NhInNvNg8OOwda5CNB-349" value="" style="shape=line;strokeWidth=2;html=1;strokeColor=#DFE1E5;resizeWidth=1;sketch=1;hachureGap=4;pointerEvents=0;fontFamily=Architects Daughter;fontSource=https%3A%2F%2Ffonts.googleapis.com%2Fcss%3Ffamily%3DArchitects%2BDaughter;fontSize=20;labelBorderColor=none;fontColor=#000000;fillColor=#66B2FF;gradientColor=#3399FF;" vertex="1" parent="1">
          <mxGeometry x="1540" y="2490" width="840" height="10" as="geometry" />
        </mxCell>
        <mxCell id="B5NhInNvNg8OOwda5CNB-350" value="&amp;lt;/&amp;gt;" style="rounded=1;arcSize=5;fillColor=#59ADDF;strokeColor=none;fontColor=#ffffff;align=center;verticalAlign=middle;whiteSpace=wrap;fontSize=12;fontStyle=1;html=1;sketch=0;hachureGap=4;pointerEvents=0;fontFamily=Architects Daughter;fontSource=https%3A%2F%2Ffonts.googleapis.com%2Fcss%3Ffamily%3DArchitects%2BDaughter;labelBorderColor=none;" vertex="1" parent="1">
          <mxGeometry x="1540" y="2510" width="40" height="40" as="geometry" />
        </mxCell>
        <mxCell id="B5NhInNvNg8OOwda5CNB-351" value="&lt;font style=&quot;font-size: 20px&quot;&gt;HajarCubs&lt;/font&gt;" style="html=1;fillColor=none;strokeColor=none;fontSize=12;align=left;fontColor=#000000;whiteSpace=wrap;fontStyle=1;sketch=1;hachureGap=4;pointerEvents=0;fontFamily=Architects Daughter;fontSource=https%3A%2F%2Ffonts.googleapis.com%2Fcss%3Ffamily%3DArchitects%2BDaughter;labelBorderColor=none;" vertex="1" parent="1">
          <mxGeometry x="1590" y="2516" width="346" height="34" as="geometry" />
        </mxCell>
        <mxCell id="B5NhInNvNg8OOwda5CNB-352" value="" style="shape=mxgraph.ios7.icons.user;fillColor=#ffffff;strokeColor=#253858;sketch=1;hachureGap=4;pointerEvents=0;fontFamily=Architects Daughter;fontSource=https%3A%2F%2Ffonts.googleapis.com%2Fcss%3Ffamily%3DArchitects%2BDaughter;fontSize=20;labelBorderColor=none;fontColor=#000000;" vertex="1" parent="1">
          <mxGeometry x="2051" y="2514" width="24" height="24" as="geometry" />
        </mxCell>
        <mxCell id="B5NhInNvNg8OOwda5CNB-353" value="" style="shape=mxgraph.ios7.icons.user;fillColor=#ffffff;strokeColor=#253858;sketch=1;hachureGap=4;pointerEvents=0;fontFamily=Architects Daughter;fontSource=https%3A%2F%2Ffonts.googleapis.com%2Fcss%3Ffamily%3DArchitects%2BDaughter;fontSize=20;labelBorderColor=none;fontColor=#000000;" vertex="1" parent="1">
          <mxGeometry x="2032" y="2514" width="24" height="24" as="geometry" />
        </mxCell>
        <mxCell id="B5NhInNvNg8OOwda5CNB-354" value="+6" style="rounded=1;arcSize=5;fillColor=#F0F2F5;strokeColor=none;fontColor=#596780;align=center;verticalAlign=middle;whiteSpace=wrap;fontSize=10;fontStyle=0;html=1;sketch=1;hachureGap=4;pointerEvents=0;fontFamily=Architects Daughter;fontSource=https%3A%2F%2Ffonts.googleapis.com%2Fcss%3Ffamily%3DArchitects%2BDaughter;labelBorderColor=none;" vertex="1" parent="1">
          <mxGeometry x="2082" y="2517" width="18" height="18" as="geometry" />
        </mxCell>
        <mxCell id="B5NhInNvNg8OOwda5CNB-356" value="" style="rounded=1;arcSize=5;fillColor=#EA4232;strokeColor=none;fontColor=#ffffff;align=center;verticalAlign=middle;whiteSpace=wrap;fontSize=12;fontStyle=1;html=1;sketch=0;hachureGap=4;pointerEvents=0;fontFamily=Architects Daughter;fontSource=https%3A%2F%2Ffonts.googleapis.com%2Fcss%3Ffamily%3DArchitects%2BDaughter;labelBorderColor=none;" vertex="1" parent="1">
          <mxGeometry x="1540" y="2555" width="40" height="35" as="geometry" />
        </mxCell>
        <mxCell id="B5NhInNvNg8OOwda5CNB-357" value="" style="shape=mxgraph.signs.science.nuclear_1;fillColor=#ffffff;strokeColor=none;sketch=0;hachureGap=4;pointerEvents=0;fontFamily=Architects Daughter;fontSource=https%3A%2F%2Ffonts.googleapis.com%2Fcss%3Ffamily%3DArchitects%2BDaughter;fontSize=20;labelBorderColor=none;fontColor=#000000;" vertex="1" parent="B5NhInNvNg8OOwda5CNB-356">
          <mxGeometry x="0.5" y="0.5" width="20" height="18" relative="1" as="geometry">
            <mxPoint x="-10" y="-9" as="offset" />
          </mxGeometry>
        </mxCell>
        <mxCell id="B5NhInNvNg8OOwda5CNB-358" value="&lt;font style=&quot;font-size: 20px&quot;&gt;a11y-dashboard&lt;/font&gt;" style="html=1;fillColor=none;strokeColor=none;fontSize=12;align=left;fontColor=#000000;whiteSpace=wrap;fontStyle=1;sketch=1;hachureGap=4;pointerEvents=0;fontFamily=Architects Daughter;fontSource=https%3A%2F%2Ffonts.googleapis.com%2Fcss%3Ffamily%3DArchitects%2BDaughter;labelBorderColor=none;" vertex="1" parent="1">
          <mxGeometry x="1590" y="2561" width="346" height="20" as="geometry" />
        </mxCell>
        <mxCell id="B5NhInNvNg8OOwda5CNB-359" value="" style="shape=mxgraph.ios7.icons.user;fillColor=#ffffff;strokeColor=#253858;sketch=1;hachureGap=4;pointerEvents=0;fontFamily=Architects Daughter;fontSource=https%3A%2F%2Ffonts.googleapis.com%2Fcss%3Ffamily%3DArchitects%2BDaughter;fontSize=20;labelBorderColor=none;fontColor=#000000;" vertex="1" parent="1">
          <mxGeometry x="2071" y="2559" width="24" height="24" as="geometry" />
        </mxCell>
        <mxCell id="B5NhInNvNg8OOwda5CNB-360" value="" style="shape=mxgraph.ios7.icons.user;fillColor=#ffffff;strokeColor=#253858;sketch=1;hachureGap=4;pointerEvents=0;fontFamily=Architects Daughter;fontSource=https%3A%2F%2Ffonts.googleapis.com%2Fcss%3Ffamily%3DArchitects%2BDaughter;fontSize=20;labelBorderColor=none;fontColor=#000000;" vertex="1" parent="1">
          <mxGeometry x="2051" y="2559" width="24" height="24" as="geometry" />
        </mxCell>
        <mxCell id="B5NhInNvNg8OOwda5CNB-361" value="" style="shape=mxgraph.ios7.icons.user;fillColor=#ffffff;strokeColor=#253858;sketch=1;hachureGap=4;pointerEvents=0;fontFamily=Architects Daughter;fontSource=https%3A%2F%2Ffonts.googleapis.com%2Fcss%3Ffamily%3DArchitects%2BDaughter;fontSize=20;labelBorderColor=none;fontColor=#000000;" vertex="1" parent="1">
          <mxGeometry x="2031" y="2559" width="24" height="24" as="geometry" />
        </mxCell>
        <mxCell id="B5NhInNvNg8OOwda5CNB-363" value="JS" style="rounded=1;arcSize=5;fillColor=#F1DD3F;strokeColor=none;fontColor=#000000;align=center;verticalAlign=middle;whiteSpace=wrap;fontSize=12;fontStyle=1;html=1;sketch=0;hachureGap=4;pointerEvents=0;fontFamily=Architects Daughter;fontSource=https%3A%2F%2Ffonts.googleapis.com%2Fcss%3Ffamily%3DArchitects%2BDaughter;labelBorderColor=none;" vertex="1" parent="1">
          <mxGeometry x="1540" y="2600" width="40" height="32" as="geometry" />
        </mxCell>
        <mxCell id="B5NhInNvNg8OOwda5CNB-364" value="&lt;font style=&quot;font-size: 20px&quot;&gt;aac-sac&lt;/font&gt;" style="html=1;fillColor=none;strokeColor=none;fontSize=12;align=left;fontColor=#000000;whiteSpace=wrap;fontStyle=1;sketch=1;hachureGap=4;pointerEvents=0;fontFamily=Architects Daughter;fontSource=https%3A%2F%2Ffonts.googleapis.com%2Fcss%3Ffamily%3DArchitects%2BDaughter;labelBorderColor=none;" vertex="1" parent="1">
          <mxGeometry x="1590" y="2606" width="346" height="20" as="geometry" />
        </mxCell>
        <mxCell id="B5NhInNvNg8OOwda5CNB-365" value="" style="shape=mxgraph.ios7.icons.user;fillColor=#ffffff;strokeColor=#253858;sketch=1;hachureGap=4;pointerEvents=0;fontFamily=Architects Daughter;fontSource=https%3A%2F%2Ffonts.googleapis.com%2Fcss%3Ffamily%3DArchitects%2BDaughter;fontSize=20;labelBorderColor=none;fontColor=#000000;" vertex="1" parent="1">
          <mxGeometry x="2071" y="2604" width="24" height="24" as="geometry" />
        </mxCell>
        <mxCell id="B5NhInNvNg8OOwda5CNB-366" value="" style="shape=mxgraph.ios7.icons.user;fillColor=#ffffff;strokeColor=#253858;sketch=1;hachureGap=4;pointerEvents=0;fontFamily=Architects Daughter;fontSource=https%3A%2F%2Ffonts.googleapis.com%2Fcss%3Ffamily%3DArchitects%2BDaughter;fontSize=20;labelBorderColor=none;fontColor=#000000;" vertex="1" parent="1">
          <mxGeometry x="2051" y="2604" width="24" height="24" as="geometry" />
        </mxCell>
        <mxCell id="B5NhInNvNg8OOwda5CNB-367" value="" style="shape=mxgraph.ios7.icons.user;fillColor=#ffffff;strokeColor=#253858;sketch=1;hachureGap=4;pointerEvents=0;fontFamily=Architects Daughter;fontSource=https%3A%2F%2Ffonts.googleapis.com%2Fcss%3Ffamily%3DArchitects%2BDaughter;fontSize=20;labelBorderColor=none;fontColor=#000000;" vertex="1" parent="1">
          <mxGeometry x="2031" y="2604" width="24" height="24" as="geometry" />
        </mxCell>
        <mxCell id="B5NhInNvNg8OOwda5CNB-368" value="&amp;lt;/&amp;gt;" style="rounded=1;arcSize=5;fillColor=#59ADDF;strokeColor=none;fontColor=#ffffff;align=center;verticalAlign=middle;whiteSpace=wrap;fontSize=12;fontStyle=1;html=1;sketch=0;hachureGap=4;pointerEvents=0;fontFamily=Architects Daughter;fontSource=https%3A%2F%2Ffonts.googleapis.com%2Fcss%3Ffamily%3DArchitects%2BDaughter;labelBorderColor=none;" vertex="1" parent="1">
          <mxGeometry x="1540" y="2645" width="40" height="32" as="geometry" />
        </mxCell>
        <mxCell id="B5NhInNvNg8OOwda5CNB-369" value="&lt;font style=&quot;font-size: 20px&quot;&gt;3rd_library&lt;/font&gt;" style="html=1;fillColor=none;strokeColor=none;fontSize=12;align=left;fontColor=#000000;whiteSpace=wrap;fontStyle=1;sketch=1;hachureGap=4;pointerEvents=0;fontFamily=Architects Daughter;fontSource=https%3A%2F%2Ffonts.googleapis.com%2Fcss%3Ffamily%3DArchitects%2BDaughter;labelBorderColor=none;" vertex="1" parent="1">
          <mxGeometry x="1590" y="2651" width="346" height="20" as="geometry" />
        </mxCell>
        <mxCell id="B5NhInNvNg8OOwda5CNB-370" value="" style="shape=mxgraph.ios7.icons.user;fillColor=#ffffff;strokeColor=#253858;sketch=1;hachureGap=4;pointerEvents=0;fontFamily=Architects Daughter;fontSource=https%3A%2F%2Ffonts.googleapis.com%2Fcss%3Ffamily%3DArchitects%2BDaughter;fontSize=20;labelBorderColor=none;fontColor=#000000;" vertex="1" parent="1">
          <mxGeometry x="2051" y="2649" width="24" height="24" as="geometry" />
        </mxCell>
        <mxCell id="B5NhInNvNg8OOwda5CNB-371" value="" style="shape=mxgraph.ios7.icons.user;fillColor=#ffffff;strokeColor=#253858;sketch=1;hachureGap=4;pointerEvents=0;fontFamily=Architects Daughter;fontSource=https%3A%2F%2Ffonts.googleapis.com%2Fcss%3Ffamily%3DArchitects%2BDaughter;fontSize=20;labelBorderColor=none;fontColor=#000000;" vertex="1" parent="1">
          <mxGeometry x="2031" y="2649" width="24" height="24" as="geometry" />
        </mxCell>
        <mxCell id="B5NhInNvNg8OOwda5CNB-372" value="+6" style="rounded=1;arcSize=5;fillColor=#F0F2F5;strokeColor=none;fontColor=#596780;align=center;verticalAlign=middle;whiteSpace=wrap;fontSize=10;fontStyle=0;html=1;sketch=1;hachureGap=4;pointerEvents=0;fontFamily=Architects Daughter;fontSource=https%3A%2F%2Ffonts.googleapis.com%2Fcss%3Ffamily%3DArchitects%2BDaughter;labelBorderColor=none;" vertex="1" parent="1">
          <mxGeometry x="2081" y="2651" width="20" height="20" as="geometry" />
        </mxCell>
        <mxCell id="B5NhInNvNg8OOwda5CNB-374" value="" style="shape=line;strokeWidth=2;html=1;strokeColor=#DFE1E5;resizeWidth=1;sketch=1;hachureGap=4;pointerEvents=0;fontFamily=Architects Daughter;fontSource=https%3A%2F%2Ffonts.googleapis.com%2Fcss%3Ffamily%3DArchitects%2BDaughter;fontSize=20;labelBorderColor=none;fontColor=#000000;fillColor=#66B2FF;gradientColor=#3399FF;" vertex="1" parent="1">
          <mxGeometry x="1550" y="2690" width="830" height="10" as="geometry" />
        </mxCell>
        <mxCell id="B5NhInNvNg8OOwda5CNB-380" value="" style="shape=image;html=1;verticalAlign=top;verticalLabelPosition=bottom;labelBackgroundColor=#ffffff;imageAspect=0;aspect=fixed;image=https://cdn4.iconfinder.com/data/icons/evil-icons-user-interface/64/plus-128.png;labelBorderColor=none;fontFamily=Times New Roman;fontSize=20;fontColor=#000000;strokeColor=#0066CC;strokeWidth=2;fillColor=#66B2FF;gradientColor=#3399FF;" vertex="1" parent="1">
          <mxGeometry x="2320" y="2510.5" width="31" height="31" as="geometry" />
        </mxCell>
        <mxCell id="B5NhInNvNg8OOwda5CNB-382" value="" style="shape=image;html=1;verticalAlign=top;verticalLabelPosition=bottom;labelBackgroundColor=#ffffff;imageAspect=0;aspect=fixed;image=https://cdn4.iconfinder.com/data/icons/evil-icons-user-interface/64/plus-128.png;labelBorderColor=none;fontFamily=Times New Roman;fontSize=20;fontColor=#000000;strokeColor=#0066CC;strokeWidth=2;fillColor=#66B2FF;gradientColor=#3399FF;" vertex="1" parent="1">
          <mxGeometry x="2320" y="2552" width="31" height="31" as="geometry" />
        </mxCell>
        <mxCell id="B5NhInNvNg8OOwda5CNB-383" value="" style="shape=image;html=1;verticalAlign=top;verticalLabelPosition=bottom;labelBackgroundColor=#ffffff;imageAspect=0;aspect=fixed;image=https://cdn4.iconfinder.com/data/icons/evil-icons-user-interface/64/plus-128.png;labelBorderColor=none;fontFamily=Times New Roman;fontSize=20;fontColor=#000000;strokeColor=#0066CC;strokeWidth=2;fillColor=#66B2FF;gradientColor=#3399FF;" vertex="1" parent="1">
          <mxGeometry x="2320" y="2596" width="31" height="31" as="geometry" />
        </mxCell>
        <mxCell id="B5NhInNvNg8OOwda5CNB-384" value="" style="shape=image;html=1;verticalAlign=top;verticalLabelPosition=bottom;labelBackgroundColor=#ffffff;imageAspect=0;aspect=fixed;image=https://cdn4.iconfinder.com/data/icons/evil-icons-user-interface/64/plus-128.png;labelBorderColor=none;fontFamily=Times New Roman;fontSize=20;fontColor=#000000;strokeColor=#0066CC;strokeWidth=2;fillColor=#66B2FF;gradientColor=#3399FF;" vertex="1" parent="1">
          <mxGeometry x="2320" y="2642" width="31" height="31" as="geometry" />
        </mxCell>
        <mxCell id="B5NhInNvNg8OOwda5CNB-385" value="adherer" style="text;html=1;strokeColor=none;fillColor=none;align=center;verticalAlign=middle;whiteSpace=wrap;rounded=0;labelBorderColor=none;fontFamily=Architects Daughter;fontSize=20;fontColor=#000000;fontSource=https%3A%2F%2Ffonts.googleapis.com%2Fcss%3Ffamily%3DArchitects%2BDaughter;" vertex="1" parent="1">
          <mxGeometry x="2290" y="2470" width="75.5" height="20" as="geometry" />
        </mxCell>
        <mxCell id="B5NhInNvNg8OOwda5CNB-386" style="edgeStyle=orthogonalEdgeStyle;rounded=0;orthogonalLoop=1;jettySize=auto;html=1;exitX=0.5;exitY=1;exitDx=0;exitDy=0;entryX=0.5;entryY=0;entryDx=0;entryDy=0;fontFamily=Architects Daughter;fontSource=https%3A%2F%2Ffonts.googleapis.com%2Fcss%3Ffamily%3DArchitects%2BDaughter;fontSize=20;fontColor=#000000;" edge="1" parent="1" source="B5NhInNvNg8OOwda5CNB-348" target="B5NhInNvNg8OOwda5CNB-348">
          <mxGeometry relative="1" as="geometry" />
        </mxCell>
        <mxCell id="B5NhInNvNg8OOwda5CNB-387" value="" style="line;strokeWidth=2;html=1;labelBorderColor=none;fontSize=20;fontColor=#B3B3B3;fillColor=#99CCFF;gradientColor=#ffffff;" vertex="1" parent="1">
          <mxGeometry x="1288" y="2880" width="1190" height="10" as="geometry" />
        </mxCell>
        <mxCell id="B5NhInNvNg8OOwda5CNB-423" value="&lt;font style=&quot;font-size: 20px&quot; color=&quot;#000066&quot;&gt;Rotaract&lt;/font&gt;" style="rounded=1;arcSize=9;fillColor=#F7F8F9;align=left;spacingLeft=5;strokeColor=#DEE1E6;html=1;strokeWidth=2;fontColor=#596780;fontSize=12;labelBorderColor=none;fontFamily=Architects Daughter;fontSource=https%3A%2F%2Ffonts.googleapis.com%2Fcss%3Ffamily%3DArchitects%2BDaughter;" vertex="1" parent="1">
          <mxGeometry x="2042" y="3077" width="290" height="33" as="geometry" />
        </mxCell>
      </root>
    </mxGraphModel>
  </diagram>
</mxfile>
